<svg xmlns="http://www.w3.org/2000/svg" width="1440" height="411" viewBox="0 0 1440 411">
  <defs>
    <clipPath id="c57456cd2a">
      <path d="M 0 0 L 1440 0 L 1440 410.25 L 0 410.25 Z" />
    </clipPath>
    <clipPath id="2b2a42d6e7">
      <path d="M 0 0.14 L 1439.76 0.14 L 1439.76 410.25 L 0 410.25 Z" />
    </clipPath>
    <clipPath id="f8eefd1a23">
      <path d="M 0 0.14 L 1439.76 0.14 L 1439.76 265 L 0 265 Z" />
    </clipPath>
    <clipPath id="bc1b264820">
      <path d="M 569 25 L 1439.76 25 L 1439.76 283 L 569 283 Z" />
    </clipPath>
    <clipPath id="5df229723b">
      <rect x="0" y="0" width="1440" height="411"/>
    </clipPath>
  </defs>

  <g clip-path="url(#c57456cd2a)">
    <g clip-path="url(#5df229723b)">
      <g clip-path="url(#2b2a42d6e7)">
        <path fill="#112b40" d="M 1439.58 155.44 L 1439.48 0 L 0.41 0 C 23.56 84.98 76.77 157.25 148.36 204.65 C 151.10 206.46 153.86 208.23 156.64 209.97 C 310.64 326.35 492.00 325.72 700.75 208.08 C 891.26 114.50 1066.39 94.81 1226.12 149 C 1227.99 149.78 1229.85 150.55 1231.69 151.33 C 1329.38 192.65 1398.68 236.51 1439.58 282.94 Z" />
      </g>

      <g clip-path="url(#f8eefd1a23)">
        <path fill="#112b40" d="M 890.28 29.94 C 1126.04 11.57 1309.14 53.61 1439.58 156.07 L 1439.48 0 L 0.41 0 C 23.56 84.98 76.77 157.25 148.36 204.65 C 176.11 223.02 206.62 237.66 239.21 247.85 C 352.80 283.37 476.39 260.13 569.20 186.31 C 571.72 184.31 574.22 182.27 576.69 180.19 C 690.46 84.21 795.00 34.13 890.28 29.94 Z" />
      </g>

      <g clip-path="url(#bc1b264820)">
        <path fill="#15597f" d="M 1439.58 155.44 C 1309.14 52.98 1126.04 10.93 890.28 29.31 C 795 33.5 690.46 83.58 576.69 179.56 C 574.22 181.64 571.72 183.68 569.21 185.68 C 720.91 74.81 901.68 48.42 1111.51 106.50 C 1155.46 121.09 1195.52 136.04 1231.69 151.33 C 1329.38 192.65 1398.68 236.51 1439.58 282.94 Z" />
      </g>

      <path fill="#017c99" d="M 1111.51 106.07 C 901.68 47.99 720.91 74.38 569.20 185.25 C 476.39 259.07 352.80 282.31 239.21 246.79 C 206.62 236.60 176.11 221.96 148.36 203.58 C 304.12 326.34 488.25 327.84 700.75 208.08 C 893.48 113.41 1070.46 94.35 1231.69 150.90 C 1195.52 135.61 1155.46 120.67 1111.51 106.07 Z" />

      <path fill="#659bd2" d="M 1439.58 292.53 C 1321.75 165.08 1140.72 124.42 896.48 170.54 C 1130.38 155.10 1311.41 235.05 1439.58 410.39 Z" />

      <path fill="#15597f" d="M 440.92 306.32 C 264.61 327.68 117.85 259.11 0.64 100.61 L 0.51 230.18 C 148.58 336.39 295.39 361.77 440.92 306.32 Z" />
    </g>
  </g>
</svg>
