<svg xmlns="http://www.w3.org/2000/svg" xmlns:xlink="http://www.w3.org/1999/xlink" width="1920" zoomAndPan="magnify" viewBox="0 0 1440 809.999993" height="1080" preserveAspectRatio="xMidYMid meet" version="1.0"><defs><clipPath id="c9ccc6a62f"><path d="M 0 447 L 1303.5 447 L 1303.5 810 L 0 810 Z M 0 447 " clip-rule="nonzero"/></clipPath><clipPath id="c57456cd2a"><path d="M 0 0 L 1440 0 L 1440 410.25 L 0 410.25 Z M 0 0 " clip-rule="nonzero"/></clipPath><clipPath id="2b2a42d6e7"><path d="M 0 0.140625 L 1439.761719 0.140625 L 1439.761719 410.25 L 0 410.25 Z M 0 0.140625 " clip-rule="nonzero"/></clipPath><clipPath id="f8eefd1a23"><path d="M 0 0.140625 L 1439.761719 0.140625 L 1439.761719 265 L 0 265 Z M 0 0.140625 " clip-rule="nonzero"/></clipPath><clipPath id="bc1b264820"><path d="M 569 25 L 1439.761719 25 L 1439.761719 283 L 569 283 Z M 569 25 " clip-rule="nonzero"/></clipPath><clipPath id="a6cccbc701"><path d="M 896 152 L 1439.761719 152 L 1439.761719 410.25 L 896 410.25 Z M 896 152 " clip-rule="nonzero"/></clipPath><clipPath id="5df229723b"><rect x="0" width="1440" y="0" height="411"/></clipPath></defs><rect x="-144" width="1728" fill="#ffffff" y="-80.999999" height="971.999992" fill-opacity="1"/><rect x="-144" width="1728" fill="#ffffff" y="-80.999999" height="971.999992" fill-opacity="1"/><g clip-path="url(#c9ccc6a62f)"><path fill="#112b40" d="M 1303.863281 832.039062 L 0 832.039062 L 0 447.179688 C 16.832031 478.101562 148.121094 836.71875 492.742188 707.996094 C 855.5 572.523438 1194.359375 589.402344 1303.863281 832.039062 Z M 1303.863281 832.039062 " fill-opacity="1" fill-rule="nonzero"/></g><path fill="#ceddef" d="M 1260.925781 761.691406 C 1246.074219 750.078125 1100.386719 522.117188 664.308594 706.46875 C 539.503906 759.214844 441.703125 775.914062 365.683594 772.898438 C 193.621094 766.101562 133.085938 658.355469 123.679688 639.269531 C 122.78125 637.425781 122.328125 636.390625 122.328125 636.390625 C 122.328125 636.390625 122.824219 636.839844 123.726562 637.652344 C 139.433594 651.378906 285.078125 770.601562 517.042969 683.0625 C 796.179688 577.65625 1119.828125 493.671875 1260.925781 761.691406 Z M 1260.925781 761.691406 " fill-opacity="1" fill-rule="nonzero"/><path fill="#ceddef" d="M 719.171875 593.992188 C 719.171875 593.992188 1134.320312 405.1875 1277.21875 738.46875 C 1277.21875 738.46875 1171.089844 482.824219 719.171875 593.992188 Z M 719.171875 593.992188 " fill-opacity="1" fill-rule="nonzero"/><path fill="#5893d4" d="M 0 447.132812 C 0 470.359375 56.257812 650.839844 178.722656 700.121094 C 300.605469 749.179688 408.082031 744.09375 492.066406 691.703125 C 492.109375 691.75 201.769531 783.160156 0 447.132812 Z M 0 447.132812 " fill-opacity="1" fill-rule="nonzero"/><g clip-path="url(#c57456cd2a)"><g transform="matrix(1, 0, 0, 1, 0, 0.000000000000039746)"><g clip-path="url(#5df229723b)"><g clip-path="url(#2b2a42d6e7)"><path fill="#112b40" d="M 1439.585938 155.441406 L 1439.484375 -0.0195312 L 0.414062 -0.0195312 C 23.558594 84.980469 76.773438 157.25 148.367188 204.652344 C 151.101562 206.460938 153.859375 208.234375 156.648438 209.96875 C 310.640625 326.347656 492.003906 325.726562 700.75 208.082031 C 891.265625 114.503906 1066.390625 94.816406 1226.128906 149 C 1227.992188 149.777344 1229.847656 150.554688 1231.691406 151.335938 C 1329.382812 192.648438 1398.679688 236.515625 1439.582031 282.945312 L 1439.582031 155.441406 Z M 440.921875 306.320312 C 264.613281 327.683594 117.851562 259.113281 0.644531 100.613281 L 0.511719 230.183594 C 148.589844 336.398438 295.390625 361.777344 440.921875 306.320312 Z M 1439.585938 292.535156 C 1321.757812 165.089844 1140.726562 124.425781 896.488281 170.546875 C 1130.382812 155.105469 1311.414062 235.054688 1439.585938 410.390625 Z M 1439.585938 292.535156 " fill-opacity="1" fill-rule="evenodd"/></g><g clip-path="url(#f8eefd1a23)"><path fill="#112b40" d="M 890.285156 29.949219 C 1126.042969 11.570312 1309.144531 53.613281 1439.585938 156.074219 L 1439.484375 -0.0195312 L 0.414062 -0.0195312 C 23.558594 84.980469 76.773438 157.253906 148.367188 204.652344 C 176.117188 223.023438 206.628906 237.660156 239.21875 247.851562 C 352.804688 283.371094 476.390625 260.136719 569.207031 186.316406 C 571.726562 184.3125 574.222656 182.273438 576.695312 180.195312 C 690.46875 84.214844 795 34.132812 890.285156 29.949219 Z M 890.285156 29.949219 " fill-opacity="1" fill-rule="evenodd"/></g><g clip-path="url(#bc1b264820)"><path fill="#15597f" d="M 1439.585938 155.441406 C 1309.144531 52.980469 1126.042969 10.9375 890.285156 29.316406 C 795 33.5 690.46875 83.582031 576.695312 179.5625 C 574.222656 181.640625 571.726562 183.679688 569.210938 185.683594 C 720.917969 74.816406 901.6875 48.421875 1111.519531 106.507812 C 1155.46875 121.097656 1195.527344 136.042969 1231.695312 151.335938 C 1329.382812 192.648438 1398.679688 236.515625 1439.585938 282.945312 Z M 1439.585938 155.441406 " fill-opacity="1" fill-rule="evenodd"/></g><path fill="#017c99" d="M 1111.519531 106.078125 C 901.6875 47.992188 720.917969 74.386719 569.207031 185.253906 C 476.390625 259.074219 352.804688 282.3125 239.21875 246.789062 C 206.628906 236.597656 176.117188 221.964844 148.367188 203.589844 C 304.125 326.34375 488.253906 327.839844 700.753906 208.082031 C 893.480469 113.414062 1070.460938 94.355469 1231.691406 150.90625 C 1195.527344 135.613281 1155.46875 120.671875 1111.519531 106.078125 Z M 1111.519531 106.078125 " fill-opacity="1" fill-rule="evenodd"/><g clip-path="url(#a6cccbc701)"><path fill="#659bd2" d="M 1439.585938 292.535156 C 1321.757812 165.089844 1140.726562 124.425781 896.488281 170.546875 C 1130.382812 155.105469 1311.417969 235.054688 1439.585938 410.390625 Z M 1439.585938 292.535156 " fill-opacity="1" fill-rule="evenodd"/></g><path fill="#15597f" d="M 440.921875 306.320312 C 264.613281 327.683594 117.851562 259.113281 0.644531 100.613281 L 0.515625 230.183594 C 148.589844 336.398438 295.390625 361.777344 440.921875 306.320312 Z M 440.921875 306.320312 " fill-opacity="1" fill-rule="evenodd"/></g></g></g></svg>