<svg xmlns="http://www.w3.org/2000/svg" xmlns:xlink="http://www.w3.org/1999/xlink" width="1920" zoomAndPan="magnify" viewBox="0 0 1440 809.999993" height="1080" preserveAspectRatio="xMidYMid meet" version="1.0"><defs><clipPath id="c2600434c6"><path d="M 0 712.800781 L 1440 712.800781 L 1440 810 L 0 810 Z M 0 712.800781 " clip-rule="nonzero"/></clipPath><clipPath id="71a494c875"><path d="M 156 712.800781 L 1440 712.800781 L 1440 760 L 156 760 Z M 156 712.800781 " clip-rule="nonzero"/></clipPath><clipPath id="1672c84ce2"><path d="M 130.480469 0 L 1439.980469 0 L 1439.980469 75 L 130.480469 75 Z M 130.480469 0 " clip-rule="nonzero"/></clipPath><clipPath id="6f2ee9e062"><path d="M 0.492188 0 L 123 0 L 123 75 L 0.492188 75 Z M 0.492188 0 " clip-rule="nonzero"/></clipPath><clipPath id="ba97af4dcb"><path d="M 100 0 L 278 0 L 278 75 L 100 75 Z M 100 0 " clip-rule="nonzero"/></clipPath><clipPath id="2697684a69"><path d="M 257 0 L 1309.980469 0 L 1309.980469 75 L 257 75 Z M 257 0 " clip-rule="nonzero"/></clipPath><clipPath id="5c88ea97fa"><rect x="0" width="1310" y="0" height="75"/></clipPath><clipPath id="a39e49e804"><path d="M 0 164.609375 L 975 164.609375 L 975 268.859375 L 0 268.859375 Z M 0 164.609375 " clip-rule="nonzero"/></clipPath><clipPath id="cfaea3441c"><path d="M 0.480469 63 L 587 63 L 587 104.859375 L 0.480469 104.859375 Z M 0.480469 63 " clip-rule="nonzero"/></clipPath><clipPath id="64dd7bee31"><path d="M 0.480469 42 L 641 42 L 641 82 L 0.480469 82 Z M 0.480469 42 " clip-rule="nonzero"/></clipPath><clipPath id="65feb95afb"><path d="M 0.480469 0.726562 L 894 0.726562 L 894 104.859375 L 0.480469 104.859375 Z M 0.480469 0.726562 " clip-rule="nonzero"/></clipPath><clipPath id="21b816c1af"><path d="M 831 0.726562 L 974.160156 0.726562 L 974.160156 104.859375 L 831 104.859375 Z M 831 0.726562 " clip-rule="nonzero"/></clipPath><clipPath id="6b4fe81805"><path d="M 920 0.726562 L 974.160156 0.726562 L 974.160156 82 L 920 82 Z M 920 0.726562 " clip-rule="nonzero"/></clipPath><clipPath id="e198dea034"><rect x="0" width="975" y="0" height="105"/></clipPath><clipPath id="0106bd05aa"><path d="M 35.4375 405 L 1404.1875 405 L 1404.1875 534.75 L 35.4375 534.75 Z M 35.4375 405 " clip-rule="nonzero"/></clipPath><clipPath id="3e319f4892"><path d="M 158 90 L 1369.1875 90 L 1369.1875 105 L 158 105 Z M 158 90 " clip-rule="nonzero"/></clipPath><clipPath id="51357c5a9c"><path d="M 0.800781 24 L 1349 24 L 1349 105 L 0.800781 105 Z M 0.800781 24 " clip-rule="nonzero"/></clipPath><clipPath id="4044181a17"><rect x="0" width="1370" y="0" height="130"/></clipPath></defs><rect x="-144" width="1728" fill="#ffffff" y="-80.999999" height="971.999992" fill-opacity="1"/><rect x="-144" width="1728" fill="#ffffff" y="-80.999999" height="971.999992" fill-opacity="1"/><g clip-path="url(#c2600434c6)"><path fill="#112b40" d="M 0.519531 712.773438 L 134.503906 712.773438 L 172.257812 773.257812 L 1439.480469 773.257812 L 1439.480469 809.984375 L 0.519531 809.984375 Z M 0.519531 712.773438 " fill-opacity="1" fill-rule="evenodd"/></g><g clip-path="url(#71a494c875)"><path fill="#3381a8" d="M 156.226562 712.773438 L 1439.480469 712.773438 L 1439.480469 759.320312 L 184.664062 759.320312 Z M 156.226562 712.773438 " fill-opacity="1" fill-rule="evenodd"/></g><g clip-path="url(#1672c84ce2)"><g transform="matrix(1, 0, 0, 1, 130, 0.000000000000039746)"><g clip-path="url(#5c88ea97fa)"><g clip-path="url(#6f2ee9e062)"><path fill="#15597f" d="M 47.09375 75.222656 L 122.25 75.222656 L 75.636719 0.0703125 L 0.480469 0.0703125 Z M 47.09375 75.222656 " fill-opacity="1" fill-rule="nonzero"/></g><g clip-path="url(#ba97af4dcb)"><path fill="#15597f" d="M 148.480469 75.222656 L 277.652344 75.222656 L 230.160156 0.0703125 L 100.988281 0.0703125 Z M 148.480469 75.222656 " fill-opacity="1" fill-rule="nonzero"/></g><g clip-path="url(#2697684a69)"><path fill="#15597f" d="M 1309.992188 0.0703125 L 1309.992188 75.222656 L 306.808594 75.222656 L 257.339844 0.0703125 Z M 1309.992188 0.0703125 " fill-opacity="1" fill-rule="nonzero"/></g></g></g></g><g clip-path="url(#a39e49e804)"><g transform="matrix(1, 0, 0, 1, -0.000000000000000056, 164)"><g clip-path="url(#e198dea034)"><g clip-path="url(#cfaea3441c)"><path fill="#064163" d="M 0.570312 104.96875 L 586.046875 104.96875 L 544.988281 63.90625 L 0.570312 63.90625 Z M 0.570312 104.96875 " fill-opacity="1" fill-rule="nonzero"/></g><g clip-path="url(#64dd7bee31)"><path fill="#15597f" d="M 0.570312 81.183594 L 640.964844 81.183594 L 602.289062 42.511719 L 0.570312 42.511719 Z M 0.570312 81.183594 " fill-opacity="1" fill-rule="nonzero"/></g><g clip-path="url(#65feb95afb)"><path fill="#064163" d="M 639.84375 56.703125 L 688.109375 104.96875 L 893.851562 104.96875 L 819.941406 0.621094 L 0.570312 0.621094 L 0.570312 56.703125 Z M 639.84375 56.703125 " fill-opacity="1" fill-rule="nonzero"/></g><g clip-path="url(#21b816c1af)"><path fill="#064163" d="M 974.148438 104.96875 L 974.148438 98.78125 L 908.917969 0.621094 L 831.875 0.621094 L 905.78125 104.96875 Z M 974.148438 104.96875 " fill-opacity="1" fill-rule="nonzero"/></g><g clip-path="url(#6b4fe81805)"><path fill="#064163" d="M 974.148438 0.621094 L 920.609375 0.621094 L 974.148438 81.183594 Z M 974.148438 0.621094 " fill-opacity="1" fill-rule="nonzero"/></g></g></g></g><g clip-path="url(#0106bd05aa)"><g transform="matrix(1, 0, 0, 1, 35, 405)"><g clip-path="url(#4044181a17)"><path fill="#15597f" d="M 56.582031 29.613281 L 355.328125 29.613281 L 383.933594 61.527344 L 87.71875 61.527344 Z M 56.582031 29.613281 " fill-opacity="1" fill-rule="evenodd"/><g clip-path="url(#3e319f4892)"><path fill="#15597f" d="M 1357.003906 90.707031 L 1369.550781 104.703125 L 158.609375 104.703125 L 162.355469 90.707031 Z M 1357.003906 90.707031 " fill-opacity="1" fill-rule="evenodd"/></g><g clip-path="url(#51357c5a9c)"><path fill="#042f62" d="M 0.4375 24.789062 L 41.472656 24.789062 L 81.683594 66.003906 L 83.3125 67.679688 L 1334.21875 67.679688 L 1348.710938 83.847656 L 157.105469 83.847656 L 156.421875 86.390625 L 151.515625 104.703125 L 72.0625 104.703125 Z M 0.4375 24.789062 " fill-opacity="1" fill-rule="evenodd"/></g></g></g></g></svg>