<svg width="1920" height="1860" viewBox="0 0 1920 1860" fill="none" xmlns="http://www.w3.org/2000/svg">
<path d="M1920 1702.84L1856.02 1731.06C1791.97 1759.11 1664.02 1815.56 1536 1841.75C1407.98 1867.94 1280.02 1863.89 1152 1842.59C1023.98 1821.13 896.025 1782.26 768 1779.22C639.975 1776.01 512.025 1808.8 384 1810.66C255.975 1812.68 128.025 1783.95 63.975 1769.59L0 1755.23V910.265H63.975C128.025 910.265 255.975 910.265 384 910.265C512.025 910.265 639.975 910.265 768 910.265C896.025 910.265 1023.98 910.265 1152 910.265C1280.02 910.265 1407.98 910.265 1536 910.265C1664.02 910.265 1791.97 910.265 1856.02 910.265H1920V1702.84Z" fill="#22548F"/>
<path d="M0 157.162L63.975 128.94C128.025 100.887 255.975 44.4441 384 18.2503C512.025 -7.94346 639.975 -3.88765 768 17.4054C896.025 38.8673 1023.98 77.7355 1152 80.7774C1280.02 83.9882 1407.98 51.2038 1536 49.3449C1664.02 47.317 1791.97 76.0456 1856.02 90.41L1920 104.774V949.735H1856.02C1791.97 949.735 1664.02 949.735 1536 949.735C1407.98 949.735 1280.02 949.735 1152 949.735C1023.98 949.735 896.025 949.735 768 949.735C639.975 949.735 512.025 949.735 384 949.735C255.975 949.735 128.025 949.735 63.975 949.735H0V157.162Z" fill="#22548F"/>
</svg>
