<svg width="1920" height="1600" viewBox="0 0 1920 1600" fill="none" xmlns="http://www.w3.org/2000/svg">
<path d="M1920 1464.81L1856.02 1489.08C1791.97 1513.22 1664.02 1561.77 1536 1584.3C1407.98 1606.83 1280.02 1603.34 1152 1585.03C1023.98 1566.57 896.025 1533.13 768 1530.51C639.975 1527.75 512.025 1555.95 384 1557.55C255.975 1559.3 128.025 1534.58 63.975 1522.23L0 1509.87V783.024H63.975C128.025 783.024 255.975 783.024 384 783.024C512.025 783.024 639.975 783.024 768 783.024C896.025 783.024 1023.98 783.024 1152 783.024C1280.02 783.024 1407.98 783.024 1536 783.024C1664.02 783.024 1791.97 783.024 1856.02 783.024H1920V1464.81Z" fill="#22548F"/>
<path d="M0 135.193L63.975 110.916C128.025 86.7849 255.975 38.2315 384 15.6992C512.025 -6.83308 639.975 -3.34422 768 14.9723C896.025 33.4343 1023.98 66.8693 1152 69.4859C1280.02 72.2479 1407.98 44.0463 1536 42.4472C1664.02 40.7028 1791.97 65.4156 1856.02 77.772L1920 90.1284V816.976H1856.02C1791.97 816.976 1664.02 816.976 1536 816.976C1407.98 816.976 1280.02 816.976 1152 816.976C1023.98 816.976 896.025 816.976 768 816.976C639.975 816.976 512.025 816.976 384 816.976C255.975 816.976 128.025 816.976 63.975 816.976H0V135.193Z" fill="#22548F"/>
</svg>
