<svg width="2560" height="1600" viewBox="0 0 2560 1600" fill="none" xmlns="http://www.w3.org/2000/svg">
<path d="M2560 1464.81L2474.7 1489.08C2389.3 1513.22 2218.7 1561.77 2048 1584.3C1877.3 1606.83 1706.7 1603.34 1536 1585.03C1365.3 1566.57 1194.7 1533.13 1024 1530.51C853.3 1527.75 682.7 1555.95 512 1557.55C341.3 1559.3 170.7 1534.58 85.3 1522.23L0 1509.87V783.024H85.3C170.7 783.024 341.3 783.024 512 783.024C682.7 783.024 853.3 783.024 1024 783.024C1194.7 783.024 1365.3 783.024 1536 783.024C1706.7 783.024 1877.3 783.024 2048 783.024C2218.7 783.024 2389.3 783.024 2474.7 783.024H2560V1464.81Z" fill="#22548F"/>
<path d="M0 135.193L85.3 110.916C170.7 86.7849 341.3 38.2315 512 15.6992C682.7 -6.83308 853.3 -3.34422 1024 14.9723C1194.7 33.4343 1365.3 66.8693 1536 69.4859C1706.7 72.2479 1877.3 44.0463 2048 42.4472C2218.7 40.7028 2389.3 65.4156 2474.7 77.772L2560 90.1284V816.976H2474.7C2389.3 816.976 2218.7 816.976 2048 816.976C1877.3 816.976 1706.7 816.976 1536 816.976C1365.3 816.976 1194.7 816.976 1024 816.976C853.3 816.976 682.7 816.976 512 816.976C341.3 816.976 170.7 816.976 85.3 816.976H0V135.193Z" fill="#22548F"/>
</svg>
