<svg width="2560" height="1860" viewBox="0 0 2560 1860" fill="none" xmlns="http://www.w3.org/2000/svg">
<path d="M2560 1702.84L2474.7 1731.06C2389.3 1759.11 2218.7 1815.56 2048 1841.75C1877.3 1867.94 1706.7 1863.89 1536 1842.59C1365.3 1821.13 1194.7 1782.26 1024 1779.22C853.3 1776.01 682.7 1808.8 512 1810.66C341.3 1812.68 170.7 1783.95 85.3 1769.59L0 1755.23V910.265H85.3C170.7 910.265 341.3 910.265 512 910.265C682.7 910.265 853.3 910.265 1024 910.265C1194.7 910.265 1365.3 910.265 1536 910.265C1706.7 910.265 1877.3 910.265 2048 910.265C2218.7 910.265 2389.3 910.265 2474.7 910.265H2560V1702.84Z" fill="#22548F"/>
<path d="M0 157.162L85.3 128.94C170.7 100.887 341.3 44.4441 512 18.2503C682.7 -7.94346 853.3 -3.88765 1024 17.4054C1194.7 38.8673 1365.3 77.7355 1536 80.7774C1706.7 83.9882 1877.3 51.2038 2048 49.3449C2218.7 47.317 2389.3 76.0456 2474.7 90.41L2560 104.774V949.735H2474.7C2389.3 949.735 2218.7 949.735 2048 949.735C1877.3 949.735 1706.7 949.735 1536 949.735C1365.3 949.735 1194.7 949.735 1024 949.735C853.3 949.735 682.7 949.735 512 949.735C341.3 949.735 170.7 949.735 85.3 949.735H0V157.162Z" fill="#22548F"/>
</svg>
