<svg width="752" height="559" viewBox="0 0 752 559" fill="none" xmlns="http://www.w3.org/2000/svg">
<g clip-path="url(#clip0_191_316)">
<path d="M641.235 553.957C649.205 535.287 654.825 514.967 652.165 494.857C651.253 488.038 649.269 481.406 646.285 475.207C643.881 470.154 640.778 465.464 637.065 461.277C635.782 459.8 634.02 458.821 632.088 458.51C630.156 458.2 628.177 458.577 626.495 459.577C626.235 459.727 625.975 459.887 625.735 460.057C624.433 460.974 623.406 462.229 622.765 463.687C622.641 463.966 622.537 464.253 622.455 464.547C622.088 465.775 621.989 467.068 622.165 468.337C623.567 478.687 623.263 489.196 621.265 499.447C620.755 502.057 620.132 504.644 619.395 507.207C617.741 505.142 615.982 503.163 614.125 501.277C609.311 496.399 603.76 492.309 597.675 489.157H597.665C597.635 489.137 597.615 489.127 597.585 489.107C590.205 485.347 580.365 486.907 574.615 489.467C574.235 489.627 573.875 489.807 573.525 489.977C570.525 491.517 569.035 493.287 570.315 494.447C570.605 494.697 570.895 494.957 571.165 495.217C579.882 503.276 587.024 512.886 592.225 523.557V523.567C594.292 527.816 596.034 532.215 597.435 536.727C599.365 542.957 600.965 549.867 604.735 554.947C605.121 555.482 605.538 555.993 605.985 556.477L639.665 556.207C639.745 556.167 639.815 556.137 639.895 556.097L641.235 556.147C641.185 555.907 641.125 555.667 641.065 555.427V555.407C641.035 555.277 640.995 555.137 640.965 555.017C640.935 554.917 640.915 554.827 640.895 554.747C640.955 554.597 641.015 554.457 641.085 554.307C641.135 554.187 641.185 554.077 641.235 553.957Z" fill="#F0F0F0"/>
<path d="M641.064 555.407C641.054 555.482 641.025 555.553 640.979 555.613C640.933 555.673 640.873 555.72 640.804 555.751C640.734 555.781 640.658 555.793 640.583 555.785C640.508 555.777 640.436 555.75 640.374 555.707C638.99 554.703 637.472 553.898 635.864 553.317C635.854 553.307 635.854 553.317 635.854 553.317C633.825 552.587 631.738 552.032 629.614 551.657C629.594 551.657 629.584 551.647 629.564 551.647C628.704 551.477 627.844 551.327 626.984 551.167C622.804 550.397 618.554 549.467 614.934 547.087C613.461 546.174 612.198 544.96 611.228 543.525C610.257 542.089 609.602 540.464 609.304 538.757C608.774 535.407 609.444 532.037 609.724 528.697C609.744 528.457 609.764 528.207 609.774 527.967C609.794 527.657 609.804 527.357 609.804 527.057C609.907 524.025 609.298 521.011 608.024 518.257C606.389 514.96 604.242 511.943 601.664 509.317C600.334 507.887 598.948 506.51 597.504 505.187H597.494C597.434 505.127 597.384 505.077 597.324 505.027C597.324 505.017 597.314 505.007 597.304 504.997C591.133 499.39 584.134 494.769 576.554 491.297C576.284 491.177 576.004 491.047 575.724 490.927C574.994 490.597 574.264 490.287 573.524 489.977C573.874 489.807 574.234 489.627 574.614 489.467C583.069 493.043 590.872 497.997 597.704 504.127C597.934 504.327 598.164 504.537 598.384 504.747C600.114 506.347 601.761 508.024 603.324 509.777C605.824 512.47 607.85 515.567 609.314 518.937C610.388 521.664 610.862 524.59 610.704 527.517C610.684 528.077 610.644 528.637 610.594 529.207C610.284 532.577 609.594 536.057 610.364 539.427C611.244 543.267 614.224 545.947 617.684 547.587C619.975 548.608 622.378 549.353 624.844 549.807C629.944 550.877 635.214 551.397 639.674 554.137H639.684C639.754 554.187 639.824 554.227 639.884 554.267C639.894 554.267 639.894 554.267 639.894 554.277C640.217 554.468 640.527 554.679 640.824 554.907C640.844 554.917 640.864 554.937 640.884 554.947C640.913 554.968 640.94 554.991 640.964 555.017C641.011 555.069 641.044 555.132 641.061 555.2C641.078 555.268 641.08 555.339 641.064 555.407Z" fill="white"/>
<path d="M598.122 505.091C599.939 502.837 600.896 500.011 600.822 497.117C600.748 494.223 599.647 491.449 597.717 489.291C597.325 488.856 596.63 489.445 597.023 489.881C598.824 491.887 599.849 494.47 599.912 497.165C599.976 499.861 599.074 502.49 597.369 504.578C596.999 505.032 597.754 505.542 598.122 505.091Z" fill="white"/>
<path d="M610.095 527.027C604.216 527.71 598.296 526.153 593.515 522.665C593.042 522.319 592.53 523.072 593.002 523.417C597.985 527.037 604.149 528.646 610.264 527.921C610.847 527.852 610.674 526.957 610.095 527.027Z" fill="white"/>
<path d="M576.614 491.188C576.594 491.228 576.574 491.258 576.554 491.298C576.003 492.311 575.234 493.188 574.301 493.866C573.369 494.544 572.298 495.006 571.164 495.218C570.894 494.958 570.604 494.698 570.314 494.448C570.36 494.42 570.411 494.402 570.464 494.398C571.554 494.278 572.599 493.901 573.513 493.298C574.428 492.694 575.186 491.882 575.724 490.928C575.774 490.848 575.824 490.758 575.864 490.678C575.898 490.628 575.94 490.586 575.99 490.553C576.04 490.52 576.096 490.498 576.154 490.486C576.213 490.475 576.273 490.476 576.332 490.488C576.39 490.5 576.445 490.524 576.494 490.558C576.591 490.628 576.656 490.732 576.679 490.849C576.701 490.966 576.678 491.087 576.614 491.188Z" fill="white"/>
<path d="M73.2613 5.44336C55.2811 5.46363 38.0431 12.6152 25.3292 25.3292C12.6152 38.0431 5.46363 55.2811 5.44336 73.2613V333.161C5.46363 351.141 12.6152 368.379 25.3292 381.093C38.0431 393.807 55.2811 400.959 73.2613 400.979H677.894C695.874 400.959 713.112 393.807 725.826 381.093C738.54 368.379 745.692 351.141 745.712 333.161V73.2613C745.692 55.2811 738.54 38.0431 725.826 25.3292C713.112 12.6152 695.874 5.46363 677.894 5.44336H73.2613Z" fill="white"/>
<path d="M677.894 406.422H73.261C53.8377 406.4 35.2162 398.674 21.4818 384.94C7.74743 371.206 0.0218624 352.584 0 333.161V73.261C0.0218624 53.8377 7.74743 35.2162 21.4818 21.4818C35.2162 7.74743 53.8377 0.0218624 73.261 0H677.894C697.317 0.0218491 715.939 7.74741 729.673 21.4818C743.407 35.2161 751.133 53.8377 751.155 73.261V333.161C751.133 352.584 743.407 371.206 729.673 384.94C715.939 398.674 697.317 406.4 677.894 406.422ZM73.261 10.8863C56.7239 10.905 40.8695 17.4826 29.176 29.176C17.4826 40.8695 10.905 56.7239 10.8863 73.261V333.161C10.905 349.698 17.4826 365.552 29.176 377.246C40.8695 388.939 56.7239 395.517 73.261 395.536H677.894C694.431 395.517 710.285 388.939 721.979 377.246C733.672 365.552 740.25 349.698 740.268 333.161V73.261C740.25 56.7239 733.672 40.8695 721.979 29.176C710.285 17.4826 694.431 10.905 677.894 10.8863H73.261Z" fill="#E6E6E6"/>
<path d="M377.201 59.252H89.6574C83.5205 59.2625 77.638 61.7051 73.2985 66.0445C68.959 70.384 66.5164 76.2666 66.5059 82.4035V212.096C66.5033 213.471 66.631 214.844 66.887 216.196C66.9777 216.813 67.1229 217.412 67.2679 218.01C68.5851 222.946 71.4926 227.309 75.5401 230.425C79.5876 233.541 84.5494 235.236 89.6574 235.247H377.201C377.673 235.247 378.144 235.229 378.598 235.193H378.925V235.174C379.016 235.177 379.107 235.171 379.197 235.157C379.287 235.157 379.396 235.138 379.487 235.138C379.518 235.141 379.55 235.135 379.578 235.12C379.777 235.102 379.977 235.084 380.158 235.066C380.485 235.011 380.812 234.975 381.12 234.921C381.161 234.906 381.204 234.9 381.247 234.902C381.303 234.875 381.366 234.862 381.428 234.866C381.436 234.859 381.444 234.854 381.454 234.851C381.463 234.848 381.473 234.847 381.483 234.848C381.683 234.812 381.882 234.775 382.082 234.721C382.192 234.706 382.301 234.681 382.408 234.648C382.807 234.558 383.207 234.467 383.588 234.34C383.769 234.286 383.932 234.249 384.114 234.195C384.35 234.122 384.604 234.032 384.84 233.941C384.963 233.907 385.084 233.864 385.202 233.814C385.216 233.814 385.23 233.81 385.243 233.804C385.255 233.798 385.266 233.789 385.275 233.778C385.8 233.593 386.314 233.381 386.817 233.143C387.253 232.943 387.67 232.725 388.087 232.508C388.251 232.435 388.396 232.344 388.559 232.254C388.599 232.236 388.636 232.211 388.668 232.181C389.085 231.927 389.503 231.673 389.902 231.437C389.92 231.419 389.92 231.401 389.938 231.401C389.94 231.401 389.943 231.4 389.945 231.4C389.947 231.399 389.949 231.397 389.951 231.396C389.953 231.394 389.954 231.392 389.955 231.39C389.956 231.387 389.956 231.385 389.956 231.383C390.383 231.115 390.795 230.824 391.19 230.512H391.208C391.317 230.421 391.408 230.348 391.498 230.276C391.625 230.185 391.752 230.076 391.861 229.986C392.079 229.804 392.297 229.623 392.496 229.441C392.619 229.348 392.735 229.245 392.841 229.133C393.149 228.861 393.44 228.57 393.73 228.28C393.885 228.132 394.03 227.974 394.165 227.808C394.391 227.592 394.603 227.362 394.8 227.119C394.982 226.883 395.182 226.647 395.363 226.411C395.578 226.163 395.778 225.903 395.962 225.631C396.288 225.196 396.579 224.76 396.869 224.288C397.105 223.907 397.341 223.508 397.558 223.109C397.667 222.909 397.776 222.692 397.885 222.474C397.903 222.474 397.903 222.456 397.903 222.438C398.103 222.057 398.284 221.676 398.447 221.276C398.52 221.113 398.593 220.968 398.647 220.805C398.792 220.496 398.901 220.17 399.028 219.843C399.228 219.244 399.427 218.627 399.59 218.011C399.736 217.412 399.881 216.813 399.971 216.196C400.227 214.844 400.355 213.472 400.352 212.096V82.4035C400.342 76.2666 397.899 70.384 393.56 66.0445C389.22 61.7051 383.338 59.2625 377.201 59.252Z" fill="#FDFAF6"/>
<path opacity="0.3" d="M400.352 96.4473H66.5059V98.2616H400.352V96.4473Z" fill="white"/>
<path opacity="0.3" d="M400.352 116.406H66.5059V118.221H400.352V116.406Z" fill="white"/>
<path opacity="0.3" d="M400.352 136.363H66.5059V138.178H400.352V136.363Z" fill="white"/>
<path opacity="0.3" d="M400.352 156.322H66.5059V158.137H400.352V156.322Z" fill="white"/>
<path opacity="0.3" d="M400.352 176.281H66.5059V178.096H400.352V176.281Z" fill="white"/>
<path opacity="0.3" d="M400.352 196.238H66.5059V198.053H400.352V196.238Z" fill="white"/>
<path opacity="0.3" d="M399.971 216.197C399.88 216.814 399.735 217.413 399.59 218.012H66.7597C66.6503 217.412 66.5776 216.806 66.542 216.197H399.971Z" fill="white"/>
<g opacity="0.1">
<path d="M400.352 184.009V212.096C400.355 213.472 400.227 214.844 399.971 216.196C399.881 216.813 399.736 217.412 399.59 218.011C399.427 218.627 399.228 219.244 399.028 219.843C398.901 220.17 398.792 220.496 398.647 220.805C398.593 220.968 398.52 221.113 398.447 221.276C398.284 221.676 398.103 222.057 397.903 222.438C397.903 222.456 397.903 222.474 397.885 222.474C397.776 222.692 397.667 222.909 397.558 223.109C397.341 223.508 397.105 223.907 396.869 224.288C396.578 224.76 396.288 225.196 395.962 225.631C395.778 225.903 395.578 226.163 395.363 226.411C395.182 226.647 394.982 226.883 394.8 227.119C394.603 227.362 394.391 227.592 394.165 227.808C394.03 227.974 393.885 228.132 393.73 228.28C393.44 228.57 393.149 228.861 392.841 229.133C392.735 229.245 392.619 229.348 392.496 229.441C392.297 229.623 392.079 229.804 391.861 229.986C391.752 230.076 391.625 230.185 391.498 230.276C391.408 230.348 391.317 230.421 391.208 230.512H391.19C390.795 230.824 390.383 231.115 389.956 231.383C389.956 231.385 389.956 231.387 389.955 231.39C389.954 231.392 389.953 231.394 389.951 231.396C389.949 231.397 389.947 231.399 389.945 231.399C389.943 231.4 389.94 231.401 389.938 231.401C389.92 231.401 389.92 231.419 389.902 231.437C389.648 231.618 389.375 231.782 389.103 231.945C388.958 232.036 388.813 232.108 388.668 232.181C388.636 232.211 388.599 232.236 388.559 232.253C388.396 232.344 388.251 232.435 388.087 232.507C387.67 232.725 387.253 232.943 386.817 233.142C386.314 233.38 385.8 233.592 385.275 233.778C385.266 233.789 385.255 233.798 385.243 233.804C385.23 233.81 385.216 233.814 385.202 233.814C385.084 233.864 384.963 233.907 384.839 233.941C384.604 234.031 384.35 234.122 384.114 234.195C383.932 234.249 383.769 234.285 383.588 234.34C383.207 234.467 382.807 234.558 382.408 234.648C382.301 234.681 382.192 234.705 382.082 234.721C381.882 234.775 381.683 234.812 381.483 234.848C381.473 234.847 381.463 234.848 381.454 234.851C381.444 234.854 381.436 234.859 381.428 234.866C381.366 234.862 381.303 234.875 381.247 234.902C381.204 234.899 381.161 234.906 381.12 234.921C380.812 234.975 380.485 235.011 380.158 235.066C379.977 235.084 379.777 235.102 379.578 235.12C379.55 235.135 379.518 235.141 379.487 235.138C379.288 235.156 379.106 235.174 378.925 235.193H378.888C378.689 235.211 378.489 235.211 378.29 235.229C377.927 235.247 377.564 235.247 377.201 235.247H89.6574C84.5494 235.236 79.5876 233.541 75.5401 230.425C71.4925 227.309 68.5851 222.946 67.2679 218.01H66.7599C66.6505 217.411 66.5778 216.805 66.5422 216.196C66.524 215.851 66.5059 215.488 66.5059 215.144V183.501C70.314 183.613 74.0905 184.23 77.7369 185.334C87.6071 188.345 97.2052 193.444 107.511 193.444C108.327 193.444 109.18 193.408 110.015 193.335C120.865 192.428 129.302 185.696 136.323 178.094C136.886 177.495 137.448 176.897 137.974 176.28C139.299 174.81 140.569 173.304 141.803 171.816C145.745 166.838 150.162 162.257 154.993 158.136C155.774 157.501 156.554 156.902 157.352 156.322C162.037 152.828 167.554 150.62 173.355 149.917C174.099 149.844 174.843 149.79 175.587 149.772C183.352 149.536 190.646 152.33 197.287 156.322C198.248 156.902 199.21 157.501 200.135 158.136C203.31 160.288 206.369 162.608 209.298 165.085C213.82 169.057 218.543 172.794 223.45 176.28C223.813 176.534 224.176 176.788 224.539 177.005C225.101 177.387 225.682 177.749 226.262 178.094C231.233 181.289 236.822 183.397 242.664 184.281C242.864 184.317 243.082 184.354 243.299 184.372C252.752 185.479 261.552 182.685 269.59 178.094C270.588 177.514 271.604 176.915 272.584 176.28C278.862 172.107 284.747 167.37 290.165 162.128C291.58 160.803 293.014 159.46 294.501 158.136C295.173 157.537 295.844 156.92 296.534 156.322C307.311 146.85 319.739 138.178 334.418 138.178C335.035 138.178 335.67 138.196 336.305 138.232C346.864 138.74 356.136 143.857 363.92 150.352C366.181 152.228 368.343 154.221 370.397 156.322C370.488 156.412 370.56 156.485 370.651 156.576C371.159 157.084 371.667 157.61 372.139 158.136C377.945 164.214 383.297 170.71 389.611 176.28C390.301 176.915 391.008 177.514 391.734 178.094C393.911 179.902 396.216 181.551 398.629 183.029C399.191 183.374 399.772 183.701 400.352 184.009Z" fill="black"/>
</g>
<g opacity="0.1">
<path d="M400.352 156.595V212.097C400.355 213.472 400.227 214.845 399.971 216.197C399.881 216.814 399.736 217.413 399.59 218.012C399.427 218.628 399.228 219.245 399.028 219.844C398.901 220.171 398.792 220.497 398.647 220.806C398.593 220.969 398.52 221.114 398.447 221.277C398.284 221.677 398.103 222.058 397.903 222.439C397.903 222.457 397.903 222.475 397.885 222.475C397.776 222.693 397.667 222.91 397.558 223.11C397.341 223.509 397.105 223.908 396.869 224.289C396.578 224.761 396.288 225.196 395.962 225.632C395.778 225.904 395.578 226.164 395.363 226.412C395.182 226.648 394.982 226.884 394.8 227.12C394.603 227.362 394.391 227.593 394.165 227.809C394.03 227.975 393.885 228.133 393.73 228.281C393.44 228.571 393.149 228.862 392.841 229.134C392.735 229.246 392.619 229.349 392.496 229.442C392.297 229.624 392.079 229.805 391.861 229.986C391.752 230.077 391.625 230.186 391.498 230.277C391.408 230.349 391.317 230.422 391.208 230.513H391.19C390.795 230.825 390.383 231.116 389.956 231.384C389.956 231.386 389.956 231.388 389.955 231.391C389.954 231.393 389.953 231.395 389.951 231.397C389.949 231.398 389.947 231.4 389.945 231.4C389.943 231.401 389.94 231.402 389.938 231.402C389.92 231.402 389.92 231.42 389.902 231.438C389.648 231.619 389.375 231.783 389.103 231.946C388.958 232.037 388.813 232.109 388.668 232.182C388.636 232.212 388.599 232.237 388.559 232.254C388.396 232.345 388.251 232.436 388.087 232.508C387.67 232.726 387.253 232.944 386.817 233.143C386.314 233.381 385.8 233.593 385.275 233.779C385.266 233.79 385.255 233.799 385.243 233.805C385.23 233.811 385.216 233.814 385.202 233.815C385.084 233.865 384.963 233.908 384.839 233.942C384.604 234.032 384.35 234.123 384.114 234.196C383.932 234.25 383.769 234.286 383.588 234.341C383.207 234.468 382.807 234.559 382.408 234.649C382.301 234.682 382.192 234.706 382.082 234.722C381.882 234.776 381.683 234.813 381.483 234.849C381.473 234.848 381.463 234.849 381.454 234.852C381.444 234.855 381.436 234.86 381.428 234.867C381.366 234.863 381.303 234.876 381.247 234.903C381.204 234.9 381.161 234.907 381.12 234.922C380.812 234.976 380.485 235.012 380.158 235.067C379.977 235.085 379.777 235.103 379.578 235.121C379.55 235.136 379.518 235.142 379.487 235.139C379.396 235.139 379.287 235.157 379.197 235.157C379.107 235.172 379.016 235.178 378.925 235.175C378.847 235.191 378.768 235.197 378.689 235.194H378.598C378.507 235.212 378.398 235.212 378.29 235.23C377.927 235.248 377.564 235.248 377.201 235.248H89.6574C84.5494 235.237 79.5876 233.542 75.5401 230.426C71.4926 227.31 68.5851 222.947 67.2679 218.011C67.1229 217.413 66.9777 216.814 66.887 216.197C66.631 214.845 66.5033 213.472 66.5059 212.096V179.783C67.1409 179.238 67.7578 178.676 68.3748 178.095C69.0098 177.496 69.6266 176.898 70.2435 176.281C75.648 170.656 80.5702 164.586 84.9582 158.137C85.1033 157.937 85.2485 157.756 85.3755 157.556C85.6658 157.139 85.956 156.74 86.2645 156.323C90.6649 149.882 95.5863 143.814 100.979 138.179C101.596 137.562 102.213 136.963 102.848 136.364C109.597 130.014 117.29 125.278 126.362 124.153C138.864 122.593 150.494 128.381 160.781 136.364C161.543 136.963 162.287 137.562 163.031 138.179C166.551 141.045 169.889 144.166 173.046 147.269C173.881 148.103 174.734 148.938 175.587 149.773C177.782 151.968 180.032 154.163 182.3 156.323C182.953 156.939 183.588 157.538 184.241 158.137C193.313 166.538 203.129 173.922 214.795 176.281C215.594 176.444 216.41 176.589 217.227 176.698C221.635 177.285 226.109 177.144 230.472 176.281C231.198 176.154 231.905 175.99 232.631 175.809C243.553 173.106 253.678 166.302 262.84 158.137C263.494 157.538 264.165 156.939 264.818 156.323C269.499 151.986 273.944 147.341 278.099 142.769C279.478 141.245 280.893 139.703 282.309 138.179C282.889 137.58 283.452 136.981 284.014 136.364C290.086 129.747 296.728 123.675 303.864 118.221C304.716 117.585 305.569 116.987 306.422 116.406C316.02 109.856 326.507 105.647 338.028 106.318C347.536 106.862 356.227 110.781 364.047 116.406C364.845 116.987 365.643 117.585 366.442 118.221C372.393 123.001 377.823 128.396 382.644 134.314C383.207 134.985 383.769 135.675 384.331 136.364C384.622 136.709 384.894 137.072 385.184 137.417L385.783 138.179C390.591 144.184 395.218 150.426 400.135 156.323L400.352 156.595Z" fill="black"/>
</g>
<g opacity="0.1">
<path d="M400.352 133.679V212.096C400.355 213.472 400.227 214.845 399.971 216.197C399.881 216.814 399.736 217.412 399.59 218.011C399.427 218.628 399.228 219.245 399.028 219.844C398.901 220.17 398.792 220.497 398.647 220.805C398.593 220.969 398.52 221.114 398.447 221.277C398.284 221.676 398.103 222.057 397.903 222.438C397.903 222.457 397.903 222.475 397.885 222.475C397.776 222.692 397.667 222.91 397.558 223.11C397.341 223.509 397.105 223.908 396.869 224.289C396.578 224.761 396.288 225.196 395.962 225.632C395.778 225.904 395.578 226.164 395.363 226.412C395.182 226.648 394.982 226.884 394.8 227.119C394.603 227.362 394.391 227.592 394.165 227.809C394.03 227.975 393.885 228.133 393.73 228.281C393.44 228.571 393.149 228.861 392.841 229.133C392.735 229.246 392.619 229.349 392.496 229.442C392.297 229.623 392.079 229.805 391.861 229.986C391.752 230.077 391.625 230.186 391.498 230.277C391.408 230.349 391.317 230.422 391.208 230.512H391.19C390.795 230.825 390.383 231.116 389.956 231.383C389.956 231.386 389.956 231.388 389.955 231.39C389.954 231.393 389.953 231.395 389.951 231.396C389.949 231.398 389.947 231.399 389.945 231.4C389.943 231.401 389.94 231.401 389.938 231.401C389.92 231.401 389.92 231.42 389.902 231.438C389.648 231.619 389.375 231.782 389.103 231.946C388.958 232.036 388.813 232.109 388.668 232.182C388.636 232.212 388.599 232.236 388.559 232.254C388.396 232.345 388.251 232.436 388.087 232.508C387.67 232.726 387.253 232.944 386.817 233.143C386.314 233.381 385.8 233.593 385.275 233.778C385.266 233.789 385.255 233.798 385.243 233.805C385.23 233.811 385.216 233.814 385.202 233.814C385.084 233.865 384.963 233.907 384.839 233.941C384.604 234.032 384.35 234.123 384.114 234.195C383.932 234.25 383.769 234.286 383.588 234.341C383.207 234.468 382.807 234.558 382.408 234.649C382.301 234.682 382.192 234.706 382.082 234.722C381.882 234.776 381.683 234.812 381.483 234.849C381.473 234.847 381.463 234.848 381.454 234.852C381.444 234.855 381.436 234.86 381.428 234.867C381.366 234.863 381.303 234.875 381.247 234.903C381.204 234.9 381.161 234.906 381.12 234.921C380.812 234.976 380.485 235.012 380.158 235.066C379.977 235.084 379.777 235.103 379.578 235.121C379.55 235.135 379.518 235.142 379.487 235.139C379.396 235.139 379.287 235.157 379.197 235.157C379.107 235.172 379.016 235.178 378.925 235.175C378.915 235.185 378.902 235.191 378.888 235.193H378.598C378.144 235.23 377.673 235.248 377.201 235.248H89.6574C84.5494 235.237 79.5876 233.542 75.5401 230.426C71.4926 227.31 68.5851 222.946 67.2679 218.011C67.1229 217.412 66.9777 216.814 66.887 216.197C66.631 214.845 66.5033 213.472 66.5059 212.096V165.249C68.3384 162.872 70.177 160.501 72.0216 158.137C72.4933 157.52 72.9651 156.921 73.4369 156.322C75.9226 153.129 78.4264 149.972 81.0028 146.887C83.4704 143.93 86.065 141.009 88.7684 138.178C89.3491 137.58 89.9295 136.963 90.5283 136.364C97.4115 129.193 105.317 123.079 113.988 118.22C115.168 117.567 116.365 116.968 117.581 116.406C124.018 113.332 130.983 111.516 138.102 111.053C147.439 110.587 156.749 112.425 165.208 116.406C166.478 116.95 167.73 117.567 168.964 118.22C177.836 122.792 186.165 129.197 193.966 136.364C194.638 136.945 195.273 137.561 195.926 138.178C202.113 143.984 207.973 150.208 213.562 156.322C213.979 156.776 214.396 157.248 214.814 157.701C214.941 157.846 215.086 157.991 215.213 158.137C220.656 164.124 226.462 170.184 232.631 175.809C232.794 175.972 232.976 176.117 233.157 176.28C233.828 176.897 234.5 177.496 235.189 178.095C237.62 180.254 240.124 182.322 242.664 184.282C248.684 189.023 255.243 193.037 262.205 196.239C263.675 196.91 265.163 197.509 266.669 198.053C274.965 201.221 283.917 202.281 292.723 201.138C296.768 200.578 300.733 199.542 304.535 198.053C305.986 197.509 307.402 196.892 308.799 196.239C317.998 191.884 326.307 185.298 334.182 178.095C334.835 177.496 335.488 176.897 336.141 176.28C340.623 172.071 344.977 167.698 349.278 163.471C351.092 161.693 352.943 159.897 354.848 158.137C355.501 157.538 356.172 156.939 356.844 156.322C359.13 154.272 361.488 152.258 363.92 150.353C369.863 145.489 376.398 141.399 383.37 138.178C383.969 137.906 384.585 137.652 385.184 137.416C386.11 137.035 387.035 136.691 387.96 136.364C391.956 134.932 396.122 134.029 400.352 133.679Z" fill="black"/>
</g>
<path d="M138.174 121.849C141.18 121.849 143.617 119.412 143.617 116.406C143.617 113.4 141.18 110.963 138.174 110.963C135.167 110.963 132.73 113.4 132.73 116.406C132.73 119.412 135.167 121.849 138.174 121.849Z" fill="white"/>
<path d="M221.636 181.724C224.642 181.724 227.079 179.287 227.079 176.281C227.079 173.275 224.642 170.838 221.636 170.838C218.629 170.838 216.192 173.275 216.192 176.281C216.192 179.287 218.629 181.724 221.636 181.724Z" fill="white"/>
<path d="M334.128 141.806C337.134 141.806 339.571 139.369 339.571 136.363C339.571 133.357 337.134 130.92 334.128 130.92C331.122 130.92 328.685 133.357 328.685 136.363C328.685 139.369 331.122 141.806 334.128 141.806Z" fill="white"/>
<path d="M581.718 182.807H453.37C452.762 182.806 452.159 182.925 451.596 183.157C451.033 183.39 450.522 183.731 450.091 184.161C449.66 184.591 449.319 185.102 449.086 185.664C448.852 186.226 448.732 186.829 448.732 187.438C448.732 188.046 448.852 188.649 449.086 189.212C449.319 189.774 449.66 190.285 450.091 190.715C450.522 191.145 451.033 191.486 451.596 191.718C452.159 191.951 452.762 192.07 453.37 192.069H581.718C582.946 192.069 584.124 191.581 584.993 190.712C585.861 189.844 586.349 188.666 586.349 187.438C586.349 186.21 585.861 185.032 584.993 184.163C584.124 183.295 582.946 182.807 581.718 182.807Z" fill="#E6E6E6"/>
<path d="M581.718 252.934H453.37C452.142 252.934 450.964 253.422 450.096 254.29C449.227 255.159 448.739 256.336 448.739 257.565C448.739 258.793 449.227 259.971 450.096 260.839C450.964 261.708 452.142 262.196 453.37 262.196H581.718C582.946 262.196 584.124 261.708 584.993 260.839C585.861 259.971 586.349 258.793 586.349 257.565C586.349 256.336 585.861 255.159 584.993 254.29C584.124 253.422 582.946 252.934 581.718 252.934Z" fill="#E6E6E6"/>
<path d="M581.718 323.062H453.37C452.142 323.062 450.964 323.55 450.096 324.419C449.227 325.287 448.739 326.465 448.739 327.694C448.739 328.922 449.227 330.1 450.096 330.968C450.964 331.837 452.142 332.325 453.37 332.325H581.718C582.946 332.325 584.124 331.837 584.993 330.968C585.861 330.1 586.349 328.922 586.349 327.694C586.349 326.465 585.861 325.287 584.993 324.419C584.124 323.55 582.946 323.062 581.718 323.062Z" fill="#E6E6E6"/>
<path d="M659.488 199.349C665.875 199.349 671.053 194.171 671.053 187.784C671.053 181.397 665.875 176.219 659.488 176.219C653.101 176.219 647.923 181.397 647.923 187.784C647.923 194.171 653.101 199.349 659.488 199.349Z" fill="#F2F2F2"/>
<path d="M657.91 193.802C657.711 193.802 657.514 193.756 657.335 193.666C657.156 193.577 657.001 193.447 656.881 193.288L653.726 189.081C653.624 188.945 653.55 188.792 653.508 188.628C653.466 188.464 653.457 188.294 653.481 188.126C653.504 187.959 653.561 187.798 653.647 187.652C653.733 187.507 653.847 187.38 653.982 187.278C654.118 187.177 654.272 187.103 654.435 187.061C654.599 187.019 654.77 187.01 654.937 187.034C655.104 187.058 655.265 187.115 655.411 187.201C655.556 187.287 655.683 187.402 655.784 187.537L657.849 190.289L663.15 182.337C663.34 182.053 663.634 181.856 663.968 181.789C664.303 181.722 664.65 181.79 664.934 181.98C665.218 182.169 665.415 182.463 665.482 182.798C665.549 183.132 665.48 183.48 665.291 183.764L658.981 193.229C658.867 193.401 658.713 193.542 658.533 193.642C658.353 193.741 658.152 193.796 657.946 193.802L657.91 193.802Z" fill="white"/>
<path d="M659.488 269.476C665.875 269.476 671.053 264.298 671.053 257.911C671.053 251.524 665.875 246.346 659.488 246.346C653.101 246.346 647.923 251.524 647.923 257.911C647.923 264.298 653.101 269.476 659.488 269.476Z" fill="#F2F2F2"/>
<path d="M657.91 263.931C657.711 263.931 657.514 263.885 657.335 263.795C657.156 263.706 657.001 263.576 656.881 263.417L653.726 259.21C653.624 259.074 653.55 258.921 653.508 258.757C653.466 258.593 653.457 258.423 653.481 258.255C653.504 258.088 653.561 257.927 653.647 257.781C653.733 257.636 653.847 257.509 653.982 257.407C654.118 257.306 654.272 257.232 654.435 257.19C654.599 257.148 654.77 257.139 654.937 257.163C655.104 257.187 655.265 257.244 655.411 257.33C655.556 257.416 655.683 257.53 655.784 257.666L657.849 260.418L663.15 252.465C663.244 252.325 663.365 252.204 663.505 252.11C663.645 252.016 663.803 251.951 663.968 251.918C664.134 251.884 664.305 251.884 664.47 251.917C664.636 251.95 664.794 252.015 664.934 252.109C665.075 252.202 665.196 252.323 665.29 252.463C665.384 252.604 665.449 252.761 665.482 252.927C665.515 253.092 665.516 253.263 665.483 253.429C665.45 253.594 665.385 253.752 665.291 253.893L658.981 263.358C658.867 263.529 658.713 263.671 658.533 263.77C658.353 263.87 658.152 263.925 657.946 263.931L657.91 263.931Z" fill="white"/>
<path d="M659.488 339.605C665.875 339.605 671.053 334.427 671.053 328.04C671.053 321.653 665.875 316.475 659.488 316.475C653.101 316.475 647.923 321.653 647.923 328.04C647.923 334.427 653.101 339.605 659.488 339.605Z" fill="#F2F2F2"/>
<path d="M581.718 112.678H453.37C452.142 112.678 450.964 113.166 450.096 114.034C449.227 114.903 448.739 116.081 448.739 117.309C448.739 118.537 449.227 119.715 450.096 120.584C450.964 121.452 452.142 121.94 453.37 121.94H581.718C582.946 121.94 584.124 121.452 584.993 120.584C585.861 119.715 586.349 118.537 586.349 117.309C586.349 116.081 585.861 114.903 584.993 114.034C584.124 113.166 582.946 112.678 581.718 112.678Z" fill="#E6E6E6"/>
<path d="M659.488 129.22C665.875 129.22 671.053 124.042 671.053 117.655C671.053 111.268 665.875 106.09 659.488 106.09C653.101 106.09 647.923 111.268 647.923 117.655C647.923 124.042 653.101 129.22 659.488 129.22Z" fill="#FDFAF6"/>
<path d="M657.91 123.675C657.711 123.675 657.514 123.629 657.335 123.539C657.156 123.45 657.001 123.32 656.881 123.161L653.726 118.954C653.624 118.818 653.55 118.665 653.508 118.501C653.466 118.337 653.457 118.167 653.481 117.999C653.504 117.832 653.561 117.671 653.647 117.525C653.733 117.38 653.847 117.253 653.982 117.151C654.118 117.05 654.272 116.976 654.435 116.934C654.599 116.892 654.77 116.883 654.937 116.907C655.104 116.931 655.265 116.988 655.411 117.074C655.556 117.16 655.683 117.275 655.784 117.41L657.849 120.162L663.15 112.21C663.244 112.069 663.365 111.948 663.505 111.854C663.645 111.76 663.803 111.695 663.968 111.662C664.134 111.629 664.305 111.628 664.47 111.661C664.636 111.694 664.794 111.759 664.934 111.853C665.075 111.946 665.196 112.067 665.29 112.207C665.384 112.348 665.449 112.505 665.482 112.671C665.515 112.837 665.516 113.007 665.483 113.173C665.45 113.339 665.385 113.496 665.291 113.637L658.981 123.102C658.867 123.274 658.713 123.415 658.533 123.515C658.353 123.614 658.152 123.669 657.946 123.675L657.91 123.675Z" fill="white"/>
<path d="M621.116 129.22C627.503 129.22 632.681 124.042 632.681 117.655C632.681 111.268 627.503 106.09 621.116 106.09C614.729 106.09 609.551 111.268 609.551 117.655C609.551 124.042 614.729 129.22 621.116 129.22Z" fill="#F2F2F2"/>
<path d="M621.116 199.349C627.503 199.349 632.681 194.171 632.681 187.784C632.681 181.397 627.503 176.219 621.116 176.219C614.729 176.219 609.551 181.397 609.551 187.784C609.551 194.171 614.729 199.349 621.116 199.349Z" fill="#F2F2F2"/>
<path d="M621.116 269.476C627.503 269.476 632.681 264.298 632.681 257.911C632.681 251.524 627.503 246.346 621.116 246.346C614.729 246.346 609.551 251.524 609.551 257.911C609.551 264.298 614.729 269.476 621.116 269.476Z" fill="#F2F2F2"/>
<path d="M621.116 339.605C627.503 339.605 632.681 334.427 632.681 328.04C632.681 321.653 627.503 316.475 621.116 316.475C614.729 316.475 609.551 321.653 609.551 328.04C609.551 334.427 614.729 339.605 621.116 339.605Z" fill="#F2F2F2"/>
<path d="M657.91 334.058C657.711 334.058 657.514 334.012 657.335 333.922C657.156 333.833 657.001 333.703 656.881 333.543L653.726 329.336C653.625 329.201 653.551 329.048 653.509 328.884C653.467 328.72 653.458 328.55 653.482 328.383C653.506 328.215 653.562 328.055 653.648 327.909C653.734 327.764 653.848 327.637 653.983 327.535C654.119 327.434 654.272 327.36 654.436 327.318C654.6 327.276 654.77 327.267 654.937 327.291C655.104 327.315 655.265 327.372 655.411 327.458C655.556 327.544 655.683 327.658 655.784 327.793L657.849 330.545L663.15 322.592C663.34 322.309 663.634 322.111 663.968 322.045C664.303 321.978 664.651 322.046 664.934 322.236C665.218 322.425 665.415 322.719 665.482 323.054C665.549 323.388 665.481 323.736 665.291 324.02L658.981 333.485C658.867 333.656 658.713 333.798 658.533 333.897C658.353 333.997 658.152 334.052 657.946 334.058L657.91 334.058Z" fill="white"/>
<path d="M641.235 553.958C641.238 554.024 641.227 554.09 641.201 554.151C641.175 554.212 641.135 554.265 641.085 554.308C641.006 554.367 640.913 554.405 640.815 554.418C640.715 554.439 640.612 554.42 640.526 554.366C640.44 554.312 640.379 554.227 640.355 554.128C638.975 549.488 635.595 545.928 632.395 542.438C629.515 539.308 626.685 536.008 625.235 531.938C624.607 530.321 624.328 528.59 624.418 526.857C624.507 525.125 624.963 523.432 625.755 521.888C626.253 520.965 626.832 520.089 627.485 519.268C628.915 517.448 630.615 515.828 632.145 514.108C632.305 513.928 632.465 513.738 632.615 513.558C632.825 513.328 633.015 513.088 633.195 512.848C635.102 510.489 636.428 507.714 637.065 504.748C637.748 501.131 637.852 497.428 637.375 493.778C637.175 491.838 636.898 489.912 636.545 487.998C636.525 487.908 636.515 487.828 636.495 487.748C634.951 479.542 632.144 471.624 628.175 464.278C628.025 464.008 627.885 463.738 627.735 463.478C627.095 462.318 626.435 461.178 625.735 460.058C625.975 459.888 626.235 459.728 626.495 459.578C628.788 463.291 630.784 467.18 632.465 471.208C634.637 476.376 636.269 481.754 637.335 487.258C637.405 487.558 637.455 487.868 637.505 488.168C637.925 490.478 638.235 492.818 638.425 495.148C638.8 498.804 638.55 502.497 637.685 506.068C636.9 508.902 635.512 511.532 633.615 513.778C633.275 514.208 632.915 514.628 632.535 515.038C631.015 516.698 629.335 518.308 627.965 520.118C627.265 521.028 626.671 522.014 626.195 523.058C624.585 526.658 625.345 530.598 627.125 533.978C630.345 540.128 636.485 544.318 639.755 550.348C640.359 551.459 640.848 552.628 641.215 553.838C641.226 553.877 641.233 553.917 641.235 553.958Z" fill="white"/>
<path d="M637.091 488.273C639.899 487.568 642.365 485.887 644.048 483.532C645.731 481.176 646.522 478.299 646.28 475.414C646.229 474.831 645.32 474.883 645.371 475.467C645.601 478.153 644.864 480.833 643.292 483.023C641.72 485.213 639.417 486.769 636.799 487.411C636.23 487.551 636.526 488.412 637.091 488.273Z" fill="white"/>
<path d="M633.443 512.995C628.338 510.002 624.549 505.194 622.832 499.53C622.662 498.969 621.8 499.262 621.969 499.823C623.768 505.713 627.721 510.708 633.04 513.811C633.548 514.107 633.948 513.289 633.443 512.995Z" fill="white"/>
<path d="M628.285 464.227C628.245 464.247 628.215 464.257 628.175 464.277C626.374 465.098 624.326 465.195 622.455 464.547C622.537 464.253 622.641 463.965 622.765 463.687C624.389 464.244 626.164 464.169 627.735 463.477C627.825 463.447 627.905 463.407 627.995 463.367C628.109 463.327 628.234 463.335 628.343 463.387C628.451 463.44 628.535 463.533 628.575 463.647C628.608 463.762 628.596 463.886 628.543 463.993C628.489 464.1 628.397 464.184 628.285 464.227Z" fill="white"/>
<path d="M578.438 310.993C579.313 309.94 579.946 308.708 580.293 307.384C580.639 306.06 580.692 304.676 580.446 303.329C580.2 301.983 579.662 300.707 578.87 299.591C578.077 298.475 577.05 297.546 575.86 296.87L581.898 264.152L565.977 270.893L562.684 300.929C561.681 303.003 561.473 305.374 562.101 307.591C562.729 309.808 564.149 311.718 566.091 312.958C568.033 314.199 570.362 314.684 572.638 314.322C574.914 313.959 576.978 312.775 578.438 310.993Z" fill="#FFB6B6"/>
<path d="M588.155 214.157L583.095 197.147L547.415 141.477C545.431 139.159 543.059 137.203 540.405 135.697C535.132 132.682 528.984 131.567 522.988 132.535C516.991 133.504 511.508 136.499 507.452 141.021C503.396 145.542 501.012 151.317 500.698 157.383C500.383 163.45 502.158 169.44 505.725 174.357C506.46 175.384 507.272 176.353 508.155 177.257L554.365 224.917L556.995 227.637L561.155 238.157L562.795 286.127L564.265 286.477L577.215 289.527L579.025 289.957L582.055 274.287L583.955 266.797C585.571 260.409 586.388 253.845 586.385 247.257C586.385 245.227 586.315 243.187 586.155 241.157L588.155 214.157Z" fill="#3F3D56"/>
<path d="M539.105 544.946H526.715L520.821 497.156L539.107 497.157L539.105 544.946Z" fill="#FFB6B6"/>
<path d="M538.774 540.897L525.555 535.527L525.164 535.367L517.865 540.897C513.858 540.897 510.007 542.443 507.113 545.214C504.22 547.984 502.508 551.765 502.334 555.767C502.314 555.987 502.314 556.217 502.314 556.447V556.957H542.264V540.897H538.774Z" fill="#2F2E41"/>
<path d="M515.51 520.231L504.831 526.514L475.514 488.316L491.274 479.043L515.51 520.231Z" fill="#FFB6B6"/>
<path d="M522.884 526.527L521.434 524.057L516.184 515.137L513.454 516.747L513.174 516.907L499.054 518.987L498.634 519.047L495.154 527.517C493.394 528.552 491.854 529.924 490.624 531.554C489.394 533.185 488.497 535.041 487.984 537.018C487.471 538.995 487.353 541.054 487.637 543.077C487.92 545.099 488.599 547.047 489.634 548.807L489.894 549.237L524.324 528.977L522.884 526.527Z" fill="#2F2E41"/>
<path d="M554.797 252.785C560.606 270.305 559.992 289.322 553.401 309.733L551.68 379.898L546.155 424.156C549.487 432.829 551.196 442.04 551.197 451.33C551.174 475.682 549.537 510.278 541.235 526.53H521.589L517.155 454.156L511.863 417.768L511.21 378.775L510.641 344.767L489.28 376.003L468.523 406.355L489.155 441.156L507.155 497.156L488.155 513.156L466.601 472.293L456.155 460.156L427.639 398.426L430.201 389.831C435.479 372.13 443.144 355.232 452.984 339.601L481.348 273.771L554.797 252.785Z" fill="#2F2E41"/>
<path d="M557.315 246.938L554.075 240.458L554.365 224.918L555.335 172.378C555.451 165.573 554.189 158.814 551.623 152.51C549.057 146.206 545.241 140.487 540.405 135.698C537.535 132.838 534.324 130.343 530.845 128.268L523.885 124.108L520.365 115.168L487.905 115.958L487.835 124.628L487.805 127.678L476.175 146.218L476.185 146.298L476.425 180.038L476.905 247.198L480.115 257.608L475.265 269.728L477.845 277.448L479.905 277.118L549.285 266.028C552.438 265.016 555.115 262.89 556.815 260.048C557.157 259.492 557.454 258.911 557.705 258.308C558.461 256.496 558.818 254.543 558.751 252.58C558.684 250.618 558.194 248.694 557.315 246.938Z" fill="#3F3D56"/>
<path d="M501.159 117.89C517.449 117.89 530.655 104.684 530.655 88.3942C530.655 72.1042 517.449 58.8984 501.159 58.8984C484.869 58.8984 471.663 72.1042 471.663 88.3942C471.663 104.684 484.869 117.89 501.159 117.89Z" fill="#FFB6B6"/>
<path d="M519.506 112.835C522.622 110.643 525.776 106.47 527.878 103.346C530.663 99.2397 532.554 94.5939 533.428 89.7099C534.303 84.8259 534.142 79.8125 532.955 74.9948C532.571 73.0673 531.668 71.2811 530.344 69.8287C529.668 69.1197 528.784 68.643 527.82 68.467C526.855 68.2909 525.86 68.4244 524.976 68.8484C525.422 67.6031 525.608 66.2796 525.522 64.9597C525.436 63.6398 525.08 62.3515 524.477 61.1743C523.253 58.8242 521.498 56.7916 519.351 55.2377C515.244 52.1649 510.382 50.2612 505.281 49.7287C500.18 49.1962 495.029 50.0547 490.376 52.2131C488.546 53.0923 491.481 46.4575 489.561 47.1199C487.656 47.8881 485.525 47.8802 483.626 47.0977C481.8 46.2099 475.863 51.7171 476.533 49.7999C475.165 50.4438 473.983 51.4234 473.095 52.6474C472.208 53.8714 471.645 55.2999 471.459 56.8001C471.273 58.3002 471.469 59.8231 472.03 61.227C472.59 62.6308 473.497 63.8699 474.666 64.8289C476.206 66.0927 478.116 66.8062 479.798 67.8741C482.746 69.888 484.856 72.9118 485.727 76.3744C486.599 79.8371 486.172 83.499 484.528 86.6687C486.266 85.5178 488.179 84.6551 490.192 84.1139C491.202 83.8526 492.259 83.8362 493.277 84.0661C494.295 84.2961 495.243 84.7656 496.042 85.4358C496.713 86.1823 497.224 87.0579 497.544 88.009C497.864 88.9601 497.986 89.9666 497.903 90.9666C497.864 92.969 497.415 94.9473 497.39 96.9499C497.314 102.826 494.323 114.037 498.92 117.096C502.548 119.51 515.253 115.827 519.506 112.835Z" fill="#2F2E41"/>
<path d="M337.299 146.294C337.997 147.472 338.944 148.482 340.075 149.253C341.205 150.025 342.491 150.539 343.842 150.76C345.193 150.981 346.576 150.903 347.893 150.532C349.21 150.16 350.43 149.505 351.467 148.611L380.253 165.293L379.255 148.033L352.072 134.837C350.455 133.196 348.292 132.204 345.993 132.05C343.693 131.897 341.418 132.592 339.597 134.004C337.776 135.416 336.536 137.447 336.112 139.713C335.689 141.978 336.111 144.32 337.299 146.294Z" fill="#FFB6B6"/>
<path d="M523.195 141.127C522.079 137.637 520.252 134.415 517.83 131.665C515.409 128.914 512.444 126.694 509.123 125.145C505.802 123.595 502.197 122.749 498.533 122.66C494.87 122.571 491.227 123.241 487.835 124.627C487.515 124.757 487.195 124.897 486.875 125.037L423.015 154.107L398.155 151.157L365.975 139.917L365.155 141.187L357.925 152.357L356.915 153.917L391.435 174.327L395.095 175.087C398.282 175.747 401.308 177.029 403.998 178.86C406.689 180.691 408.992 183.035 410.775 185.757L424.155 190.157L476.425 180.037L505.725 174.357L507.385 174.037C512.406 172.105 516.724 168.698 519.771 164.264C522.818 159.83 524.451 154.577 524.455 149.197C524.457 146.458 524.032 143.736 523.195 141.127Z" fill="#3F3D56"/>
<path d="M671.792 558.147H323.804C323.488 558.147 323.185 558.022 322.962 557.798C322.739 557.575 322.613 557.272 322.613 556.956C322.613 556.641 322.739 556.338 322.962 556.114C323.185 555.891 323.488 555.766 323.804 555.766H671.792C672.108 555.766 672.411 555.891 672.634 556.114C672.857 556.338 672.983 556.641 672.983 556.956C672.983 557.272 672.857 557.575 672.634 557.798C672.411 558.022 672.108 558.147 671.792 558.147Z" fill="#CCCCCC"/>
<path d="M297.251 279.936H85.9036C84.6765 279.937 83.5004 280.426 82.6333 281.294C81.7663 282.163 81.2793 283.34 81.2793 284.567C81.2793 285.794 81.7663 286.971 82.6333 287.839C83.5004 288.707 84.6765 289.196 85.9036 289.198H297.251C297.86 289.199 298.463 289.08 299.026 288.847C299.588 288.615 300.1 288.274 300.53 287.844C300.961 287.414 301.303 286.903 301.536 286.34C301.769 285.778 301.889 285.175 301.889 284.567C301.889 283.958 301.769 283.355 301.536 282.793C301.303 282.231 300.961 281.72 300.53 281.29C300.1 280.859 299.588 280.518 299.026 280.286C298.463 280.054 297.86 279.935 297.251 279.936Z" fill="#E6E6E6"/>
<path d="M375.02 296.478C381.408 296.478 386.586 291.3 386.586 284.913C386.586 278.526 381.408 273.348 375.02 273.348C368.633 273.348 363.455 278.526 363.455 284.913C363.455 291.3 368.633 296.478 375.02 296.478Z" fill="#FDFAF6"/>
<path d="M373.442 290.933C373.243 290.933 373.046 290.887 372.867 290.797C372.689 290.708 372.533 290.578 372.413 290.418L369.258 286.211C369.157 286.076 369.083 285.922 369.041 285.759C368.999 285.595 368.99 285.425 369.014 285.258C369.038 285.09 369.094 284.93 369.18 284.784C369.267 284.639 369.38 284.512 369.516 284.41C369.651 284.309 369.805 284.235 369.968 284.193C370.132 284.151 370.302 284.142 370.469 284.166C370.637 284.19 370.798 284.247 370.943 284.333C371.088 284.419 371.215 284.533 371.317 284.668L373.381 287.42L378.683 279.467C378.776 279.327 378.897 279.206 379.037 279.112C379.178 279.018 379.335 278.953 379.501 278.92C379.666 278.886 379.837 278.886 380.003 278.919C380.168 278.952 380.326 279.017 380.467 279.111C380.607 279.204 380.728 279.325 380.822 279.465C380.916 279.606 380.981 279.763 381.015 279.929C381.048 280.094 381.048 280.265 381.015 280.431C380.982 280.596 380.917 280.754 380.823 280.895L374.513 290.36C374.399 290.531 374.245 290.673 374.065 290.772C373.885 290.872 373.684 290.927 373.478 290.933L373.442 290.933Z" fill="white"/>
<path d="M336.648 296.478C343.036 296.478 348.214 291.3 348.214 284.913C348.214 278.526 343.036 273.348 336.648 273.348C330.261 273.348 325.083 278.526 325.083 284.913C325.083 291.3 330.261 296.478 336.648 296.478Z" fill="#F2F2F2"/>
<path d="M296.251 335.936H84.9036C83.6765 335.937 82.5004 336.426 81.6333 337.294C80.7663 338.163 80.2793 339.34 80.2793 340.567C80.2793 341.794 80.7663 342.971 81.6333 343.839C82.5004 344.707 83.6765 345.196 84.9036 345.198H296.251C297.48 345.198 298.657 344.71 299.526 343.841C300.394 342.973 300.882 341.795 300.882 340.567C300.882 339.338 300.394 338.16 299.526 337.292C298.657 336.423 297.479 335.936 296.251 335.936Z" fill="#E6E6E6"/>
<path d="M374.02 352.478C380.408 352.478 385.586 347.3 385.586 340.913C385.586 334.526 380.408 329.348 374.02 329.348C367.633 329.348 362.455 334.526 362.455 340.913C362.455 347.3 367.633 352.478 374.02 352.478Z" fill="#F2F2F2"/>
<path d="M372.443 346.933C372.243 346.933 372.046 346.887 371.867 346.797C371.689 346.708 371.533 346.578 371.413 346.418L368.258 342.211C368.054 341.938 367.966 341.595 368.014 341.258C368.062 340.92 368.243 340.615 368.516 340.41C368.789 340.206 369.132 340.118 369.469 340.166C369.807 340.214 370.112 340.395 370.317 340.668L372.381 343.42L377.683 335.467C377.776 335.327 377.897 335.206 378.037 335.112C378.178 335.018 378.335 334.953 378.501 334.92C378.666 334.886 378.837 334.886 379.003 334.919C379.168 334.952 379.326 335.017 379.467 335.111C379.607 335.204 379.728 335.325 379.822 335.465C379.916 335.606 379.981 335.763 380.015 335.929C380.048 336.094 380.048 336.265 380.015 336.431C379.982 336.596 379.917 336.754 379.823 336.895L373.513 346.36C373.399 346.531 373.245 346.673 373.065 346.772C372.885 346.872 372.684 346.927 372.478 346.933L372.443 346.933Z" fill="white"/>
<path d="M335.648 352.478C342.036 352.478 347.214 347.3 347.214 340.913C347.214 334.526 342.036 329.348 335.648 329.348C329.261 329.348 324.083 334.526 324.083 340.913C324.083 347.3 329.261 352.478 335.648 352.478Z" fill="#F2F2F2"/>
</g>
<defs>
<clipPath id="clip0_191_316">
<rect width="751.155" height="558.147" fill="white"/>
</clipPath>
</defs>
</svg>
