<svg width="801" height="644" viewBox="0 0 801 644" fill="none" xmlns="http://www.w3.org/2000/svg">
<g clip-path="url(#clip0_191_228)">
<path d="M606.554 345.857L622.581 342.95L626.585 355.275L610.469 360.511L606.554 345.857Z" fill="#ED9DA0"/>
<path d="M495.55 642.351C495.55 642.351 482.837 611.058 520.976 587.588L495.55 642.351Z" fill="#E6E6E6"/>
<path d="M509.104 641.782C509.104 641.782 505.226 619.482 475.21 619.669L509.104 641.782Z" fill="#E6E6E6"/>
<path d="M766.657 642.351C766.657 642.351 749.857 601.008 800.248 570.002L766.657 642.351Z" fill="#E6E6E6"/>
<path d="M746.002 641.6C746.002 641.6 740.879 612.133 701.223 612.386L746.002 641.6Z" fill="#E6E6E6"/>
<path d="M489.189 183.518L462.879 169.543L464.848 168.496L491.158 182.473L489.189 183.518Z" fill="#FDFAF6"/>
<path d="M466.238 183.518L464.271 182.473L490.579 168.496L492.548 169.543L466.238 183.518Z" fill="#FDFAF6"/>
<path d="M343.79 110.715L342.989 112.277L347.675 114.678L348.475 113.117L343.79 110.715Z" fill="#CBCBCB"/>
<path d="M440.937 162.472L431.611 157.693L432.411 156.131L441.737 160.91L440.937 162.472ZM422.284 152.914L412.957 148.134L413.757 146.572L423.084 151.352L422.284 152.914ZM403.631 143.355L394.305 138.576L395.105 137.014L404.431 141.793L403.631 143.355ZM384.978 133.797L375.651 129.018L376.451 127.456L385.778 132.235L384.978 133.797ZM366.325 124.239L356.999 119.46L357.799 117.898L367.125 122.677L366.325 124.239Z" fill="#CBCBCB"/>
<path d="M451.067 165.688L450.267 167.25L454.952 169.651L455.753 168.089L451.067 165.688Z" fill="#CBCBCB"/>
<path d="M97.2659 228.209C97.2659 228.757 97.2482 229.301 97.2129 229.84C97.0136 232.949 96.2282 235.992 94.8979 238.809C94.8879 238.833 94.8759 238.855 94.8649 238.878C94.8029 239.009 94.7389 239.139 94.6739 239.268C94.2782 240.065 93.8392 240.839 93.3589 241.588C91.1655 245.026 88.1592 247.87 84.6056 249.87C81.052 251.87 77.0605 252.963 72.9839 253.054L73.2299 267.187L76.4299 265.499L77.0019 266.587L73.2489 268.563L73.7079 294.811L73.7129 295.162L71.2349 295.714L71.2399 295.362L72.0199 253.056C68.7386 253.009 65.4993 252.311 62.4902 251.001C59.4811 249.692 56.762 247.798 54.4909 245.429C54.3349 245.268 54.1799 245.101 54.0289 244.936L54.0119 244.917C52.1199 242.855 50.5894 240.489 49.4849 237.917C49.5089 237.944 49.5349 237.97 49.5589 237.998C47.0638 232.164 46.8945 225.596 49.0856 219.641C51.2767 213.686 55.6624 208.794 61.3439 205.968L61.6039 205.841C67.2239 203.134 73.6558 202.638 79.6247 204.45C85.5937 206.262 90.6641 210.25 93.8309 215.624C93.9819 215.878 94.1309 216.138 94.2689 216.399C96.236 220.026 97.2639 224.088 97.2589 228.214L97.2659 228.209Z" fill="#E5E5E5"/>
<path d="M93.9216 238.89C111.911 238.89 126.494 224.307 126.494 206.318C126.494 188.329 111.911 173.746 93.9216 173.746C75.9326 173.746 61.3496 188.329 61.3496 206.318C61.3496 224.307 75.9326 238.89 93.9216 238.89Z" fill="#FDFAF6"/>
<path opacity="0.2" d="M69.872 184.562C66.8338 191.67 66.4217 199.625 68.7093 207.008C70.9969 214.391 75.8351 220.72 82.3594 224.864C88.8838 229.008 96.6691 230.697 104.324 229.63C111.979 228.562 119.005 224.808 124.147 219.036C122.291 223.378 119.513 227.265 116.006 230.427C112.498 233.588 108.346 235.95 103.835 237.348C99.3248 238.745 94.5644 239.145 89.8839 238.521C85.2034 237.896 80.7147 236.261 76.7287 233.729C72.7428 231.197 69.3549 227.829 66.7999 223.858C64.2448 219.887 62.5836 215.408 61.9314 210.731C61.2791 206.054 61.6515 201.292 63.0226 196.773C64.3937 192.255 66.7308 188.088 69.872 184.562Z" fill="black"/>
<path d="M95.6844 297.057L92.3574 296.124L92.3644 295.766L93.3644 241.585L93.4144 238.885V238.806L93.5884 229.34L93.8404 215.62L94.0114 206.32H94.1034L94.2784 216.396L94.5064 229.51L94.6694 238.81V238.879L94.6764 239.263L94.9924 257.401L95.0254 259.201L95.6784 296.691L95.6844 297.057Z" fill="#3F3D56"/>
<path d="M99.192 255.195L93.8076 258.029L94.5581 259.455L99.9425 256.62L99.192 255.195Z" fill="#3F3D56"/>
<path d="M516.157 100.902C475.045 98.4724 433.808 99.1075 392.791 102.802C373.021 104.589 352.937 106.519 333.532 110.832C317.902 114.306 299.762 120.176 290.024 133.85C287.984 136.605 286.61 139.795 286.008 143.169C285.406 146.544 285.593 150.012 286.555 153.303C288.877 161.103 294.655 167.587 300.805 172.669C314.963 184.369 332.53 191.169 348.222 200.469C376.873 217.436 403.094 240.304 419.922 269.355C427.328 282.138 434.373 299.136 426.122 313.222C418.043 327.022 400.008 331.776 385.3 334.022C366.865 336.832 347.876 336.07 329.364 334.496C309.069 332.603 288.887 329.647 268.902 325.64C229.749 318.122 190.953 308.559 151.257 304.21C131.353 301.868 111.281 301.288 91.2746 302.475C73.2066 303.694 54.9836 306.552 38.0106 313.067C24.9306 318.087 10.9887 325.683 3.92366 338.35C-2.88634 350.561 -0.23035 364.642 7.18565 375.908C16.1087 389.463 30.0217 398.752 44.4857 405.541C60.9557 413.271 78.5726 418.282 96.2106 422.541C105.157 424.702 114.151 426.656 123.146 428.6C125.022 429.005 125.824 426.123 123.946 425.716C105.806 421.796 87.6136 417.864 69.9246 412.19C53.5556 406.939 36.8036 400.213 23.3986 389.19C12.5536 380.27 2.24266 367.242 2.88266 352.429C3.52766 337.496 16.0567 327.07 28.3367 320.652C43.6837 312.632 61.1197 308.725 78.2047 306.683C97.7677 304.503 117.497 304.235 137.112 305.883C176.712 308.896 215.433 317.918 254.263 325.783C291.985 333.427 330.884 340.506 369.542 338.545C384.864 337.768 401.282 335.572 414.811 327.838C421.005 324.297 426.591 319.303 429.739 312.804C432.575 306.621 433.472 299.724 432.312 293.021C430.118 278.297 421.373 264.644 412.647 252.921C403.083 240.196 391.989 228.697 379.614 218.685C366.032 207.754 351.388 198.215 335.901 190.209C327.688 185.885 319.359 181.727 311.533 176.719C304.033 171.919 296.626 166.139 292.044 158.344C288.08 151.602 287.353 143.907 291.482 137.069C295.658 130.153 302.852 125.329 309.946 121.804C327.039 113.311 346.911 111.038 365.611 108.704C405.765 103.719 446.232 101.701 486.683 102.667C496.515 102.898 506.34 103.305 516.16 103.888C518.083 104.001 518.076 101.01 516.16 100.897L516.157 100.902Z" fill="black"/>
<path d="M490.077 5.03647L496.287 0.0694777C491.463 -0.462522 489.48 2.16948 488.669 4.25048C484.9 2.68548 480.797 4.73647 480.797 4.73647L493.222 9.24747C492.595 7.57332 491.504 6.11255 490.077 5.03647Z" fill="#3F3D56"/>
<path d="M459.938 20.7611L466.148 15.7941C461.324 15.2621 459.341 17.8941 458.53 19.9751C454.761 18.4101 450.658 20.4611 450.658 20.4611L463.083 24.9721C462.457 23.2979 461.366 21.8372 459.938 20.7611Z" fill="#3F3D56"/>
<path d="M490.077 45.6576L496.287 40.6906C491.463 40.1586 489.48 42.7906 488.669 44.8716C484.9 43.3066 480.797 45.3576 480.797 45.3576L493.223 49.8736C492.596 48.1994 491.505 46.7386 490.078 45.6626L490.077 45.6576Z" fill="#3F3D56"/>
<path d="M396.979 53.0157C407.312 53.0157 415.689 44.639 415.689 34.3057C415.689 23.9725 407.312 15.5957 396.979 15.5957C386.645 15.5957 378.269 23.9725 378.269 34.3057C378.269 44.639 386.645 53.0157 396.979 53.0157Z" fill="#FF6583"/>
<path d="M455.649 91.9606H363.863C363.749 91.9621 363.634 91.953 363.521 91.9336L406.932 16.7446C407.197 16.2761 407.582 15.8864 408.047 15.6152C408.511 15.3441 409.04 15.2012 409.578 15.2012C410.116 15.2012 410.645 15.3441 411.109 15.6152C411.574 15.8864 411.959 16.2761 412.223 16.7446L441.357 67.2006L442.756 69.6146L455.649 91.9606Z" fill="#FDFAF6"/>
<path d="M506.752 91.9624H427.366L442.749 69.6174L443.856 68.0074L463.901 38.8844C464.256 38.4389 464.7 38.0729 465.205 37.8104C465.71 37.5479 466.265 37.3947 466.833 37.3607C467.402 37.3268 467.971 37.4129 468.504 37.6133C469.037 37.8138 469.521 38.1243 469.926 38.5244C470.03 38.6382 470.127 38.7584 470.215 38.8844L506.752 91.9624Z" fill="#FDFAF6"/>
<path d="M375.801 264.41C384.501 268.758 389.801 274.501 389.801 280.801C389.801 294.371 365.246 305.371 334.957 305.371C321.788 305.371 309.707 303.29 300.257 299.824C310.299 304.843 324.875 308.003 341.104 308.003C371.393 308.003 395.948 297.003 395.948 283.433C395.94 275.763 388.091 268.916 375.801 264.41Z" fill="#F1F1F1"/>
<path d="M395.152 273.73C404.969 278.637 410.946 285.117 410.946 292.225C410.946 307.537 383.239 319.949 349.061 319.949C334.201 319.949 320.569 317.601 309.901 313.69C321.232 319.353 337.679 322.919 355.992 322.919C390.17 322.919 417.877 310.506 417.877 295.195C417.876 286.545 409.02 278.814 395.152 273.73Z" fill="#F1F1F1"/>
<path d="M368.395 268.514C374.524 271.578 378.256 275.624 378.256 280.062C378.256 289.622 360.956 297.372 339.617 297.372C331.303 297.479 323.033 296.157 315.167 293.464C322.241 297 332.511 299.226 343.945 299.226C365.284 299.226 382.584 291.476 382.584 281.916C382.584 276.513 377.054 271.689 368.395 268.514Z" fill="#F1F1F1"/>
<path d="M282.273 266.76C282.273 266.76 283.62 286.447 322.23 286.447C360.84 286.447 372.367 266.76 372.367 266.76H282.273Z" fill="#3F3D56"/>
<path d="M337.076 215.105C331.502 210.871 324.506 208.957 317.553 209.765C323.764 211.266 329.248 214.906 333.044 220.046C336.84 225.186 338.705 231.499 338.312 237.876C337.919 244.254 335.293 250.29 330.895 254.925C326.497 259.561 320.608 262.5 314.26 263.227C320.335 264.697 326.732 264.03 332.373 261.337C338.014 258.644 342.555 254.091 345.233 248.443C347.911 242.795 348.562 236.397 347.076 230.325C345.591 224.253 342.059 218.879 337.076 215.105Z" fill="#3F3D56"/>
<path d="M324.423 206.213H321.791V268.875H324.423V206.213Z" fill="#3F3D56"/>
<path d="M497.43 159.655L497.416 159.631L497.38 158.1L505.627 146.126L497.39 156.954L497.361 157.278L497.079 145.039L504.202 132.625L497.059 142.889L497.134 117.533V117.449V117.532L496.661 137.516L490.169 129.399L496.64 139.238L496.498 150.185L490.524 139.501L496.476 151.795L496.397 157.882L496.179 174.747L496.163 176.007C496.713 176.011 497.258 176.002 497.797 175.98L497.423 159.78L497.43 159.655Z" fill="#CBCBCB"/>
<path d="M457.943 164.917L457.929 164.893L457.893 163.362L466.14 151.388L457.907 162.217L457.877 162.541L457.595 150.302L464.718 137.888L457.575 148.152L457.649 122.796V122.717V122.8L457.176 142.784L450.684 134.667L457.155 144.506L457.013 155.453L451.039 144.769L456.991 157.063L456.912 163.15L456.694 180.015L456.678 181.275C457.228 181.279 457.772 181.27 458.312 181.248L457.938 165.048L457.943 164.917Z" fill="#CBCBCB"/>
<path d="M477.245 148.247L477.231 148.223L477.195 146.692L485.442 134.718L477.205 145.546L477.175 145.87L476.893 133.631L484.016 121.217L476.873 131.481L476.948 106.125L476.475 126.108L469.983 117.991L476.454 127.83L476.312 138.777L470.338 128.093L476.29 140.387L476.211 146.474L475.993 163.339L475.977 164.599C476.527 164.603 477.072 164.594 477.611 164.572L477.237 148.372L477.245 148.247Z" fill="#CBCBCB"/>
<path d="M151.118 439.628C156.933 439.628 161.648 434.914 161.648 429.098C161.648 423.283 156.933 418.568 151.118 418.568C145.302 418.568 140.588 423.283 140.588 429.098C140.588 434.914 145.302 439.628 151.118 439.628Z" fill="#FDFAF6"/>
<path d="M683.983 623.471L674.234 627.093L655.624 591.215L670.013 585.871L683.983 623.471Z" fill="#ED9DA0"/>
<path d="M689.979 631.999L658.545 643.677L658.397 643.277C657.192 640.032 657.324 636.442 658.766 633.295C660.208 630.148 662.841 627.702 666.085 626.496L685.285 619.363L689.979 631.999Z" fill="#2F2E41"/>
<path d="M588.045 633.595H577.645L572.697 593.482H588.046L588.045 633.595Z" fill="#ED9DA0"/>
<path d="M589.849 643.677H556.316V643.253C556.316 639.792 557.691 636.472 560.139 634.024C562.586 631.577 565.906 630.201 569.367 630.201H589.849V643.677Z" fill="#2F2E41"/>
<path d="M635.662 355.394L632.262 348.611L603.421 363.032L604.269 368.97L598.755 376.18C598.755 376.18 589.424 381.27 591.121 398.235L592.821 414.352L594.942 435.135L580.097 486.455L572.462 554.311L566.948 609.025L593.669 607.753L618.269 518.684L661.531 614.539L691.219 606.911L650.502 511.901L645.412 472.032C645.412 472.032 648.805 450.825 632.688 436.405L635.233 428.771V419.363L643.716 374.481L635.662 355.394Z" fill="#2F2E41"/>
<path opacity="0.2" d="M636.451 452.386L617.789 518.551L618.749 518.821L637.41 452.657L636.451 452.386Z" fill="black"/>
<path d="M634.808 435.133H593.243V439.374H634.808V435.133Z" fill="#3F3D56"/>
<path d="M593.246 441.918C594.183 441.918 594.943 440.019 594.943 437.677C594.943 435.334 594.183 433.436 593.246 433.436C592.309 433.436 591.549 435.334 591.549 437.677C591.549 440.019 592.309 441.918 593.246 441.918Z" fill="#3F3D56"/>
<path d="M622.83 344.423C633.787 338.433 637.814 324.694 631.825 313.737C625.835 302.78 612.096 298.753 601.139 304.742C590.182 310.732 586.155 324.471 592.144 335.428C598.134 346.385 611.873 350.413 622.83 344.423Z" fill="#ED9DA0"/>
<path d="M646.59 316.512C657.637 316.512 666.593 307.556 666.593 296.509C666.593 285.462 657.637 276.506 646.59 276.506C635.543 276.506 626.587 285.462 626.587 296.509C626.587 307.556 635.543 316.512 646.59 316.512Z" fill="#2F2E41"/>
<path d="M671.973 294.367C672.754 297.015 672.978 299.796 672.632 302.534C672.285 305.273 671.375 307.91 669.96 310.28C668.544 312.65 666.653 314.701 664.406 316.305C662.159 317.908 659.604 319.029 656.903 319.596C654.201 320.164 651.412 320.166 648.709 319.603C646.007 319.04 643.45 317.923 641.2 316.324C638.951 314.724 637.056 312.676 635.637 310.309C634.217 307.941 633.303 305.305 632.952 302.567C634.375 307.391 637.562 311.502 641.879 314.08C646.197 316.659 651.327 317.517 656.249 316.483C661.17 315.449 665.521 312.598 668.435 308.5C671.35 304.401 672.613 299.355 671.973 294.367Z" fill="#2F2E41"/>
<path d="M592.948 318.307C592.361 323.477 593.496 328.697 596.177 333.157C598.857 337.617 602.934 341.069 607.775 342.977C612.616 344.885 617.952 345.143 622.955 343.711C627.957 342.28 632.348 339.238 635.447 335.057C638.546 330.877 640.179 325.791 640.094 320.588C640.009 315.385 638.211 310.355 634.977 306.278C631.744 302.201 627.256 299.304 622.209 298.037C617.162 296.769 611.838 297.201 607.061 299.267C603.111 296.081 598.213 297.067 594.231 300.431C589.731 304.231 588.392 306.844 584.9 313.096C588.334 313.578 589.514 317.825 592.948 318.307Z" fill="#2F2E41"/>
<path d="M676.062 386.301C675.809 393.001 675.307 406.192 675.307 406.865C675.307 407.574 665.307 428.278 660.988 437.189C660.681 437.817 660.405 438.389 660.161 438.889C659.827 439.581 659.301 440.162 658.647 440.564C657.993 440.966 657.237 441.172 656.469 441.157L637.591 440.818C636.555 440.8 635.565 440.382 634.829 439.653C634.093 438.923 633.667 437.937 633.64 436.901L631.534 353.846C631.527 353.572 631.575 353.3 631.675 353.045C631.774 352.79 631.924 352.557 632.115 352.361C632.307 352.165 632.535 352.009 632.787 351.902C633.04 351.795 633.311 351.74 633.585 351.74H657.931C658.959 351.741 659.967 352.031 660.838 352.578C661.709 353.124 662.408 353.905 662.856 354.831L674.541 379.005C675.637 381.278 676.16 383.784 676.064 386.305L676.062 386.301Z" fill="#FDFAF6"/>
<path d="M633.311 431.205C628.466 428.27 624.113 424.591 620.411 420.305C611.809 410.63 606.577 398.426 605.502 385.525C604.542 374.487 606.732 366.282 612.012 361.139C618.723 354.6 627.857 355.55 628.243 355.594L628.652 355.64L634.844 360.876L633.093 362.946L627.556 358.261C625.861 358.176 618.941 358.161 613.887 363.102C609.234 367.653 607.324 375.118 608.208 385.291C609.231 397.574 614.2 409.197 622.372 418.424C625.897 422.502 630.03 426.012 634.624 428.832L633.311 431.205Z" fill="#FDFAF6"/>
<path d="M668.451 399.659L635.449 406.428L635.631 407.314L668.632 400.545L668.451 399.659Z" fill="#3F3D56"/>
<path d="M646.699 351.729L645.796 351.766L647.95 404.244L648.853 404.207L646.699 351.729Z" fill="#3F3D56"/>
<path d="M676.063 386.305C675.81 393.005 675.308 406.196 675.308 406.869C675.308 407.578 665.308 428.282 660.989 437.193L669.041 390.44C669.353 388.641 670.137 386.958 671.312 385.561C672.488 384.165 674.014 383.106 675.733 382.492C676.004 383.744 676.115 385.025 676.063 386.305Z" fill="#3F3D56"/>
<path d="M626.591 484.287C627.304 483.368 627.807 482.304 628.064 481.17C628.322 480.036 628.327 478.86 628.081 477.723C627.834 476.587 627.341 475.519 626.637 474.593C625.933 473.668 625.034 472.908 624.004 472.368L625.64 454.268L614.881 450.59L612.929 476.19C612.144 477.979 612.041 479.993 612.639 481.853C613.236 483.713 614.494 485.29 616.175 486.286C617.855 487.283 619.842 487.63 621.761 487.262C623.68 486.894 625.398 485.837 626.59 484.29L626.591 484.287Z" fill="#ED9DA0"/>
<path d="M627.998 466.771L608.934 466.08L609.74 374.145C609.726 371.543 610.53 369.003 612.039 366.883C613.547 364.764 615.684 363.172 618.147 362.333C620.448 361.568 622.934 361.566 625.237 362.327C627.849 363.21 630.092 364.937 631.613 367.237C633.134 369.537 633.846 372.277 633.637 375.027L627.998 466.771Z" fill="#CBCBCB"/>
<path d="M795.24 643.989H415.423C415.171 643.97 414.937 643.856 414.766 643.671C414.595 643.487 414.5 643.244 414.5 642.992C414.5 642.74 414.595 642.498 414.766 642.313C414.937 642.128 415.171 642.015 415.423 641.995H795.24C795.377 641.985 795.515 642.002 795.645 642.048C795.776 642.093 795.895 642.165 795.996 642.258C796.097 642.352 796.178 642.465 796.233 642.592C796.288 642.718 796.317 642.854 796.317 642.992C796.317 643.13 796.288 643.266 796.233 643.393C796.178 643.519 796.097 643.633 795.996 643.726C795.895 643.82 795.776 643.891 795.645 643.937C795.515 643.982 795.377 644 795.24 643.989Z" fill="#CBCBCB"/>
</g>
<defs>
<clipPath id="clip0_191_228">
<rect width="800.249" height="643.989" fill="white"/>
</clipPath>
</defs>
</svg>
