<svg width="945" height="909" viewBox="0 0 945 909" fill="none" xmlns="http://www.w3.org/2000/svg">
<g clip-path="url(#clip0_191_285)">
<path d="M404.623 387.668C404.623 387.668 398.443 402.781 400.381 414.447L383.392 414.122L369.787 404.395L371.324 394.695C371.324 394.695 380.589 381.017 381.448 363.642L404.623 387.668Z" fill="#FFB9B9"/>
<path d="M95.3848 849.818C99.3081 851.197 103.52 851.542 107.616 850.821C111.711 850.1 115.552 848.336 118.768 845.699C126.958 838.825 129.526 827.499 131.615 817.017L137.795 786L124.857 794.908C115.557 801.314 106.039 807.927 99.5968 817.208C93.1548 826.489 90.3448 839.155 95.5188 849.196" fill="#E6E6E6"/>
<path d="M97.3833 889.529C95.7553 877.665 94.0833 865.648 95.2243 853.657C96.2393 843.008 99.4883 832.608 106.102 824.078C109.613 819.56 113.886 815.689 118.727 812.638C119.989 811.838 121.151 813.838 119.894 814.638C111.519 819.933 105.041 827.751 101.394 836.964C97.3653 847.21 96.7193 858.38 97.4123 869.264C97.8313 875.846 98.7233 882.385 99.6183 888.917C99.6886 889.213 99.6444 889.524 99.4944 889.788C99.3445 890.052 99.1 890.25 98.8103 890.341C98.5145 890.42 98.1992 890.38 97.9328 890.229C97.6664 890.077 97.4704 889.827 97.3873 889.532L97.3833 889.529Z" fill="#F2F2F2"/>
<path d="M109.1 870.495C110.782 873.053 113.094 875.135 115.815 876.539C118.535 877.944 121.571 878.624 124.631 878.514C132.495 878.141 139.049 872.654 144.948 867.444L162.4 852.033L150.85 851.48C142.544 851.08 134.023 850.709 126.112 853.273C118.201 855.837 110.904 861.999 109.458 870.188" fill="#E6E6E6"/>
<path d="M92.7801 896.35C100.62 882.479 109.712 867.062 125.961 862.134C130.478 860.769 135.215 860.28 139.916 860.693C141.398 860.821 141.028 863.105 139.549 862.977C131.669 862.323 123.803 864.404 117.277 868.869C110.997 873.144 106.107 879.087 101.969 885.388C99.4341 889.248 97.1631 893.272 94.8931 897.288C94.1671 898.576 92.0461 897.649 92.7801 896.35Z" fill="#F2F2F2"/>
<path d="M880.857 866.333C878.577 868.376 875.809 869.798 872.82 870.46C869.831 871.123 866.722 871.004 863.792 870.116C856.284 867.745 851.35 860.766 846.979 854.216L834.045 834.859L845.353 837.276C853.485 839.014 861.818 840.831 868.811 845.332C875.804 849.833 881.283 857.655 880.589 865.942" fill="#E6E6E6"/>
<path d="M890.031 895.504C885.997 880.09 881.146 862.86 866.697 853.944C862.679 851.47 858.224 849.786 853.573 848.985C852.108 848.73 851.882 851.033 853.344 851.285C861.13 852.666 868.202 856.688 873.37 862.673C878.349 868.411 881.557 875.406 883.948 882.556C885.412 886.936 886.579 891.408 887.748 895.873C888.12 897.302 890.408 896.948 890.031 895.504Z" fill="#F2F2F2"/>
<path d="M731.159 591.103H466.835C462.44 591.103 458.878 590.203 458.873 589.103V566.684C458.878 565.584 462.44 564.684 466.835 564.684H731.159C735.554 564.684 739.115 565.584 739.121 566.684V589.101C739.116 590.201 735.554 591.101 731.159 591.101V591.103Z" fill="#F1F1F1"/>
<path d="M631.512 477.61L631.22 477.394L631.213 477.389C630.452 476.825 629.498 476.585 628.56 476.724C627.623 476.863 626.779 477.368 626.213 478.128L566.713 558.234H560.167V556.695C560.167 556.316 560.016 555.952 559.748 555.683C559.48 555.415 559.116 555.264 558.736 555.264H554.831C554.452 555.264 554.088 555.415 553.82 555.683C553.551 555.951 553.401 556.315 553.4 556.694V558.232H551.14V556.695C551.14 556.316 550.99 555.952 550.721 555.684C550.453 555.415 550.09 555.264 549.71 555.264H545.805C545.426 555.264 545.062 555.415 544.794 555.683C544.525 555.951 544.375 556.315 544.374 556.694V558.232H542.121V556.695C542.121 556.316 541.971 555.952 541.702 555.684C541.434 555.415 541.071 555.264 540.691 555.264H536.786C536.407 555.264 536.043 555.415 535.775 555.683C535.506 555.951 535.355 556.315 535.355 556.694V558.232H533.095V556.695C533.095 556.316 532.945 555.952 532.676 555.684C532.408 555.415 532.045 555.264 531.665 555.264H527.76C527.381 555.264 527.017 555.415 526.749 555.683C526.48 555.951 526.329 556.315 526.329 556.694V558.232H524.076V556.695C524.076 556.316 523.926 555.952 523.657 555.684C523.389 555.415 523.026 555.264 522.646 555.264H518.74C518.552 555.264 518.366 555.301 518.193 555.373C518.019 555.445 517.861 555.55 517.729 555.683C517.596 555.816 517.491 555.974 517.419 556.148C517.347 556.321 517.31 556.507 517.31 556.695V558.233H515.05V556.695C515.05 556.316 514.9 555.952 514.631 555.684C514.363 555.415 514 555.264 513.62 555.264H509.715C509.336 555.264 508.972 555.415 508.704 555.683C508.435 555.951 508.285 556.315 508.284 556.694V558.232H506.024V556.695C506.024 556.316 505.874 555.952 505.605 555.684C505.337 555.415 504.974 555.264 504.594 555.264H500.689C500.31 555.264 499.946 555.415 499.678 555.683C499.409 555.951 499.259 556.315 499.258 556.694V558.232H497V556.695C497 556.316 496.85 555.952 496.581 555.684C496.313 555.415 495.95 555.264 495.57 555.264H491.665C491.286 555.264 490.922 555.415 490.654 555.683C490.385 555.951 490.235 556.315 490.234 556.694V558.232H487.974V556.695C487.974 556.316 487.824 555.952 487.555 555.684C487.287 555.415 486.924 555.264 486.544 555.264H482.64C482.261 555.264 481.897 555.415 481.629 555.683C481.36 555.951 481.209 556.315 481.209 556.694V558.232H478.956V556.695C478.956 556.316 478.806 555.952 478.537 555.684C478.269 555.415 477.906 555.264 477.526 555.264H473.621C473.242 555.264 472.878 555.415 472.61 555.683C472.341 555.951 472.191 556.315 472.19 556.694V558.232H469.358C468.41 558.232 467.5 558.609 466.83 559.28C466.159 559.95 465.782 560.86 465.782 561.808V565.22C465.782 566.169 466.159 567.078 466.83 567.749C467.5 568.419 468.41 568.796 469.358 568.796H566.12C567.346 568.796 568.534 568.374 569.484 567.6C570.435 566.827 571.089 565.749 571.338 564.549L571.375 564.576L632.246 482.619L632.252 482.612C632.816 481.851 633.056 480.897 632.917 479.959C632.779 479.022 632.274 478.178 631.513 477.612L631.512 477.61Z" fill="#090814"/>
<path d="M253.5 865.015L273.976 875.201L298.292 830.201L277.223 818.652L253.5 865.015Z" fill="#FFB7B7"/>
<path d="M394.317 882.335H414L418.611 830.258H394.311L394.317 882.335Z" fill="#FFB7B7"/>
<path d="M331.163 457.556C331.163 457.556 322.122 450.629 322.122 467.549L320.694 523.462L336.635 576.282L345.914 559.151L342.107 522.034L331.163 457.556Z" fill="#FDFAF6"/>
<path d="M427.877 610.487C427.877 610.487 438.361 661.545 425.077 703.447L417.738 864.554L390.829 862.454L381.4 742.938L372.314 683.527L353.44 737.696L291.233 852.322L262.576 829.957C262.576 829.957 294.332 743.307 317.793 725.114L329.56 591.104L427.877 610.487Z" fill="#090814"/>
<path d="M422.903 373.328C431.031 358.459 425.567 339.816 410.697 331.688C395.828 323.56 377.185 329.024 369.057 343.893C360.929 358.763 366.394 377.406 381.263 385.534C396.132 393.662 414.775 388.197 422.903 373.328Z" fill="#FFB7B7"/>
<path d="M393.809 365.118C397.487 365.597 400.262 361.833 401.548 358.355C402.834 354.877 403.815 350.826 407.013 348.947C411.382 346.38 416.972 349.467 421.968 348.62C427.61 347.663 431.279 341.684 431.568 335.969C431.857 330.254 429.581 324.757 427.349 319.487L426.57 326.036C426.674 323.816 426.207 321.607 425.214 319.619C424.22 317.632 422.733 315.932 420.895 314.684L421.895 324.293C421.681 322.967 421.208 321.697 420.502 320.554C419.796 319.412 418.871 318.421 417.781 317.637C416.691 316.852 415.457 316.291 414.149 315.985C412.842 315.679 411.487 315.635 410.162 315.854L410.32 321.58C403.803 320.805 397.23 320.029 390.694 320.619C384.158 321.209 377.576 323.277 372.623 327.582C365.213 334.021 362.507 344.623 363.415 354.397C364.323 364.171 368.358 373.354 372.564 382.224C373.622 384.456 375.085 386.974 377.539 387.258C379.739 387.513 381.761 385.671 382.446 383.558C382.974 381.392 382.954 379.128 382.386 376.973C381.766 373.678 380.986 370.311 381.567 367.01C382.148 363.709 384.525 360.446 387.853 360.042C391.181 359.638 394.586 363.442 392.986 366.387L393.809 365.118Z" fill="#090814"/>
<path d="M429.776 624.141L327.357 617.533L335.066 585.596L428.674 606.521L429.776 624.141Z" fill="#D6D6E3"/>
<path d="M366.614 400.452L373.038 391.533C373.038 391.533 380.218 393.973 399.448 403.545L400.807 411.901L434.186 617.201L373.515 614.584L356.993 614.232L351.586 602.112L344.919 613.975L328.785 613.632L312.368 604.115L328.547 554.626L333.781 509.42L325.691 466.831C325.691 466.831 315.512 427.723 354.718 406.631L366.614 400.452Z" fill="#FDFAF6"/>
<path d="M503.363 555.869C501.877 556.246 500.327 556.294 498.821 556.007C497.315 555.72 495.89 555.107 494.647 554.21C493.403 553.314 492.372 552.155 491.625 550.817C490.878 549.478 490.433 547.992 490.322 546.463L454.322 536.822L468.802 523.965L500.768 535.096C503.349 535.081 505.845 536.012 507.785 537.715C509.724 539.417 510.972 541.771 511.292 544.332C511.612 546.893 510.981 549.482 509.52 551.609C508.059 553.736 505.868 555.253 503.363 555.873V555.869Z" fill="#FFB7B7"/>
<path d="M487.241 550.426C486.484 550.839 485.649 551.088 484.79 551.156C483.93 551.225 483.066 551.113 482.254 550.826L423.041 528.352C408.595 523.231 396.501 513.038 389.009 499.668L364.316 455.619C362.584 453.683 361.251 451.425 360.393 448.973C359.535 446.522 359.169 443.925 359.314 441.332C359.46 438.739 360.116 436.2 361.244 433.861C362.371 431.521 363.949 429.427 365.887 427.697C367.824 425.968 370.084 424.637 372.536 423.781C374.988 422.926 377.585 422.562 380.178 422.71C382.771 422.858 385.309 423.517 387.648 424.647C389.986 425.777 392.079 427.356 393.807 429.296L436.547 497.038L490.334 528.572C491.388 529.263 492.204 530.262 492.673 531.433C493.141 532.603 493.238 533.89 492.952 535.118L490.277 546.452C489.989 547.667 489.338 548.766 488.411 549.602C488.055 549.923 487.663 550.201 487.242 550.43L487.241 550.426Z" fill="#FDFAF6"/>
<path d="M944 897.684H1C0.734784 897.684 0.480429 897.578 0.292892 897.391C0.105356 897.203 0 896.949 0 896.684C0 896.418 0.105356 896.164 0.292892 895.977C0.480429 895.789 0.734784 895.684 1 895.684H944C944.265 895.684 944.52 895.789 944.707 895.977C944.895 896.164 945 896.418 945 896.684C945 896.949 944.895 897.203 944.707 897.391C944.52 897.578 944.265 897.684 944 897.684Z" fill="#CBCBCB"/>
<path d="M945.001 387.281H502.824V111.996H945.002L945.001 387.281ZM513.112 376.993H934.712V122.285H513.112V376.993Z" fill="#E5E5E5"/>
<path d="M939.856 117.141H507.967V382.137H939.856V117.141Z" fill="white"/>
<path d="M939.856 184.303V168.033H879.943V117.141H863.672V168.032H757.009V117.141H740.738V168.032H576.223V117.141H559.952V168.032H507.967V184.303H559.952V247.581H507.967V263.852H559.952V331.647H507.967V347.918H647.633V382.141H663.903V347.915H740.737V382.138H757.008V347.915H939.855V331.644H757.009V263.849H939.856V247.581H879.943V184.303H939.856ZM740.738 184.303V204.189H576.223V184.303H740.738ZM576.223 220.461H740.738V247.581H576.223V220.461ZM576.223 331.644V263.849H647.634V331.644H576.223ZM740.738 331.644H663.904V263.849H740.738V331.644ZM863.672 247.581H757.009V184.303H863.672V247.581Z" fill="#E6E6E6"/>
<path d="M827.369 78.019C827.369 121.108 749.35 217.096 749.35 217.096C749.35 217.096 671.328 121.107 671.328 78.019C671.328 57.3271 679.548 37.4826 694.179 22.8512C708.811 8.21984 728.655 0 749.347 0C770.039 0 789.883 8.21984 804.515 22.8512C819.146 37.4826 827.366 57.3271 827.366 78.019H827.369Z" fill="#CECECE"/>
<path d="M785.016 74.6269C785.016 81.681 782.924 88.5767 779.005 94.4419C775.086 100.307 769.515 104.879 762.998 107.578C756.481 110.277 749.31 110.984 742.392 109.608C735.473 108.231 729.118 104.835 724.13 99.8466C719.142 94.8586 715.745 88.5035 714.369 81.585C712.993 74.6665 713.699 67.4953 716.399 60.9781C719.098 54.461 723.669 48.8908 729.535 44.9717C735.4 41.0527 742.296 38.9609 749.35 38.9609C758.809 38.9609 767.881 42.7186 774.569 49.4073C781.258 56.0959 785.016 65.1677 785.016 74.6269Z" fill="white"/>
<path d="M749.347 273.406C760.963 273.406 770.378 263.99 770.378 252.375C770.378 240.76 760.963 231.344 749.347 231.344C737.732 231.344 728.316 240.76 728.316 252.375C728.316 263.99 737.732 273.406 749.347 273.406Z" fill="#FDFAF6"/>
<path d="M414.306 877.719L436.888 889.273C436.888 889.273 472.229 897.698 449.219 904.699C426.209 911.7 415.851 906.724 415.851 906.724C415.851 906.724 385.751 908.289 386.236 899.891C386.721 891.493 392.512 879.684 392.512 879.684C392.512 879.684 412.657 884.948 414.306 877.719Z" fill="#090814"/>
<path d="M278.496 867.063L295.631 882.928C295.631 882.928 327.28 900.768 303.232 901.155C279.184 901.543 270.598 893.904 270.598 893.904C270.598 893.904 241.233 887.112 244.014 879.173C246.795 871.234 255.617 861.479 255.617 861.479C255.617 861.479 274.917 873.558 278.496 867.063Z" fill="#090814"/>
<path d="M585.79 884.412V596.697C585.79 591.913 586.69 588.036 587.79 588.031H610.209C611.309 588.036 612.209 591.913 612.209 596.697V884.412C612.209 889.196 611.309 893.073 610.209 893.078H587.792C586.692 893.073 585.792 889.196 585.792 884.412H585.79Z" fill="#F1F1F1"/>
</g>
<defs>
<clipPath id="clip0_191_285">
<rect width="945.001" height="908.438" fill="white"/>
</clipPath>
</defs>
</svg>
