<svg width="800" height="454" viewBox="0 0 800 454" fill="none" xmlns="http://www.w3.org/2000/svg">
<g clip-path="url(#clip0_191_20)">
<path d="M525.244 451.29H507.659V315.951H521.959C522.652 315.951 523.316 316.225 523.807 316.714C524.298 317.202 524.576 317.866 524.579 318.558L525.244 451.29Z" fill="#CCCCCC"/>
<path d="M509.303 452.008H320.466V355.623H509.303V452.008Z" fill="#D1D3D4"/>
<path d="M434.872 451.648H320.823V355.98H508.944V377.581C508.921 397.218 501.109 416.045 487.223 429.93C473.337 443.816 454.51 451.626 434.872 451.648Z" fill="#F2F2F2"/>
<path d="M522.38 319.795C522.286 319.975 522.212 320.165 522.162 320.361L515.65 345.461L508.587 358.837H321.187V355.505L331.857 345.46L344.304 321.653C344.853 320.602 345.575 319.651 346.439 318.838C348.409 316.984 351.013 315.951 353.72 315.951H520.07C520.521 315.951 520.965 316.068 521.358 316.29C521.752 316.512 522.081 316.832 522.314 317.219C522.547 317.605 522.676 318.046 522.689 318.497C522.702 318.949 522.598 319.396 522.387 319.795H522.38Z" fill="#F2F2F2"/>
<path d="M509.303 452.008H320.466V355.623H509.303V452.008ZM321.903 450.574H507.87V357.057H321.903V450.574Z" fill="#E6E6E6"/>
<path d="M519.129 332.637L515.65 345.463H331.853L337.792 334.788L519.129 332.637Z" fill="#CCCCCC"/>
<path d="M357.532 406.129H327.429V407.795H357.532V406.129Z" fill="#D1D3D4"/>
<path d="M357.532 411.959H327.429V413.625H357.532V411.959Z" fill="#D1D3D4"/>
<path d="M357.532 417.791H327.429V419.457H357.532V417.791Z" fill="#D1D3D4"/>
<path d="M339.09 387.572C345.07 387.572 349.918 382.724 349.918 376.744C349.918 370.764 345.07 365.916 339.09 365.916C333.11 365.916 328.262 370.764 328.262 376.744C328.262 382.724 333.11 387.572 339.09 387.572Z" fill="#D1D3D4"/>
<path d="M457.764 338.187H448.564V267.408H456.043C456.406 267.408 456.753 267.552 457.01 267.807C457.266 268.062 457.412 268.409 457.413 268.771L457.764 338.187Z" fill="#CCCCCC"/>
<path d="M449.429 338.562H350.675V288.162H449.429V338.562Z" fill="#D1D3D4"/>
<path d="M410.503 338.374H350.861V288.344H449.239V299.635C449.228 309.905 445.143 319.751 437.881 327.012C430.619 334.274 420.773 338.359 410.503 338.371V338.374Z" fill="#F2F2F2"/>
<path d="M456.267 269.423C456.217 269.518 456.178 269.619 456.152 269.723L452.747 282.849L449.053 289.849H351.053V288.107L356.633 282.854L363.142 270.404C363.429 269.854 363.806 269.357 364.258 268.932C365.288 267.962 366.65 267.422 368.065 267.422H455.058C455.294 267.422 455.526 267.483 455.732 267.599C455.937 267.715 456.11 267.882 456.232 268.084C456.354 268.287 456.421 268.517 456.428 268.753C456.435 268.989 456.38 269.223 456.27 269.432L456.267 269.423Z" fill="#F2F2F2"/>
<path d="M449.429 338.562H350.675V288.162H449.429V338.562ZM351.429 337.812H448.683V288.91H351.425L351.429 337.812Z" fill="#E6E6E6"/>
<path d="M454.567 276.137L452.748 282.844H356.63L359.736 277.261L454.567 276.137Z" fill="#CCCCCC"/>
<path d="M370.058 314.568H354.316V315.439H370.058V314.568Z" fill="#D1D3D4"/>
<path d="M370.058 317.619H354.316V318.49H370.058V317.619Z" fill="#D1D3D4"/>
<path d="M370.058 320.668H354.316V321.539H370.058V320.668Z" fill="#D1D3D4"/>
<path d="M360.414 304.865C363.541 304.865 366.076 302.33 366.076 299.203C366.076 296.076 363.541 293.541 360.414 293.541C357.287 293.541 354.752 296.076 354.752 299.203C354.752 302.33 357.287 304.865 360.414 304.865Z" fill="#D1D3D4"/>
<path d="M343.732 287.581C340.463 287.503 337.21 288.069 334.16 289.248C331.109 290.427 328.321 292.195 325.954 294.451C323.586 296.708 321.687 299.409 320.364 302.399C319.041 305.39 318.319 308.612 318.241 311.881C317.911 325.629 327.7 354.553 341.858 365.632C345.938 341.643 366.281 325.832 368.029 313.077C369.896 299.447 357.484 287.911 343.732 287.581Z" fill="#D1D3D4"/>
<path d="M341.176 318.275C345.661 318.275 349.297 314.639 349.297 310.154C349.297 305.669 345.661 302.033 341.176 302.033C336.691 302.033 333.055 305.669 333.055 310.154C333.055 314.639 336.691 318.275 341.176 318.275Z" fill="white"/>
<path d="M338.114 377.695C341.052 377.695 343.433 375.313 343.433 372.376C343.433 369.438 341.052 367.057 338.114 367.057C335.176 367.057 332.795 369.438 332.795 372.376C332.795 375.313 335.176 377.695 338.114 377.695Z" fill="#D1D3D4"/>
<path opacity="0.2" d="M347.355 303.767C348.346 304.213 349.237 304.853 349.976 305.65C350.715 306.447 351.287 307.384 351.657 308.406C352.027 309.427 352.189 310.513 352.132 311.598C352.074 312.684 351.8 313.746 351.325 314.724C350.85 315.701 350.183 316.573 349.365 317.288C348.546 318.003 347.593 318.546 346.56 318.886C345.528 319.226 344.438 319.355 343.355 319.266C342.272 319.177 341.218 318.871 340.255 318.367C342.166 318.616 344.104 318.178 345.721 317.129C347.339 316.081 348.531 314.492 349.084 312.645C349.637 310.799 349.516 308.816 348.741 307.051C347.966 305.286 346.589 303.854 344.855 303.012C345.723 303.127 346.568 303.382 347.355 303.767Z" fill="#231F20"/>
<path opacity="0.2" d="M368.062 313.097C366.314 325.848 345.973 341.664 341.892 365.652C340.559 364.599 339.306 363.449 338.144 362.211C343.111 339.562 362.155 324.38 363.844 312.061C365.355 301.035 357.512 291.378 347.179 287.92C359.49 289.881 369.774 300.611 368.062 313.097Z" fill="#231F20"/>
<path d="M745.928 450.396H553.165C552.826 450.396 552.551 449.843 552.551 449.16C552.551 448.477 552.826 447.924 553.165 447.924H745.928C746.267 447.924 746.542 448.477 746.542 449.16C746.542 449.843 746.268 450.396 745.928 450.396Z" fill="#E6E6E6"/>
<path d="M705.25 154.123C703.71 155.951 701.756 157.384 699.55 158.302L693.228 165.421L675.321 187.044L663.221 194.362L657.602 184.691L684.118 158.86L691.508 151.342C692.1 149.025 693.239 146.884 694.83 145.098C698.744 140.577 704.251 138.93 707.13 141.422C710.009 143.914 709.166 149.601 705.25 154.123Z" fill="#ED9DA0"/>
<path d="M597.018 175.604L608.663 156.224L658.207 177.511L685.287 155.385L696.414 164.97C696.798 165.301 669.106 203.655 667.14 203.61C665.174 203.565 597.018 175.604 597.018 175.604Z" fill="#FDFAF6"/>
<path d="M618.281 141.98H601.062V175.405H618.281V141.98Z" fill="#ED9DA0"/>
<path d="M646.708 235.119L605.18 232.08C605.18 232.08 587.96 271.58 601.128 296.904L610.245 349.574L606.638 436.264H625.5L654.81 296.904L646.708 235.119Z" fill="#090814"/>
<path d="M638.605 279.363L654.805 293.469L646.705 431.618H628.477L638.605 279.363Z" fill="#090814"/>
<path d="M609.439 148.552C621.328 148.552 630.966 138.914 630.966 127.025C630.966 115.136 621.328 105.498 609.439 105.498C597.55 105.498 587.912 115.136 587.912 127.025C587.912 138.914 597.55 148.552 609.439 148.552Z" fill="#ED9DA0"/>
<path d="M606.86 415.691L629.101 419.21L633.281 435.161C633.281 435.161 651.337 441.956 642.637 449.339C633.937 456.722 601.796 452.905 599.256 447.609C596.716 442.313 606.86 415.691 606.86 415.691Z" fill="#090814"/>
<path d="M625.093 415.69L647.331 419.203L651.511 435.154C651.511 435.154 669.567 441.949 660.867 449.332C652.167 456.715 620.026 452.898 617.486 447.602C614.946 442.306 625.095 415.689 625.095 415.689L625.093 415.69Z" fill="#090814"/>
<path d="M686.526 231.694C684.136 231.721 681.774 231.174 679.638 230.101L670.118 229.957L642.049 230.501L628.608 226.111L632.269 215.545L669.148 218.778L679.667 219.47C681.81 218.406 684.176 217.872 686.567 217.912C692.548 217.926 697.387 221.025 697.379 224.831C697.371 228.637 692.513 231.711 686.529 231.695L686.526 231.694Z" fill="#ED9DA0"/>
<path d="M619.867 154.598H598.556L591.506 175.869L605.18 232.083L646.708 235.122L644.176 212.333C646.573 208.437 647.759 203.917 647.582 199.347C647.406 194.776 645.875 190.361 643.185 186.662L619.867 154.598Z" fill="#FDFAF6"/>
<path d="M599.61 163.713L621.895 159.887L638.095 211.317L672.533 217.394V232.081C672.533 232.589 625.4 236.639 624.151 235.12C622.902 233.601 599.606 163.712 599.606 163.712L599.61 163.713Z" fill="#FDFAF6"/>
<path d="M620.188 114.544C622.833 118.834 620.394 124.485 617.137 128.331C613.88 132.177 609.678 135.552 608.224 140.377C606.924 144.703 608.106 149.368 609.64 153.62C611.174 157.872 613.081 162.108 613.24 166.62C613.399 171.132 611.259 176.12 607.007 177.647C602.642 179.212 597.481 176.753 593.277 178.709C587.801 181.256 586.56 190.075 580.59 190.989C576.916 191.552 573.511 188.366 572.484 184.789C571.457 181.212 572.194 177.404 572.937 173.762L579.037 143.826L584.114 118.917C585.124 113.96 586.323 108.656 590.049 105.234C594.602 101.052 601.464 100.952 607.641 101.203C613.316 101.433 619.223 101.822 624.161 104.624C629.099 107.426 632.731 113.382 631.019 118.797C630.156 116.913 628.638 115.408 626.747 114.561C624.857 113.713 622.723 113.582 620.743 114.191" fill="#090814"/>
<path d="M685.755 223.776H695.555V148.332H687.583C687.197 148.332 686.826 148.485 686.553 148.757C686.279 149.029 686.124 149.399 686.122 149.785L685.755 223.776Z" fill="#CCCCCC"/>
<path d="M694.639 170.453H799.899V224.179H694.639V170.453Z" fill="#D1D3D4"/>
<path d="M694.84 182.687V170.65H799.7V223.976H736.128C725.181 223.964 714.687 219.61 706.946 211.869C699.206 204.129 694.852 193.634 694.84 182.687Z" fill="#F2F2F2"/>
<path d="M687.347 150.479C687.399 150.579 687.44 150.685 687.469 150.795L691.099 164.786L695.036 172.242H799.496V170.385L793.549 164.785L786.611 151.514C786.304 150.928 785.902 150.398 785.421 149.945C784.322 148.911 782.871 148.336 781.363 148.336H688.641C688.389 148.336 688.142 148.401 687.922 148.525C687.703 148.649 687.52 148.827 687.39 149.043C687.26 149.259 687.188 149.504 687.181 149.756C687.174 150.007 687.232 150.256 687.35 150.479H687.347Z" fill="#F2F2F2"/>
<path d="M694.639 170.453H799.899V224.179H694.639V170.453ZM799.1 223.38H695.438V171.253H799.1V223.38Z" fill="#E6E6E6"/>
<path d="M689.162 157.637L691.101 164.787H793.551L790.24 158.837L689.162 157.637Z" fill="#CCCCCC"/>
<path d="M694.639 170.453H799.899V224.179H694.639V170.453ZM799.1 223.38H695.438V171.253H799.1V223.38Z" fill="#E6E6E6"/>
<path d="M796.018 198.602H779.239V199.531H796.018V198.602Z" fill="#FDFAF6"/>
<path d="M796.018 201.852H779.239V202.781H796.018V201.852Z" fill="#FDFAF6"/>
<path d="M796.018 205.102H779.239V206.031H796.018V205.102Z" fill="#FDFAF6"/>
<path d="M789.517 188.258C792.851 188.258 795.553 185.555 795.553 182.222C795.553 178.888 792.851 176.186 789.517 176.186C786.184 176.186 783.481 178.888 783.481 182.222C783.481 185.555 786.184 188.258 789.517 188.258Z" fill="#FDFAF6"/>
<path d="M740.829 91.0272C747.923 90.857 754.795 93.5119 759.932 98.4079C765.068 103.304 768.05 110.04 768.22 117.134C768.575 131.907 758.056 162.988 742.842 174.893C738.457 149.115 716.599 132.12 714.721 118.419C712.715 103.778 726.056 91.3822 740.829 91.0272Z" fill="#D1D3D4"/>
<path d="M743.578 124.007C748.397 124.007 752.304 120.1 752.304 115.281C752.304 110.461 748.397 106.555 743.578 106.555C738.758 106.555 734.852 110.461 734.852 115.281C734.852 120.1 738.758 124.007 743.578 124.007Z" fill="#FDFAF6"/>
<path d="M746.868 187.858C750.025 187.858 752.584 185.299 752.584 182.142C752.584 178.985 750.025 176.426 746.868 176.426C743.711 176.426 741.152 178.985 741.152 182.142C741.152 185.299 743.711 187.858 746.868 187.858Z" fill="#FDFAF6"/>
<path opacity="0.2" d="M736.936 108.417C734.855 109.43 733.262 111.227 732.506 113.415C731.75 115.602 731.894 118 732.906 120.081C733.919 122.162 735.716 123.756 737.904 124.512C740.091 125.268 742.489 125.124 744.57 124.111C742.516 124.382 740.432 123.912 738.692 122.786C736.953 121.66 735.67 119.952 735.075 117.967C734.48 115.982 734.611 113.85 735.444 111.952C736.278 110.055 737.759 108.516 739.623 107.611C738.69 107.733 737.783 108.005 736.936 108.417Z" fill="#231F20"/>
<path opacity="0.2" d="M714.686 118.445C716.564 132.145 738.422 149.145 742.807 174.919C744.239 173.786 745.586 172.55 746.835 171.219C741.498 146.881 721.035 130.568 719.219 117.329C717.595 105.481 726.019 95.1027 737.127 91.3867C723.897 93.4987 712.847 105.029 714.686 118.445Z" fill="#231F20"/>
<path d="M281.543 450.093H88.78C88.441 450.093 88.166 449.54 88.166 448.857C88.166 448.174 88.441 447.621 88.78 447.621H281.543C281.882 447.621 282.157 448.174 282.157 448.857C282.157 449.54 281.883 450.093 281.543 450.093Z" fill="#E6E6E6"/>
<path d="M147.459 166.38C143.041 161.88 137.138 160.519 134.279 163.331C131.42 166.143 132.679 172.066 137.101 176.563C138.843 178.382 140.994 179.759 143.376 180.577L162.332 199.393L170.974 190.31L151.366 172.728C150.589 170.331 149.249 168.155 147.458 166.383L147.459 166.38Z" fill="#ED9DA0"/>
<path d="M208.094 150.849L188.216 194.949L156.473 177.766L145.111 183.795C145.111 183.795 171.057 227.177 188.828 222.239C206.599 217.301 238.145 172.522 232.461 158.701C226.777 144.88 208.092 150.848 208.092 150.848L208.094 150.849Z" fill="#E6E6E6"/>
<path d="M216.811 444.754H202.316L195.416 388.848H216.809L216.811 444.754Z" fill="#ED9DA0"/>
<path d="M167.15 444.424C166.692 445.743 166.458 447.129 166.46 448.524C166.46 449.829 166.978 451.08 167.9 452.003C168.823 452.925 170.073 453.444 171.378 453.444H216.267C217.157 453.444 218.011 453.091 218.64 452.461C219.269 451.832 219.623 450.978 219.623 450.088V448.219C219.623 448.219 221.845 442.602 217.272 435.676C217.272 435.676 211.59 441.097 203.1 432.606L200.6 428.07L182.473 441.319L172.424 442.559C170.224 442.829 168.278 442.517 167.147 444.423L167.15 444.424Z" fill="#090814"/>
<path d="M205.842 153.68L205.549 134.13L217.605 126.615L230.714 142.646L205.842 153.68Z" fill="#ED9DA0"/>
<path d="M205.804 140.214C217.646 140.214 227.245 130.615 227.245 118.773C227.245 106.931 217.646 97.332 205.804 97.332C193.963 97.332 184.363 106.931 184.363 118.773C184.363 130.615 193.963 140.214 205.804 140.214Z" fill="#ED9DA0"/>
<path d="M176.563 282.952L196.536 418.866H221.6L218.263 341.284L216.509 300.484L221.598 281.067C223.214 277.974 224.641 274.785 225.871 271.519C228.071 265.619 229.813 258.537 227.233 255.177C226.283 253.94 223.813 253.027 220.457 252.342C218.137 251.891 215.796 251.557 213.442 251.342C198.623 249.876 177.542 250.792 177.542 250.792L177.006 268.476L176.706 278.351L176.563 282.952Z" fill="#090814"/>
<path d="M242.339 438.107L227.998 440.213L213.044 385.903L234.21 382.793L242.339 438.107Z" fill="#ED9DA0"/>
<path d="M193.162 445.003C192.9 446.374 192.871 447.779 193.076 449.16C193.266 450.451 193.961 451.613 195.008 452.392C196.055 453.17 197.368 453.501 198.659 453.311L243.069 446.779C243.505 446.715 243.924 446.566 244.303 446.34C244.681 446.114 245.011 445.815 245.275 445.461C245.538 445.108 245.728 444.706 245.836 444.278C245.944 443.851 245.966 443.406 245.902 442.97L245.63 441.121C245.63 441.121 247.01 435.244 241.48 429.057C241.48 429.057 236.647 435.247 227.012 428.082L223.875 423.959L207.875 439.709L198.112 442.391C195.977 442.978 194.004 442.953 193.162 445.001V445.003Z" fill="#090814"/>
<path d="M176.249 260.287L178.988 283.879L193.928 333.595L218.522 415.442L243.311 411.799L221.063 295.423L223.263 275.467C223.263 275.467 223.98 273.484 224.803 270.579C226.435 264.834 228.483 255.479 226.23 250.706C225.949 250.085 225.557 249.52 225.072 249.039C224.186 248.179 222.386 247.658 219.972 247.381C209.889 246.241 189.123 249.501 179.884 251.101L176.246 260.285L176.249 260.287Z" fill="#090814"/>
<path d="M227.958 138.516L203.601 150.208C203.601 150.208 177.782 226.69 177.782 230.587C177.782 234.484 170.475 236.92 174.859 241.305C179.243 245.69 166.699 249.405 173.459 252.905C180.219 256.405 222.386 275.563 227.072 273.834C240.004 269.07 226.524 251.563 226.524 251.563C226.524 251.563 236.241 243.736 234.78 239.842C233.319 235.948 243.549 161.412 243.549 161.412L227.958 138.516Z" fill="#E6E6E6"/>
<path d="M207.114 123.909L204.36 129.428C204.36 129.428 201.602 119.5 197.193 117.294C192.784 115.088 192.229 111.775 192.229 111.775C192.229 111.775 186.71 118.942 182.852 117.294C178.994 115.646 177.333 114.536 181.752 107.917C186.171 101.298 185.061 104.608 185.061 104.608C185.061 104.608 188.922 99.0892 188.37 100.747C187.818 102.405 191.679 96.3352 191.679 97.9892C191.679 99.6432 194.437 94.6802 194.437 96.3342C194.437 97.9882 206.02 92.4732 204.365 94.6792C202.71 96.8852 214.294 90.2652 219.806 99.0872C225.318 107.909 232.969 106.28 230.248 111.787C227.527 117.294 228.629 132.187 228.629 132.187H221.029C221.029 132.187 213.192 117.295 207.129 123.914L207.114 123.909Z" fill="#090814"/>
<path d="M153.738 205.907C147.693 204.121 141.872 205.792 140.738 209.64C139.604 213.488 143.581 218.052 149.626 219.84C152.032 220.587 154.582 220.746 157.062 220.305L182.77 227.548L185.912 215.411L160.234 209.559C158.39 207.841 156.161 206.589 153.734 205.909L153.738 205.907Z" fill="#ED9DA0"/>
<path d="M199.209 162.896L203.239 211.096L167.146 211.484L160.146 222.27C160.146 222.27 203.893 247.6 217.029 234.658C230.165 221.716 236.009 167.25 224.329 157.926C212.649 148.602 199.213 162.891 199.213 162.891L199.209 162.896Z" fill="#E6E6E6"/>
<path d="M161.306 207.925H153.524V148.031H159.853C160.16 148.031 160.454 148.153 160.672 148.369C160.889 148.585 161.012 148.879 161.013 149.185L161.306 207.925Z" fill="#3F3D56"/>
<path d="M154.251 208.248H70.6807V165.588H154.251V208.248Z" fill="#D1D3D4"/>
<path d="M121.312 208.084H70.8398V165.746H154.093V175.303C154.083 183.994 150.626 192.326 144.481 198.472C138.335 204.617 130.003 208.074 121.312 208.084Z" fill="#D1D3D4"/>
<path d="M160.039 149.733C159.996 149.813 159.963 149.897 159.939 149.984L157.057 161.092L153.931 167.012H70.998V165.538L75.7201 161.093L81.2281 150.557C81.4713 150.092 81.7907 149.671 82.173 149.311C83.045 148.49 84.1975 148.033 85.3951 148.033H159.013C159.213 148.033 159.409 148.085 159.583 148.184C159.756 148.282 159.902 148.423 160.005 148.594C160.108 148.765 160.165 148.96 160.171 149.159C160.177 149.359 160.132 149.557 160.039 149.733Z" fill="#3F3D56"/>
<path d="M154.251 208.248H70.6807V165.588H154.251V208.248ZM71.3146 207.614H153.615V166.223H71.3146V207.614Z" fill="#3F3D56"/>
<path d="M158.599 155.414L157.06 161.091H75.7207L78.3487 156.366L158.599 155.414Z" fill="#FDFAF6"/>
<path d="M87.0847 187.938H73.7627V188.674H87.0847V187.938Z" fill="#D1D3D4"/>
<path d="M87.0847 190.518H73.7627V191.255H87.0847V190.518Z" fill="#D1D3D4"/>
<path d="M87.0847 193.1H73.7627V193.837H87.0847V193.1Z" fill="#D1D3D4"/>
<path d="M78.9229 179.729C81.5694 179.729 83.7149 177.583 83.7149 174.937C83.7149 172.29 81.5694 170.145 78.9229 170.145C76.2763 170.145 74.1309 172.29 74.1309 174.937C74.1309 177.583 76.2763 179.729 78.9229 179.729Z" fill="#D1D3D4"/>
<path d="M21.7229 4.30805C17.114 6.60662 13.0029 9.79051 9.62449 13.6779C6.24604 17.5653 3.66639 22.0801 2.03282 26.9645C0.399238 31.8489 -0.256263 37.0072 0.103739 42.145C0.463742 47.2827 1.83219 52.2992 4.13096 56.9081C13.798 76.2911 48.731 109.348 76.6 114.342C64.611 77.942 81.2809 40.942 74.3219 21.902C66.8859 1.55704 41.1059 -5.35895 21.7229 4.30805Z" fill="#D1D3D4"/>
<path d="M34.788 50.4042C41.8518 50.4042 47.578 44.6779 47.578 37.6142C47.578 30.5505 41.8518 24.8242 34.788 24.8242C27.7243 24.8242 21.998 30.5505 21.998 37.6142C21.998 44.6779 27.7243 50.4042 34.788 50.4042Z" fill="white"/>
<path d="M76.3536 134.867C80.9801 134.867 84.7306 131.117 84.7306 126.49C84.7306 121.864 80.9801 118.113 76.3536 118.113C71.7271 118.113 67.9766 121.864 67.9766 126.49C67.9766 131.117 71.7271 134.867 76.3536 134.867Z" fill="#FDFAF6"/>
<path opacity="0.2" d="M38.6868 24.1718C40.3707 24.1061 42.0509 24.3739 43.631 24.9596C45.211 25.5453 46.6598 26.4375 47.8939 27.5849C49.1281 28.7322 50.1233 30.1122 50.8225 31.6454C51.5217 33.1787 51.911 34.835 51.9681 36.5191C52.0251 38.2033 51.7488 39.8821 51.155 41.4592C50.5612 43.0362 49.6616 44.4803 48.5079 45.7086C47.3542 46.9369 45.9691 47.925 44.4323 48.6164C42.8955 49.3077 41.2372 49.6884 39.5528 49.7368C42.3997 48.6786 44.7771 46.6417 46.2593 43.9907C47.7414 41.3397 48.2317 38.2477 47.6422 35.2682C47.0527 32.2887 45.422 29.6163 43.0421 27.7294C40.6621 25.8425 37.6882 24.8643 34.6528 24.9698C35.9457 24.488 37.3079 24.2185 38.6868 24.1718Z" fill="#231F20"/>
<path opacity="0.2" d="M74.386 21.9077C81.344 40.9457 64.675 77.9467 76.664 114.348C74.0335 113.863 71.4425 113.185 68.912 112.319C59.144 77.1298 74.475 41.9677 67.752 23.5737C61.735 7.11073 43.703 -0.557251 26.77 2.23975C45.353 -4.09825 67.573 3.26375 74.386 21.9077Z" fill="#231F20"/>
</g>
<defs>
<clipPath id="clip0_191_20">
<rect width="799.898" height="453.442" fill="white"/>
</clipPath>
</defs>
</svg>
