<svg width="586" height="472" viewBox="0 0 586 472" fill="none" xmlns="http://www.w3.org/2000/svg">
<g clip-path="url(#clip0_124_381)">
<path d="M444.162 253.49L455.898 251.359L458.831 260.392L447.029 264.23L444.162 253.49Z" fill="#ED9DA0"/>
<path d="M362.878 470.8C362.878 470.8 353.568 447.864 381.496 430.662L362.878 470.8Z" fill="#E6E6E6"/>
<path d="M372.803 470.382C372.803 470.382 369.963 454.038 347.983 454.175L372.803 470.382Z" fill="#E6E6E6"/>
<path d="M561.402 470.8C561.402 470.8 549.1 440.499 586 417.773L561.402 470.8Z" fill="#E6E6E6"/>
<path d="M546.277 470.249C546.277 470.249 542.525 448.652 513.486 448.837L546.277 470.249Z" fill="#E6E6E6"/>
<path d="M358.22 134.506L338.954 124.263L340.395 123.496L359.662 133.74L358.22 134.506Z" fill="white"/>
<path d="M341.414 134.506L339.973 133.74L359.238 123.496L360.68 124.263L341.414 134.506Z" fill="white"/>
<path d="M251.748 81.1463L251.162 82.291L254.593 84.0508L255.179 82.9061L251.748 81.1463Z" fill="#CBCBCB"/>
<path d="M322.886 119.08L316.057 115.577L316.643 114.432L323.472 117.935L322.886 119.08ZM309.227 112.075L302.397 108.571L302.983 107.426L309.813 110.93L309.227 112.075ZM295.568 105.068L288.739 101.566L289.324 100.421L296.154 103.924L295.568 105.068ZM281.909 98.063L275.079 94.5604L275.665 93.4155L282.495 96.9182L281.909 98.063ZM268.25 91.0577L261.42 87.555L262.006 86.4102L268.835 89.9128L268.25 91.0577Z" fill="#CBCBCB"/>
<path d="M330.304 121.437L329.718 122.582L333.149 124.342L333.735 123.197L330.304 121.437Z" fill="#CBCBCB"/>
<path d="M71.2254 167.261C71.2254 167.663 71.2125 168.061 71.1866 168.456C71.0407 170.735 70.4655 172.965 69.4914 175.03C69.4841 175.048 69.4753 175.064 69.4672 175.081C69.4218 175.177 69.375 175.272 69.3274 175.366C69.0376 175.95 68.7161 176.518 68.3644 177.067C66.7583 179.586 64.5568 181.671 61.9546 183.137C59.3524 184.602 56.4296 185.404 53.4444 185.471L53.6245 195.829L55.9678 194.592L56.3866 195.389L53.6384 196.838L53.9745 216.076L53.9782 216.333L52.1636 216.738L52.1673 216.48L52.7385 185.472C50.3357 185.438 47.9636 184.926 45.7601 183.966C43.5566 183.006 41.5655 181.618 39.9025 179.882C39.7882 179.764 39.6747 179.642 39.5641 179.521L39.5517 179.507C38.1663 177.995 37.0455 176.261 36.2367 174.376C36.2543 174.396 36.2733 174.415 36.2909 174.436C34.4638 170.159 34.3398 165.346 35.9443 160.981C37.5488 156.616 40.7603 153.031 44.9207 150.96L45.1111 150.867C49.2265 148.883 53.9364 148.519 58.3073 149.847C62.6782 151.175 66.3911 154.098 68.71 158.037C68.8206 158.223 68.9297 158.414 69.0308 158.605C70.4712 161.263 71.2239 164.24 71.2203 167.265L71.2254 167.261Z" fill="#E5E5E5"/>
<path d="M68.7764 175.09C81.9492 175.09 92.6279 164.402 92.6279 151.217C92.6279 138.032 81.9492 127.344 68.7764 127.344C55.6035 127.344 44.9248 138.032 44.9248 151.217C44.9248 164.402 55.6035 175.09 68.7764 175.09Z" fill="white"/>
<path opacity="0.2" d="M51.1654 135.271C48.9406 140.48 48.6388 146.311 50.314 151.723C51.9891 157.134 55.532 161.773 60.3096 164.81C65.0872 167.847 70.7882 169.085 76.3938 168.303C81.9994 167.52 87.1444 164.768 90.9095 160.539C89.5503 163.721 87.5161 166.569 84.9478 168.887C82.3796 171.204 79.3387 172.935 76.0358 173.959C72.7329 174.984 69.247 175.277 65.8196 174.819C62.3922 174.361 59.1052 173.163 56.1864 171.307C53.2676 169.452 50.7868 166.983 48.9158 164.073C47.0448 161.162 45.8283 157.879 45.3507 154.451C44.8731 151.024 45.1458 147.533 46.1498 144.221C47.1538 140.909 48.8652 137.856 51.1654 135.271Z" fill="white"/>
<path d="M70.0676 217.723L67.6313 217.039L67.6365 216.777L68.3687 177.066L68.4054 175.087V175.029L68.5328 168.091L68.7173 158.035L68.8425 151.219H68.9099L69.038 158.604L69.205 168.215L69.3244 175.032V175.082L69.3295 175.364L69.5609 188.658L69.585 189.977L70.0632 217.455L70.0676 217.723Z" fill="#3F3D56"/>
<path d="M72.6357 187.039L68.6929 189.117L69.2424 190.162L73.1853 188.084L72.6357 187.039Z" fill="#3F3D56"/>
<path d="M377.967 73.9534C347.862 72.1729 317.666 72.6383 287.63 75.346C273.153 76.6558 258.446 78.0703 244.236 81.2315C232.791 83.7777 219.507 88.08 212.377 98.1021C210.883 100.121 209.877 102.459 209.436 104.933C208.995 107.406 209.132 109.948 209.836 112.36C211.537 118.077 215.768 122.829 220.271 126.554C230.639 135.129 243.503 140.113 254.993 146.929C275.974 159.365 295.175 176.126 307.497 197.418C312.921 206.787 318.079 219.245 312.037 229.57C306.121 239.684 292.915 243.168 282.145 244.815C268.645 246.874 254.74 246.316 241.184 245.162C226.323 243.775 211.544 241.608 196.91 238.671C168.239 233.161 139.83 226.152 110.761 222.964C96.1862 221.248 81.4882 220.823 66.8382 221.693C53.6076 222.586 40.2634 224.681 27.8345 229.456C18.2564 233.135 8.04707 238.703 2.87357 247.987C-2.1132 256.936 -0.168294 267.257 5.26224 275.514C11.7963 285.449 21.9844 292.257 32.576 297.233C44.6365 302.899 57.5369 306.571 70.4528 309.693C77.0037 311.277 83.5897 312.709 90.1765 314.134C91.5502 314.431 92.1375 312.318 90.7623 312.02C77.4789 309.147 64.1574 306.265 51.2043 302.106C39.2177 298.258 26.9507 293.328 17.1346 285.249C9.19307 278.711 1.64262 269.163 2.11127 258.306C2.58359 247.361 11.7582 239.719 20.7505 235.015C31.9887 229.137 44.7566 226.274 57.2675 224.777C71.593 223.18 86.0399 222.983 100.403 224.191C129.401 226.399 157.756 233.011 186.19 238.776C213.813 244.378 242.297 249.567 270.605 248.13C281.825 247.56 293.848 245.951 303.755 240.282C308.29 237.687 312.381 234.027 314.686 229.263C316.763 224.731 317.42 219.676 316.57 214.764C314.964 203.972 308.56 193.965 302.17 185.373C295.167 176.046 287.043 167.619 277.981 160.28C268.035 152.269 257.312 145.277 245.971 139.409C239.957 136.24 233.858 133.193 228.127 129.522C222.635 126.004 217.211 121.768 213.856 116.055C210.953 111.113 210.421 105.473 213.444 100.461C216.502 95.3924 221.77 91.8568 226.965 89.2732C239.482 83.0484 254.033 81.3824 267.727 79.6718C297.131 76.0185 326.763 74.5396 356.384 75.2471C363.584 75.4166 370.779 75.7149 377.97 76.142C379.378 76.2248 379.373 74.0326 377.97 73.9498L377.967 73.9534Z" fill="white"/>
<path d="M358.87 3.69139L363.417 0.0509224C359.885 -0.338997 358.433 1.59008 357.839 3.11531C355.079 1.96827 352.074 3.47151 352.074 3.47151L361.173 6.77777C360.714 5.55073 359.915 4.48008 358.87 3.69139Z" fill="#3F3D56"/>
<path d="M336.8 15.2168L341.348 11.5763C337.815 11.1864 336.363 13.1155 335.769 14.6407C333.009 13.4937 330.005 14.9969 330.005 14.9969L339.103 18.3032C338.645 17.0761 337.846 16.0055 336.8 15.2168Z" fill="#3F3D56"/>
<path d="M358.87 33.4629L363.417 29.8224C359.885 29.4325 358.433 31.3616 357.839 32.8868C355.079 31.7398 352.074 33.243 352.074 33.243L361.173 36.5529C360.715 35.3259 359.916 34.2552 358.87 33.4665L358.87 33.4629Z" fill="#3F3D56"/>
<path d="M290.696 38.856C298.263 38.856 304.397 32.7164 304.397 25.1428C304.397 17.5693 298.263 11.4297 290.696 11.4297C283.13 11.4297 276.996 17.5693 276.996 25.1428C276.996 32.7164 283.13 38.856 290.696 38.856Z" fill="#FF6583"/>
<path d="M333.66 67.4H266.447C266.363 67.4011 266.279 67.3945 266.196 67.3802L297.986 12.2718C298.18 11.9285 298.461 11.6428 298.801 11.4441C299.142 11.2453 299.529 11.1406 299.923 11.1406C300.317 11.1406 300.704 11.2453 301.044 11.4441C301.385 11.6428 301.666 11.9285 301.86 12.2718L323.193 49.2526L324.219 51.0219L333.66 67.4Z" fill="white"/>
<path d="M371.081 67.4016H312.949L324.213 51.0242L325.024 49.8442L339.702 28.499C339.962 28.1725 340.287 27.9042 340.657 27.7118C341.027 27.5194 341.433 27.4071 341.849 27.3822C342.266 27.3574 342.682 27.4204 343.073 27.5674C343.463 27.7143 343.818 27.9419 344.114 28.2352C344.19 28.3185 344.261 28.4066 344.326 28.499L371.081 67.4016Z" fill="white"/>
<path d="M275.189 193.795C281.56 196.982 285.441 201.191 285.441 205.808C285.441 215.754 267.46 223.817 245.28 223.817C235.637 223.817 226.79 222.291 219.87 219.751C227.224 223.43 237.897 225.746 249.781 225.746C271.961 225.746 289.942 217.683 289.942 207.737C289.936 202.116 284.188 197.098 275.189 193.795Z" fill="#F1F1F1"/>
<path d="M289.36 200.625C296.548 204.221 300.925 208.971 300.925 214.181C300.925 225.403 280.636 234.5 255.608 234.5C244.727 234.5 234.744 232.779 226.933 229.913C235.23 234.064 247.274 236.677 260.684 236.677C285.711 236.677 306 227.579 306 216.357C306 210.018 299.515 204.351 289.36 200.625Z" fill="#F1F1F1"/>
<path d="M269.765 196.803C274.254 199.048 276.986 202.014 276.986 205.267C276.986 212.273 264.318 217.954 248.692 217.954C242.604 218.032 236.548 217.064 230.788 215.089C235.968 217.681 243.489 219.313 251.861 219.313C267.487 219.313 280.156 213.632 280.156 206.625C280.156 202.665 276.106 199.13 269.765 196.803Z" fill="#F1F1F1"/>
<path d="M206.702 195.518C206.702 195.518 207.688 209.947 235.961 209.947C264.234 209.947 272.675 195.518 272.675 195.518H206.702Z" fill="white"/>
<path d="M246.832 157.658C242.75 154.554 237.627 153.152 232.535 153.744C237.083 154.844 241.099 157.512 243.879 161.279C246.659 165.047 248.024 169.673 247.737 174.348C247.449 179.022 245.526 183.446 242.306 186.843C239.085 190.241 234.773 192.395 230.124 192.928C234.573 194.006 239.257 193.516 243.388 191.543C247.518 189.569 250.844 186.232 252.805 182.092C254.766 177.953 255.243 173.263 254.155 168.813C253.067 164.363 250.481 160.424 246.832 157.658Z" fill="white"/>
<path d="M237.566 151.141H235.639V197.068H237.566V151.141Z" fill="white"/>
<path d="M364.254 117.016L364.244 116.999L364.217 115.876L370.256 107.1L364.225 115.037L364.204 115.274L363.997 106.304L369.213 97.205L363.982 104.728L364.037 86.1436V86.082V86.1429L363.691 100.79L358.937 94.8406L363.676 102.052L363.572 110.075L359.197 102.245L363.555 111.255L363.498 115.717L363.338 128.078L363.326 129.001C363.729 129.004 364.128 128.997 364.523 128.981L364.249 117.108L364.254 117.016Z" fill="#CBCBCB"/>
<path d="M335.339 120.873L335.329 120.855L335.302 119.733L341.341 110.957L335.313 118.894L335.291 119.132L335.084 110.161L340.3 101.063L335.07 108.585L335.124 90.0013V89.9434V90.0042L334.777 104.651L330.023 98.7019L334.762 105.913L334.658 113.937L330.283 106.106L334.642 115.117L334.584 119.578L334.424 131.939L334.413 132.862C334.815 132.865 335.214 132.859 335.609 132.843L335.335 120.969L335.339 120.873Z" fill="#CBCBCB"/>
<path d="M349.474 108.655L349.464 108.637L349.437 107.515L355.476 98.739L349.445 106.675L349.423 106.913L349.216 97.9423L354.432 88.8437L349.202 96.3665L349.257 77.7823L348.91 92.4284L344.156 86.4792L348.895 93.6906L348.791 101.714L344.416 93.8833L348.775 102.894L348.717 107.355L348.557 119.716L348.546 120.64C348.948 120.643 349.347 120.636 349.742 120.62L349.468 108.746L349.474 108.655Z" fill="#CBCBCB"/>
<path d="M110.66 322.217C114.918 322.217 118.37 318.761 118.37 314.499C118.37 310.237 114.918 306.781 110.66 306.781C106.401 306.781 102.949 310.237 102.949 314.499C102.949 318.761 106.401 322.217 110.66 322.217Z" fill="white"/>
<path d="M500.862 456.961L493.723 459.615L480.095 433.319L490.632 429.402L500.862 456.961Z" fill="#ED9DA0"/>
<path d="M505.253 463.212L482.235 471.772L482.127 471.479C481.244 469.1 481.341 466.468 482.397 464.162C483.453 461.855 485.38 460.063 487.756 459.179L501.816 453.951L505.253 463.212Z" fill="black"/>
<path d="M430.61 464.382H422.994L419.371 434.982H430.61L430.61 464.382Z" fill="#ED9DA0"/>
<path d="M431.931 471.877H407.375V471.566C407.375 469.029 408.382 466.596 410.175 464.802C411.967 463.008 414.398 462 416.932 462H431.931V471.877Z" fill="black"/>
<path d="M465.478 260.479L462.989 255.508L441.869 266.077L442.49 270.43L438.453 275.714C438.453 275.714 431.62 279.445 432.862 291.879L434.107 303.691L435.66 318.924L424.79 356.538L419.199 406.272L415.161 446.373L434.728 445.441L452.742 380.16L484.422 450.415L506.161 444.824L476.345 375.188L472.618 345.967C472.618 345.967 475.103 330.424 463.301 319.855L465.164 314.26V307.364L471.376 274.469L465.478 260.479Z" fill="#8A8A8A"/>
<path opacity="0.2" d="M466.055 331.568L452.39 380.062L453.092 380.261L466.758 331.767L466.055 331.568Z" fill="white"/>
<path d="M464.853 318.922H434.416V322.03H464.853V318.922Z" fill="#3F3D56"/>
<path d="M434.417 323.896C435.104 323.896 435.66 322.505 435.66 320.788C435.66 319.071 435.104 317.68 434.417 317.68C433.731 317.68 433.175 319.071 433.175 320.788C433.175 322.505 433.731 323.896 434.417 323.896Z" fill="#3F3D56"/>
<path d="M456.081 252.439C464.105 248.048 467.054 237.979 462.668 229.948C458.281 221.917 448.221 218.966 440.197 223.356C432.174 227.746 429.225 237.815 433.611 245.846C437.997 253.877 448.057 256.829 456.081 252.439Z" fill="#ED9DA0"/>
<path d="M473.48 231.982C481.569 231.982 488.127 225.418 488.127 217.321C488.127 209.224 481.569 202.66 473.48 202.66C465.39 202.66 458.832 209.224 458.832 217.321C458.832 225.418 465.39 231.982 473.48 231.982Z" fill="#212121"/>
<path d="M492.068 215.75C492.639 217.691 492.804 219.729 492.55 221.736C492.296 223.743 491.63 225.676 490.593 227.413C489.557 229.15 488.172 230.653 486.527 231.829C484.881 233.004 483.01 233.825 481.032 234.241C479.054 234.657 477.011 234.659 475.032 234.246C473.053 233.833 471.181 233.015 469.534 231.843C467.886 230.67 466.499 229.169 465.46 227.434C464.42 225.699 463.751 223.767 463.494 221.76C464.535 225.295 466.869 228.308 470.031 230.198C473.192 232.089 476.949 232.717 480.553 231.959C484.157 231.201 487.343 229.112 489.477 226.108C491.611 223.104 492.536 219.406 492.068 215.75Z" fill="#2F2E41"/>
<path d="M434.2 233.297C433.77 237.086 434.601 240.912 436.564 244.181C438.527 247.45 441.512 249.98 445.057 251.378C448.602 252.777 452.509 252.966 456.173 251.917C459.836 250.867 463.052 248.638 465.321 245.574C467.59 242.51 468.786 238.782 468.724 234.969C468.661 231.155 467.344 227.469 464.976 224.481C462.609 221.492 459.322 219.369 455.627 218.44C451.931 217.511 448.032 217.828 444.535 219.342C441.642 217.006 438.055 217.729 435.139 220.195C431.844 222.98 430.864 224.895 428.307 229.477C430.821 229.831 431.685 232.943 434.2 233.297Z" fill="#212121"/>
<path d="M495.061 283.132C494.876 288.042 494.508 297.71 494.508 298.204C494.508 298.723 487.186 313.898 484.023 320.429C483.798 320.889 483.596 321.309 483.417 321.675C483.173 322.182 482.788 322.608 482.309 322.902C481.83 323.197 481.276 323.348 480.714 323.337L466.89 323.089C466.131 323.075 465.407 322.769 464.868 322.234C464.329 321.7 464.017 320.977 463.997 320.218L462.455 259.344C462.449 259.144 462.484 258.944 462.558 258.757C462.631 258.57 462.741 258.4 462.88 258.256C463.02 258.112 463.188 257.997 463.373 257.919C463.557 257.841 463.756 257.801 463.957 257.801H481.784C482.537 257.801 483.275 258.014 483.913 258.415C484.551 258.815 485.063 259.388 485.391 260.066L493.947 277.784C494.75 279.45 495.133 281.287 495.063 283.135L495.061 283.132Z" fill="white"/>
<path d="M463.756 316.043C460.209 313.892 457.021 311.196 454.31 308.054C448.011 300.963 444.18 292.018 443.392 282.563C442.689 274.472 444.293 268.459 448.159 264.689C453.074 259.897 459.762 260.593 460.045 260.625L460.344 260.659L464.879 264.497L463.596 266.014L459.542 262.58C458.301 262.518 453.233 262.507 449.532 266.128C446.125 269.464 444.726 274.935 445.374 282.391C446.123 291.394 449.762 299.912 455.746 306.675C458.327 309.664 461.353 312.237 464.718 314.304L463.756 316.043Z" fill="white"/>
<path d="M489.488 292.922L465.322 297.883L465.455 298.532L489.621 293.571L489.488 292.922Z" fill="#3F3D56"/>
<path d="M473.56 257.793L472.898 257.82L474.476 296.283L475.137 296.256L473.56 257.793Z" fill="#3F3D56"/>
<path d="M495.063 283.136C494.877 288.047 494.51 297.715 494.51 298.208C494.51 298.728 487.187 313.903 484.024 320.434L489.921 286.167C490.149 284.849 490.723 283.615 491.584 282.591C492.445 281.568 493.562 280.791 494.821 280.342C495.019 281.259 495.1 282.198 495.063 283.136Z" fill="#3F3D56"/>
<path d="M458.836 354.95C459.358 354.276 459.726 353.497 459.915 352.665C460.103 351.834 460.107 350.972 459.927 350.139C459.746 349.306 459.385 348.523 458.869 347.845C458.354 347.167 457.696 346.61 456.942 346.214L458.14 332.948L450.261 330.252L448.832 349.015C448.257 350.326 448.181 351.803 448.619 353.166C449.057 354.529 449.978 355.685 451.208 356.415C452.439 357.145 453.894 357.4 455.299 357.13C456.704 356.861 457.962 356.086 458.835 354.952L458.836 354.95Z" fill="#ED9DA0"/>
<path d="M459.865 342.112L445.905 341.605L446.496 274.223C446.485 272.316 447.074 270.455 448.179 268.901C449.284 267.348 450.848 266.181 452.652 265.566C454.337 265.006 456.157 265.004 457.844 265.561C459.756 266.209 461.399 267.475 462.513 269.16C463.627 270.846 464.148 272.855 463.995 274.87L459.865 342.112Z" fill="#8A8A8A"/>
<path d="M582.332 472.001H304.203C304.019 471.987 303.847 471.903 303.722 471.768C303.597 471.632 303.527 471.455 303.527 471.27C303.527 471.085 303.597 470.908 303.722 470.772C303.847 470.637 304.019 470.554 304.203 470.539H582.332C582.433 470.531 582.534 470.545 582.629 470.578C582.725 470.611 582.812 470.663 582.886 470.732C582.96 470.801 583.02 470.884 583.06 470.977C583.1 471.069 583.121 471.169 583.121 471.27C583.121 471.371 583.1 471.471 583.06 471.564C583.02 471.656 582.96 471.739 582.886 471.808C582.812 471.877 582.725 471.929 582.629 471.962C582.534 471.995 582.433 472.009 582.332 472.001Z" fill="#CBCBCB"/>
</g>
<defs>
<clipPath id="clip0_124_381">
<rect width="586" height="472" fill="white"/>
</clipPath>
</defs>
</svg>
