<svg width="1144" height="652" viewBox="0 0 1144 652" fill="none" xmlns="http://www.w3.org/2000/svg">
<g clip-path="url(#clip0_191_114)">
<path opacity="0.1" d="M1144 430.57C1144.06 463.666 1135.03 496.142 1117.88 524.45C1117.88 559.07 1101.74 590.45 1075.56 613.32C1069.01 619.046 1061.95 624.171 1054.48 628.63C1054.18 628.82 1053.87 629 1053.56 629.18C1053 629.51 1052.44 629.84 1051.87 630.18L1051.34 630.49C1026.56 644.301 998.629 651.473 970.26 651.31H217.17C165.24 651.31 118.23 633.23 84.1699 604.01C50.1099 574.79 29.1199 534.35 29.1199 489.75C10.0473 460.381 -0.0703633 426.098 -0.00012505 391.08C-0.00012505 291.94 79.2399 211.57 177 211.57C180.46 211.57 183.89 211.69 187.3 211.88C248.64 107.28 387 34.3398 547.74 34.3398C646.56 34.3398 736.89 61.8898 806.08 107.41C832.29 92.5937 861.892 84.8244 892 84.8598C989.74 84.8598 1069 165.23 1069 264.37C1068.99 270.643 1068.65 276.911 1068 283.15C1091.56 299.828 1110.76 321.928 1123.99 347.585C1137.22 373.242 1144.08 401.704 1144 430.57Z" fill="#FDFAF6"/>
<path opacity="0.1" d="M413 487.26C629.496 487.26 805 482.559 805 476.76C805 470.961 629.496 466.26 413 466.26C196.504 466.26 21 470.961 21 476.76C21 482.559 196.504 487.26 413 487.26Z" fill="#FDFAF6"/>
<g opacity="0.7">
<path d="M267 399.26H142V468.26H267V399.26Z" fill="#65617D"/>
<path opacity="0.1" d="M224 411.26H186V419.26H224V411.26Z" fill="black"/>
<path opacity="0.1" d="M219.25 412.26H190.75V418.26H219.25V412.26Z" fill="black"/>
<path d="M394 399.26H269V468.26H394V399.26Z" fill="#65617D"/>
<path opacity="0.1" d="M351 411.26H313V419.26H351V411.26Z" fill="black"/>
<path opacity="0.1" d="M346.25 412.26H317.75V418.26H346.25V412.26Z" fill="black"/>
<path d="M267 328.26H142V397.26H267V328.26Z" fill="#65617D"/>
<path opacity="0.1" d="M224 340.26H186V348.26H224V340.26Z" fill="black"/>
<path opacity="0.1" d="M219.25 341.26H190.75V347.26H219.25V341.26Z" fill="black"/>
<path d="M394 328.26H269V397.26H394V328.26Z" fill="#65617D"/>
<path opacity="0.1" d="M351 340.26H313V348.26H351V340.26Z" fill="black"/>
<path opacity="0.1" d="M346.25 341.26H317.75V347.26H346.25V341.26Z" fill="black"/>
<path d="M267 256.26H142V325.26H267V256.26Z" fill="#65617D"/>
<path opacity="0.1" d="M224 268.26H186V276.26H224V268.26Z" fill="black"/>
<path opacity="0.1" d="M219.25 269.26H190.75V275.26H219.25V269.26Z" fill="black"/>
<path d="M394 256.26H269V325.26H394V256.26Z" fill="#65617D"/>
<path opacity="0.1" d="M351 268.26H313V276.26H351V268.26Z" fill="black"/>
<path opacity="0.1" d="M346.25 269.26H317.75V275.26H346.25V269.26Z" fill="black"/>
<path d="M394 184.26H269V253.26H394V184.26Z" fill="#65617D"/>
<path opacity="0.1" d="M351 196.26H313V204.26H351V196.26Z" fill="black"/>
<path opacity="0.1" d="M346.25 197.26H317.75V203.26H346.25V197.26Z" fill="black"/>
</g>
<g opacity="0.7">
<path d="M521 398.26H396V467.26H521V398.26Z" fill="#65617D"/>
<path opacity="0.1" d="M478 410.26H440V418.26H478V410.26Z" fill="black"/>
<path opacity="0.1" d="M473.25 411.26H444.75V417.26H473.25V411.26Z" fill="black"/>
<path d="M648 398.26H523V467.26H648V398.26Z" fill="#65617D"/>
<path opacity="0.1" d="M605 410.26H567V418.26H605V410.26Z" fill="black"/>
<path opacity="0.1" d="M600.25 411.26H571.75V417.26H600.25V411.26Z" fill="black"/>
<path d="M521 327.26H396V396.26H521V327.26Z" fill="#65617D"/>
<path opacity="0.1" d="M478 339.26H440V347.26H478V339.26Z" fill="black"/>
<path opacity="0.1" d="M473.25 340.26H444.75V346.26H473.25V340.26Z" fill="black"/>
<path d="M648 327.26H523V396.26H648V327.26Z" fill="#65617D"/>
<path opacity="0.1" d="M605 339.26H567V347.26H605V339.26Z" fill="black"/>
<path opacity="0.1" d="M600.25 340.26H571.75V346.26H600.25V340.26Z" fill="black"/>
<path d="M521 255.26H396V324.26H521V255.26Z" fill="#65617D"/>
<path opacity="0.1" d="M478 267.26H440V275.26H478V267.26Z" fill="black"/>
<path opacity="0.1" d="M473.25 268.26H444.75V274.26H473.25V268.26Z" fill="black"/>
<path d="M648 255.26H523V324.26H648V255.26Z" fill="#65617D"/>
<path opacity="0.1" d="M605 267.26H567V275.26H605V267.26Z" fill="black"/>
<path opacity="0.1" d="M600.25 268.26H571.75V274.26H600.25V268.26Z" fill="black"/>
<path d="M648 183.26H523V252.26H648V183.26Z" fill="#65617D"/>
<path opacity="0.1" d="M605 195.26H567V203.26H605V195.26Z" fill="black"/>
<path opacity="0.1" d="M600.25 196.26H571.75V202.26H600.25V196.26Z" fill="black"/>
</g>
<path opacity="0.1" d="M878.29 0.109634C878.29 0.109634 794.1 -4.97038 804 54.0296C804 54.0296 802 64.4596 811.48 69.1896C811.48 69.1896 811.63 64.8196 820.12 66.3096C823.142 66.8107 826.213 66.9583 829.27 66.7496C833.399 66.4645 837.324 64.8428 840.45 62.1296C840.45 62.1296 864.12 52.3496 873.32 13.6696C873.32 13.6696 880.13 5.22963 879.86 3.05963L865.65 9.12963C865.65 9.12963 870.51 19.3796 866.65 27.8996C866.65 27.8996 866.19 9.49963 863.46 9.89963C862.91 9.98963 856.08 13.4496 856.08 13.4496C856.08 13.4496 864.43 31.2996 858.13 44.2796C858.13 44.2796 860.52 22.2796 853.47 14.7396L843.47 20.5796C843.47 20.5796 853.23 39.0196 846.61 54.0696C846.61 54.0696 848.31 30.9896 841.36 21.9996L832.3 29.0696C832.3 29.0696 841.47 47.2496 835.88 59.7296C835.88 59.7296 835.15 32.8596 830.34 30.8296C830.34 30.8296 822.41 37.8296 821.2 40.6896C821.2 40.6896 827.48 53.8896 823.58 60.8496C823.58 60.8496 821.19 42.9496 819.23 42.8496C819.23 42.8496 811.33 54.7096 810.51 62.8496C810.51 62.8496 810.85 50.7496 817.32 41.7196C817.32 41.7196 809.68 43.0296 805.22 47.9896C805.22 47.9896 806.45 39.5996 819.27 38.8696C819.27 38.8696 825.8 29.8696 827.54 29.3196C827.54 29.3196 814.8 28.2596 807.07 31.6796C807.07 31.6796 813.87 23.7696 829.88 27.3696L838.83 20.0596C838.83 20.0596 822.05 17.7696 814.93 20.2996C814.93 20.2996 823.12 13.2996 841.24 18.4096L851 12.6296C851 12.6296 836.69 9.54963 828.17 10.6296C828.17 10.6296 837.17 5.77963 853.86 11.0396L860.86 7.90963C860.86 7.90963 850.38 5.84963 847.31 5.51963C844.24 5.18963 844.08 4.34963 844.08 4.34963C850.719 3.24248 857.536 4.00065 863.77 6.53963C863.77 6.53963 878.55 1.03963 878.29 0.109634Z" fill="#FDFAF6"/>
<path opacity="0.1" d="M774.45 15.1201C774.45 15.1201 736.45 12.8201 740.9 39.4901C740.9 39.4901 740.01 44.2001 744.27 46.3401C744.27 46.3401 744.339 44.3401 748.179 45.0301C749.543 45.2596 750.93 45.3268 752.309 45.2301C754.176 45.1032 755.949 44.3692 757.359 43.1401C757.359 43.1401 768.059 38.7301 772.219 21.2501C772.219 21.2501 775.289 17.4301 775.169 16.4501L768.749 19.1901C768.749 19.1901 770.949 23.8301 769.219 27.6801C769.219 27.6801 769.01 19.3601 767.78 19.5601C767.53 19.5601 764.439 21.1601 764.439 21.1601C764.439 21.1601 768.219 29.2301 765.369 35.1001C765.369 35.1001 766.45 25.1601 763.26 21.7501L758.739 24.3901C758.739 24.3901 763.159 32.7201 760.159 39.5201C760.159 39.5201 760.929 29.0901 757.789 25.0301L753.7 28.2201C753.7 28.2201 757.84 36.4401 755.32 42.0801C755.32 42.0801 754.989 29.9301 752.809 29.0201C752.809 29.0201 749.229 32.1801 748.679 33.4801C748.679 33.4801 751.52 39.4801 749.76 42.5801C749.76 42.5801 748.68 34.4901 747.76 34.4601C747.76 34.4601 744.2 39.8201 743.82 43.4601C743.998 40.063 745.059 36.7712 746.9 33.9101C744.839 34.3003 742.938 35.2839 741.429 36.7401C741.429 36.7401 741.99 32.9601 747.78 32.6201C747.78 32.6201 750.78 28.5601 751.52 28.3101C751.52 28.3101 745.76 27.8301 742.27 29.3801C742.27 29.3801 745.34 25.8001 752.58 27.4301L756.58 24.1301C756.58 24.1301 749 23.1301 745.78 24.2401C745.78 24.2401 749.479 21.0801 757.669 23.3801L762.07 20.7501C762.07 20.7501 755.609 19.3501 751.749 19.8601C751.749 19.8601 755.819 17.6601 763.359 20.0401L766.51 18.6301C766.51 18.6301 761.77 17.6901 760.38 17.5501C758.99 17.4101 758.919 17.0201 758.919 17.0201C761.921 16.5207 765.003 16.867 767.82 18.0201C767.82 18.0201 774.57 15.5401 774.45 15.1201Z" fill="#FDFAF6"/>
<path d="M224.19 644.76C246.398 644.76 264.4 641.716 264.4 637.96C264.4 634.205 246.398 631.16 224.19 631.16C201.983 631.16 183.98 634.205 183.98 637.96C183.98 641.716 201.983 644.76 224.19 644.76Z" fill="#FDFAF6"/>
<path d="M240.82 626.84C242.656 625.345 243.992 623.325 244.65 621.05C245.15 618.76 244.17 616.05 241.97 615.16C239.51 614.22 236.88 615.93 234.89 617.65C232.9 619.37 230.61 621.34 228.01 620.97C229.35 619.753 230.352 618.21 230.92 616.491C231.488 614.773 231.601 612.936 231.25 611.16C231.136 610.425 230.825 609.734 230.35 609.16C228.98 607.7 226.51 608.32 224.87 609.47C219.67 613.13 218.22 620.2 218.19 626.55C217.67 624.26 218.11 621.87 218.1 619.55C218.09 617.23 217.44 614.55 215.45 613.32C214.223 612.66 212.843 612.336 211.45 612.38C209.12 612.29 206.51 612.53 204.92 614.24C202.92 616.36 203.45 619.92 205.17 622.24C206.89 624.56 209.52 626.05 211.94 627.66C213.876 628.815 215.527 630.39 216.77 632.27C216.92 632.533 217.04 632.811 217.13 633.1H231.79C235.069 631.431 238.106 629.325 240.82 626.84Z" fill="#FDFAF6"/>
<path d="M717.36 342.011C717.278 341.253 717.007 340.529 716.572 339.903C716.137 339.278 715.552 338.771 714.87 338.431C714.296 338.186 713.679 338.06 713.055 338.059C712.431 338.058 711.813 338.182 711.239 338.425C710.664 338.667 710.144 339.023 709.709 339.471C709.275 339.918 708.935 340.449 708.71 341.031L686.5 387.761L681.5 571.761H689.5L692.5 388.171L716.94 344.911C717.382 344.013 717.529 342.998 717.36 342.011Z" fill="#3F3D56"/>
<path opacity="0.1" d="M1075.56 613.32C1069.01 619.046 1061.95 624.17 1054.48 628.63C1054.36 628.794 1054.23 628.948 1054.09 629.09C1053.3 629.763 1052.35 630.236 1051.34 630.47C1026.56 644.28 998.629 651.452 970.26 651.289H420.44C357.44 644.809 319 636.219 319 626.789C319 619.479 342.08 612.67 381.82 606.97C385.94 606.37 390.237 605.789 394.71 605.229C397.463 604.883 400.28 604.549 403.16 604.229L408.05 603.66C411.677 603.246 415.4 602.843 419.22 602.45H419.53L423.53 602.049C426.91 601.699 430.36 601.369 433.88 601.049L436.44 600.82L442.97 600.24C447.21 599.86 451.543 599.496 455.97 599.15C459.643 598.863 463.377 598.576 467.17 598.289C505.63 595.439 549.97 593.29 598.22 591.9L612 591.43L616.64 591.33L626.44 591.109L630.37 591.03L634.5 590.95L637.44 590.9L651.24 590.68L658.33 590.58H659.78C676.547 590.38 693.627 590.276 711.02 590.27C745.4 590.27 778.74 590.68 810.51 591.46C828.75 591.9 846.433 592.46 863.56 593.14H863.72C913.1 595.08 957.3 597.94 993.88 601.49L994.55 601.56C1003.94 602.47 1012.83 603.44 1021.17 604.44C1029.02 605.38 1036.39 606.37 1043.23 607.38C1045.6 607.73 1047.9 608.09 1050.14 608.44L1050.71 608.539C1060.19 610.069 1068.51 611.63 1075.56 613.32Z" fill="#FDFAF6"/>
<path d="M1054.48 628.629C1054.36 628.793 1054.23 628.947 1054.09 629.089C1053.3 629.762 1052.35 630.236 1051.34 630.469C1049.32 631.036 1047.24 631.372 1045.14 631.469H1044.51C1043.31 631.509 1042.11 631.469 1040.92 631.349C1040.05 631.223 1039.17 631.166 1038.29 631.179H1038.17C1036.89 631.359 1035.64 631.67 1034.42 632.109C1031.71 632.851 1028.93 633.247 1026.12 633.289H1025.12C1021.98 633.289 1018.8 633.179 1015.65 633.199C1015.14 633.199 1014.65 633.199 1014.12 633.199C1008.72 633.339 1003.35 634.199 997.95 634.289H996.22C990.93 634.159 985.521 633.029 981.311 629.829C980.462 629.268 979.772 628.496 979.311 627.589C978.952 626.632 978.832 625.603 978.961 624.589C979.061 622.779 979.411 620.809 980.771 619.589C981.625 618.934 982.606 618.461 983.651 618.199C985.481 617.609 987.321 617.039 989.151 616.469C990.981 615.899 993.07 615.289 995.04 614.709L995.421 614.589L996.521 614.259L997.23 614.019C998.091 613.743 998.917 613.367 999.69 612.899C1000.71 612.254 1001.57 611.389 1002.22 610.369C1002.33 610.189 1002.45 609.999 1002.55 609.809C1002.65 609.619 1002.55 609.499 1002.48 609.339C1002.31 608.089 1002.18 606.809 1001.96 605.589C999.146 604.937 996.58 603.485 994.571 601.409C992.844 599.698 991.391 597.732 990.261 595.579C987.771 590.899 986.491 585.669 984.631 580.699C981.781 573.139 977.631 566.159 973.451 559.239C969.631 552.859 965.791 546.459 961.451 540.429C958.561 536.429 955.451 532.619 952.591 528.609C944.5 517.42 938.696 504.745 935.511 491.309C935.023 488.732 934.331 486.197 933.441 483.729C931.721 479.529 928.571 476.109 926.131 472.269C923.507 468.13 921.711 463.522 920.841 458.699C920.341 455.959 919.501 452.999 916.771 452.699L916.48 453.269C910.82 464.269 905.01 475.469 896.48 484.449C895.116 485.769 893.868 487.204 892.751 488.739C891.854 490.227 891.052 491.77 890.35 493.359C889 496.212 887.208 498.835 885.04 501.129C884.396 501.782 883.693 502.374 882.941 502.899C881.941 503.625 880.83 504.183 879.651 504.549C879.186 504.691 878.711 504.798 878.23 504.869C878.23 504.989 878.28 505.099 878.29 505.219C878.3 505.339 878.35 505.479 878.37 505.609C879.842 513.61 879.211 521.855 876.54 529.539C876.47 529.779 876.39 530.009 876.3 530.249C875.887 531.369 875.437 532.469 874.951 533.549C873.731 536.199 872.281 538.739 871.141 541.429C870.951 541.889 870.761 542.349 870.591 542.809C866.591 553.519 867.591 565.479 867.071 576.989C867.025 579.506 866.726 582.012 866.18 584.469C865.501 587.239 864.411 590.099 863.811 592.959C863.263 595.103 863.219 597.345 863.68 599.509L863.441 599.599C862.37 599.999 861.281 600.359 860.191 600.699V600.849C860.581 603.089 860.96 605.329 861.35 607.559C861.68 609.479 862.07 611.559 863.41 612.919C863.775 613.22 864.11 613.554 864.41 613.919C865.2 615.159 864.501 616.799 864.651 618.269C864.871 620.349 866.79 622.119 866.49 624.189C866.355 624.808 866.072 625.384 865.664 625.868C865.256 626.353 864.737 626.731 864.151 626.969C863.658 627.192 863.141 627.357 862.61 627.459L862.281 627.529C861.681 627.639 861.08 627.699 860.48 627.759C853.03 628.499 845.48 629.239 838.1 627.979C836.64 627.729 835.191 627.399 833.711 627.279C831.841 627.196 829.967 627.273 828.11 627.509C814.42 628.805 800.651 629.073 786.92 628.309C783.35 628.109 779.25 627.529 777.36 624.479C775.79 621.949 776.361 618.679 777.151 615.789C777.377 614.726 777.786 613.711 778.36 612.789C778.425 612.689 778.499 612.596 778.581 612.509C780.421 610.219 783.88 610.079 786.86 610.169L796.6 610.459C797.559 610.537 798.525 610.463 799.461 610.239C801.041 609.779 802.24 608.519 803.72 607.809C805.58 606.919 807.921 606.809 809.261 605.289L809.43 605.069C809.667 604.747 809.887 604.413 810.091 604.069C810.091 603.999 810.18 603.929 810.23 603.859C810.267 603.797 810.307 603.737 810.35 603.679C811.58 602.059 813.73 601.519 815.48 600.489C815.745 600.335 815.996 600.157 816.23 599.959L816.43 599.779C814.546 598.435 812.903 596.782 811.571 594.889C811.056 594.336 810.676 593.673 810.461 592.949C810.338 592.406 810.38 591.839 810.581 591.319C810.624 591.192 810.677 591.068 810.74 590.949L810.79 590.849C811.47 589.509 812.871 588.299 813.641 586.929C813.67 586.886 813.693 586.839 813.711 586.789C814.771 584.789 814.98 581.689 813.41 580.079C814.21 566.909 817.831 554.079 818.631 540.869C818.951 535.639 818.821 530.389 819.061 525.139C819.3 519.889 819.861 514.799 820.451 509.649C821.771 497.879 824.971 486.349 824.521 474.529C824.482 473.427 824.529 472.324 824.66 471.229C824.656 471.149 824.656 471.069 824.66 470.989C824.981 468.567 825.736 466.223 826.891 464.069C828.34 461.635 829.982 459.321 831.8 457.149C837.95 449.149 845.341 441.149 847.531 431.309C848.661 426.229 851.161 421.579 853.651 417.009C855.121 414.289 856.65 411.499 859.001 409.499C860.273 408.618 861.456 407.613 862.531 406.499C864.171 404.379 864.231 401.449 865.201 398.929C865.701 397.619 866.47 396.419 866.85 395.069C866.85 394.929 866.921 394.799 866.951 394.659C867.172 393.297 867.289 391.919 867.3 390.539C867.3 390.139 867.36 389.749 867.41 389.359C867.995 385.406 869.143 381.556 870.821 377.929C871.031 377.469 871.23 376.999 871.43 376.539C866.817 373.847 862.747 370.317 859.43 366.129C858.306 364.774 857.33 363.302 856.521 361.739C854.461 357.649 853.991 352.989 853.021 348.509C850.701 337.829 845.391 327.769 844.651 316.849C844.431 313.519 844.65 310.079 843.49 306.929C843.171 306.078 842.794 305.249 842.36 304.449C842.18 304.109 842.011 303.769 841.831 303.449L841.631 303.069L841.12 302.069L840.3 302.709C819.842 318.728 798.364 333.399 776.001 346.629L774.081 347.769C773.081 348.251 772.21 348.964 771.54 349.849C771.46 349.979 771.391 350.109 771.321 350.239C770.861 351.189 770.741 352.239 770.321 353.239C769.421 355.529 767.111 356.989 764.751 357.669C760.481 358.767 755.952 358.184 752.1 356.039C751.61 355.789 751.1 355.529 750.66 355.239C749.491 355.887 748.258 356.413 746.98 356.809C742.98 357.969 738.791 357.919 734.651 357.909C730.511 357.899 726.28 357.909 722.36 359.269C719.74 360.159 717.2 361.629 714.48 361.769C714.167 361.789 713.853 361.789 713.54 361.769C711.99 361.591 710.481 361.148 709.081 360.459L708.261 360.089C707.836 359.888 707.422 359.664 707.021 359.419C706.583 359.149 706.177 358.83 705.811 358.469C705.281 357.938 704.896 357.281 704.691 356.559C704.555 356.038 704.555 355.491 704.691 354.969C704.729 354.735 704.85 354.522 705.031 354.369C705.209 354.264 705.414 354.212 705.621 354.219C706.767 354.207 707.912 354.304 709.04 354.509C709.703 354.6 710.372 354.637 711.04 354.619H711.401C711.99 354.556 712.561 354.372 713.077 354.08C713.593 353.787 714.043 353.392 714.401 352.919C714.51 352.773 714.598 352.611 714.66 352.439C714.781 352.158 714.843 351.855 714.841 351.549C714.846 351.473 714.846 351.396 714.841 351.319C714.421 351.129 714 350.939 713.6 350.709C713.39 350.599 713.19 350.479 712.99 350.359L712.871 350.279C712.511 350.035 712.177 349.757 711.871 349.449C711.676 349.257 711.505 349.042 711.36 348.809C711.095 348.447 710.895 348.041 710.771 347.609C709.947 347.437 709.094 347.461 708.281 347.679C707.191 347.979 706.091 348.619 705.011 348.839C704.465 348.976 703.892 348.952 703.36 348.769C701.8 348.209 701.25 346.309 700.92 344.679C700.86 344.369 700.79 344.049 700.74 343.729C700.626 343.114 700.626 342.484 700.74 341.869C701.224 340.472 702.147 339.269 703.371 338.439L706.651 335.689L706.891 335.489C706.891 335.219 706.78 334.949 706.74 334.679C706.625 334.061 706.625 333.427 706.74 332.809C707.224 331.415 708.147 330.215 709.371 329.389L716.631 323.279C717.991 322.139 719.47 320.939 721.24 320.819C723.87 320.639 725.971 322.819 727.941 324.569C730.421 326.769 733.43 328.569 736.74 328.789C738.317 328.861 739.893 328.644 741.391 328.149L742.24 327.869C742.06 327.499 741.881 327.129 741.711 326.759C741.421 326.149 741.13 325.529 740.85 324.909C745.11 324.639 748.981 322.299 752.211 319.499C755.441 316.699 758.21 313.389 761.47 310.639C764.99 307.639 769.03 305.409 772.6 302.519C780.9 295.789 786.41 285.899 795.29 279.969C798.37 277.899 801.931 276.249 804.031 273.169C804.681 272.169 805.171 271.169 805.841 270.169C807.971 267.169 811.621 265.789 814.631 263.709C817.641 261.629 820.261 258.579 822.711 255.649C824.451 253.559 826.2 251.469 827.86 249.319C829.39 246.469 830.681 243.489 832.281 240.679C833.638 238.305 835.222 236.068 837.011 233.999C837.421 233.199 837.84 232.399 838.29 231.619C838.74 230.839 839.07 230.309 839.49 229.619C839.78 229.169 840.081 228.739 840.391 228.299C839.481 226.689 838.611 225.299 838.201 224.689L838.001 224.419C837.118 223.479 836.176 222.598 835.18 221.779C834.135 221.621 833.1 221.4 832.081 221.119C825.909 219.428 820.465 215.754 816.587 210.663C812.709 205.573 810.612 199.348 810.62 192.949C810.615 192.919 810.615 192.889 810.62 192.859C810.624 188.276 811.714 183.759 813.8 179.679C814.22 178.859 814.67 178.069 815.16 177.299C814.703 177.155 814.259 176.974 813.831 176.759C813.101 176.4 812.464 175.876 811.97 175.229C811.563 174.653 811.299 173.988 811.201 173.289C811.031 171.641 811.279 169.977 811.92 168.449C812.193 167.714 812.504 166.993 812.85 166.289C812.878 166.248 812.901 166.204 812.92 166.159C817.39 157.159 826.921 151.629 836.441 151.239C846.711 150.829 856.71 155.649 864.811 162.549C867.227 164.532 869.391 166.806 871.251 169.319C875.48 175.199 877.391 182.719 877.951 190.169C878.161 192.473 878.121 194.794 877.831 197.089C877.725 197.907 877.557 198.716 877.331 199.509C877.201 199.979 877.03 200.449 876.85 200.919C876.67 201.389 876.561 201.599 876.401 201.919V201.969C876.251 202.289 876.08 202.589 875.91 202.889L875.821 203.019L875.691 203.229C875.771 203.419 875.861 203.619 875.951 203.809C876.041 203.999 876.12 204.179 876.22 204.359H876.341C878.341 204.519 880.19 204.799 882.23 204.959C883.19 205.005 884.142 205.152 885.071 205.399C887.071 205.999 888.581 207.459 890.261 208.639C894.421 211.579 899.541 212.949 903.631 215.989C909.631 220.469 912.631 227.869 916.271 234.499C921.071 243.379 928.891 250.939 932.341 260.439C933.901 264.752 935.467 269.059 937.04 273.359C940.11 281.789 943.18 290.259 947.35 298.209C953.15 309.269 961.001 319.209 965.651 330.829C966.112 331.994 966.979 332.952 968.091 333.529C974.427 342.477 980.06 351.901 984.941 361.719C987.511 366.909 989.941 372.299 990.691 378.049C991.276 383.169 990.851 388.353 989.441 393.309C988.643 396.253 987.665 399.146 986.511 401.969C986.061 402.958 985.725 403.994 985.511 405.059C985.511 405.169 985.511 405.279 985.511 405.389C985.311 407.309 986.04 409.209 986.241 411.129C986.408 412.675 986.234 414.238 985.73 415.709C985.651 415.939 985.56 416.169 985.47 416.399C984.85 417.568 984.325 418.786 983.901 420.039C983.864 420.191 983.837 420.344 983.821 420.499C983.491 422.669 984.351 424.859 984.821 427.029C986.581 434.869 986.261 443.029 985.821 451.029C985.591 455.029 988.821 458.239 991.521 461.189C996.521 466.719 1000.43 473.189 1004.2 479.629C1006.26 482.899 1007.99 486.362 1009.37 489.969C1010.8 494.089 1011.37 498.449 1012.16 502.719C1014.71 515.919 1023.04 527.579 1025.3 540.809C1026.35 546.868 1029.02 552.529 1033.03 557.189C1034.24 558.437 1035.35 559.774 1036.36 561.189C1037.06 562.316 1037.61 563.526 1038.01 564.789C1038.99 567.73 1039.46 570.819 1039.38 573.919C1039.22 575.403 1039.31 576.903 1039.63 578.359C1040.57 581.429 1043.93 583.119 1045.32 586.009C1046.71 588.899 1045.75 592.599 1046.32 595.879C1046.77 598.524 1048.2 600.902 1050.32 602.539C1049.52 603.239 1048.68 603.879 1047.82 604.539C1048.62 605.157 1049.31 605.892 1049.89 606.719C1050.28 607.273 1050.62 607.866 1050.89 608.489C1052.21 611.559 1052.25 615.209 1053.33 618.489C1053.79 619.849 1054.44 621.289 1054.04 622.669C1053.87 623.064 1053.75 623.482 1053.7 623.909C1053.7 624.809 1054.64 625.399 1055 626.219C1055.13 626.631 1055.15 627.071 1055.06 627.493C1054.97 627.916 1054.77 628.308 1054.48 628.629Z" fill="url(#paint0_linear_191_114)"/>
<path d="M842.84 238.63C848.96 236.98 854.41 233.53 859.75 230.12L878.36 218.27C873.31 217.87 868.95 214.27 866.36 209.91C863.77 205.55 862.7 200.48 861.82 195.5C853.82 198.62 846.89 203.91 840.43 209.5C837.87 211.71 832.43 215.05 831.64 218.5C830.85 221.95 835.89 224.75 837.84 227.06C838.51 227.83 844.82 238.08 842.84 238.63Z" fill="#FBBEBE"/>
<path opacity="0.1" d="M842.84 238.63C848.96 236.98 854.41 233.53 859.75 230.12L878.36 218.27C873.31 217.87 868.95 214.27 866.36 209.91C863.77 205.55 862.7 200.48 861.82 195.5C853.82 198.62 846.89 203.91 840.43 209.5C837.87 211.71 832.43 215.05 831.64 218.5C830.85 221.95 835.89 224.75 837.84 227.06C838.51 227.83 844.82 238.08 842.84 238.63Z" fill="black"/>
<path d="M741.15 336.511C737.87 338.191 734.38 339.911 730.71 339.671C727.41 339.461 724.4 337.671 721.92 335.481C719.92 333.741 717.86 331.571 715.23 331.751C713.47 331.871 711.99 333.061 710.63 334.191L703.38 340.261C702.16 341.081 701.238 342.274 700.75 343.661C700.607 344.602 700.665 345.563 700.92 346.481C701.25 348.101 701.8 349.991 703.36 350.541C704.92 351.091 706.62 349.911 708.27 349.461C709.278 349.203 710.337 349.222 711.335 349.516C712.333 349.81 713.233 350.368 713.94 351.131C714.53 351.71 714.886 352.486 714.94 353.311C714.94 355.121 712.94 356.311 711.1 356.401C709.26 356.491 707.5 355.891 705.68 356.001C705.571 355.987 705.459 355.995 705.352 356.025C705.246 356.055 705.146 356.106 705.059 356.175C704.973 356.244 704.901 356.329 704.848 356.426C704.795 356.524 704.762 356.631 704.75 356.741C704.638 357.372 704.686 358.022 704.89 358.631C705.094 359.239 705.449 359.786 705.92 360.221C706.871 361.088 707.977 361.767 709.18 362.221C710.579 362.912 712.089 363.352 713.64 363.521C716.71 363.721 719.53 362.021 722.44 361.031C726.36 359.711 730.58 359.671 734.72 359.681C738.86 359.691 743.06 359.751 747.03 358.591C751 357.431 754.77 354.861 756.32 351.031C756.504 350.673 756.563 350.266 756.49 349.871C756.336 349.449 756.039 349.096 755.65 348.871C750.07 344.741 747.81 339.721 741.53 336.751L741.15 336.511Z" fill="#FBBEBE"/>
<path opacity="0.1" d="M741.15 336.511C737.87 338.191 734.38 339.911 730.71 339.671C727.41 339.461 724.4 337.671 721.92 335.481C719.92 333.741 717.86 331.571 715.23 331.751C713.47 331.871 711.99 333.061 710.63 334.191L703.38 340.261C702.16 341.081 701.238 342.274 700.75 343.661C700.607 344.602 700.665 345.563 700.92 346.481C701.25 348.101 701.8 349.991 703.36 350.541C704.92 351.091 706.62 349.911 708.27 349.461C709.278 349.203 710.337 349.222 711.335 349.516C712.333 349.81 713.233 350.368 713.94 351.131C714.53 351.71 714.886 352.486 714.94 353.311C714.94 355.121 712.94 356.311 711.1 356.401C709.26 356.491 707.5 355.891 705.68 356.001C705.571 355.987 705.459 355.995 705.352 356.025C705.246 356.055 705.146 356.106 705.059 356.175C704.973 356.244 704.901 356.329 704.848 356.426C704.795 356.524 704.762 356.631 704.75 356.741C704.638 357.372 704.686 358.022 704.89 358.631C705.094 359.239 705.449 359.786 705.92 360.221C706.871 361.088 707.977 361.767 709.18 362.221C710.579 362.912 712.089 363.352 713.64 363.521C716.71 363.721 719.53 362.021 722.44 361.031C726.36 359.711 730.58 359.671 734.72 359.681C738.86 359.691 743.06 359.751 747.03 358.591C751 357.431 754.77 354.861 756.32 351.031C756.504 350.673 756.563 350.266 756.49 349.871C756.336 349.449 756.039 349.096 755.65 348.871C750.07 344.741 747.81 339.721 741.53 336.751L741.15 336.511Z" fill="black"/>
<path d="M858.25 229.861C856.699 228.859 854.938 228.228 853.103 228.014C851.269 227.801 849.41 228.012 847.67 228.631C844.186 229.886 841.06 231.969 838.56 234.701C836.065 237.246 833.904 240.099 832.13 243.191C830.43 246.191 829.13 249.331 827.43 252.321C824.43 257.671 820.51 262.391 816.57 267.071C814.12 269.981 811.64 272.931 808.5 275.071C805.36 277.211 801.85 278.521 799.72 281.491C799.05 282.431 798.57 283.491 797.91 284.441C795.82 287.501 792.27 289.141 789.18 291.191C780.32 297.091 774.81 306.911 766.53 313.601C762.96 316.481 758.93 318.741 755.42 321.681C752.15 324.411 749.42 327.681 746.16 330.481C742.9 333.281 739.07 335.591 734.82 335.851C737.66 342.181 741.05 348.391 745.92 353.321C750.79 358.251 758.09 361.401 764.74 359.471C767.1 358.791 769.41 357.351 770.31 355.071C770.594 353.899 770.989 352.757 771.49 351.661C772.158 350.781 773.025 350.071 774.02 349.591C800.715 334.008 826.162 316.379 850.13 296.861C856.56 291.621 862.94 286.931 869.54 281.861C871.907 280.182 874.095 278.265 876.07 276.141C878.823 272.854 880.542 268.826 881.012 264.565C881.482 260.303 880.681 255.998 878.71 252.191C876.941 249.278 874.913 246.53 872.65 243.981C868.535 238.623 863.688 233.87 858.25 229.861Z" fill="#FDFAF6"/>
<path opacity="0.1" d="M858.25 229.861C856.699 228.859 854.938 228.228 853.103 228.014C851.269 227.801 849.41 228.012 847.67 228.631C844.186 229.886 841.06 231.969 838.56 234.701C836.065 237.246 833.904 240.099 832.13 243.191C830.43 246.191 829.13 249.331 827.43 252.321C824.43 257.671 820.51 262.391 816.57 267.071C814.12 269.981 811.64 272.931 808.5 275.071C805.36 277.211 801.85 278.521 799.72 281.491C799.05 282.431 798.57 283.491 797.91 284.441C795.82 287.501 792.27 289.141 789.18 291.191C780.32 297.091 774.81 306.911 766.53 313.601C762.96 316.481 758.93 318.741 755.42 321.681C752.15 324.411 749.42 327.681 746.16 330.481C742.9 333.281 739.07 335.591 734.82 335.851C737.66 342.181 741.05 348.391 745.92 353.321C750.79 358.251 758.09 361.401 764.74 359.471C767.1 358.791 769.41 357.351 770.31 355.071C770.594 353.899 770.989 352.757 771.49 351.661C772.158 350.781 773.025 350.071 774.02 349.591C800.715 334.008 826.162 316.379 850.13 296.861C856.56 291.621 862.94 286.931 869.54 281.861C871.907 280.182 874.095 278.265 876.07 276.141C878.823 272.854 880.542 268.826 881.012 264.565C881.482 260.303 880.681 255.998 878.71 252.191C876.941 249.278 874.913 246.53 872.65 243.981C868.535 238.623 863.688 233.87 858.25 229.861Z" fill="black"/>
<path d="M815.28 600.831C813.53 601.831 811.38 602.391 810.15 604.011C809.75 604.531 809.48 605.141 809.05 605.641C807.72 607.201 805.36 607.271 803.51 608.161C802.03 608.861 800.83 610.161 799.26 610.571C798.32 610.794 797.352 610.868 796.39 610.79L786.67 610.5C783.59 610.41 779.98 610.571 778.19 613.081C777.608 614 777.195 615.016 776.97 616.081C776.22 618.951 775.61 622.201 777.18 624.721C779.06 627.721 783.18 628.331 786.73 628.531C800.444 629.289 814.195 629.022 827.87 627.73C829.72 627.494 831.586 627.417 833.45 627.5C834.93 627.62 836.38 627.951 837.84 628.201C845.21 629.451 852.75 628.72 860.19 627.98C861.447 627.92 862.686 627.657 863.86 627.201C864.443 626.962 864.96 626.586 865.366 626.103C865.772 625.62 866.055 625.046 866.19 624.43C866.5 622.37 864.57 620.62 864.36 618.55C864.21 617.09 864.91 615.461 864.11 614.221C863.81 613.855 863.475 613.52 863.11 613.221C861.77 611.831 861.38 609.801 861.05 607.901L859.3 597.63C859.251 596.907 858.954 596.222 858.46 595.69C858.092 595.426 857.667 595.251 857.22 595.18C849.6 593.46 841.79 595.03 834.22 595.99C830.324 596.562 826.383 596.759 822.45 596.581C820.75 596.471 820.09 596.27 818.82 597.38C817.55 598.49 816.87 599.901 815.28 600.831Z" fill="#3F3D56"/>
<path d="M999.29 613.191C997.952 613.938 996.519 614.5 995.03 614.861C991.103 616.007 987.183 617.204 983.27 618.451C982.228 618.708 981.251 619.178 980.4 619.831C979.04 621.031 978.69 622.991 978.59 624.831C978.46 625.844 978.58 626.874 978.94 627.831C979.408 628.728 980.096 629.491 980.94 630.051C985.42 633.441 991.27 634.491 996.89 634.491C1002.51 634.491 1008.09 633.541 1013.71 633.391C1020.5 633.211 1027.47 634.171 1034 632.271C1035.25 631.81 1036.54 631.495 1037.86 631.331C1038.74 631.317 1039.61 631.374 1040.48 631.501C1043.98 631.847 1047.52 631.525 1050.9 630.551C1051.92 630.325 1052.86 629.855 1053.66 629.181C1054.05 628.84 1054.33 628.389 1054.47 627.885C1054.6 627.382 1054.58 626.851 1054.4 626.361C1054.04 625.551 1053.12 624.961 1053.11 624.071C1053.16 623.643 1053.27 623.225 1053.44 622.831C1053.85 621.461 1053.19 620.031 1052.73 618.681C1051.44 614.821 1051.65 610.381 1049.34 607.031C1047.03 603.681 1042.79 602.301 1038.76 601.771C1035.48 601.308 1032.15 601.403 1028.91 602.051C1025.26 602.831 1021.85 604.461 1018.27 605.501C1014.12 606.696 1009.77 607.106 1005.47 606.711C1002.61 606.471 1003.59 606.921 1002.62 609.321C1001.93 610.921 1000.77 612.272 999.29 613.191Z" fill="#3F3D56"/>
<path d="M839.5 224.76C855.516 224.76 868.5 211.776 868.5 195.76C868.5 179.744 855.516 166.76 839.5 166.76C823.484 166.76 810.5 179.744 810.5 195.76C810.5 211.776 823.484 224.76 839.5 224.76Z" fill="#FBBEBE"/>
<path d="M1049.74 602.819C1040.74 610.549 1028.59 613.929 1016.74 614.049C1011.74 614.099 1006.55 613.559 1002.29 610.969C1001.99 609.329 1001.87 607.559 1001.57 605.919C996.4 604.839 992.39 600.629 989.89 595.969C987.39 591.309 986.12 586.129 984.26 581.189C981.42 573.669 977.26 566.739 973.1 559.859C969.28 553.519 965.45 547.159 961.1 541.169C958.22 537.169 955.1 533.409 952.25 529.419C944.176 518.312 938.381 505.717 935.2 492.359C934.714 489.797 934.022 487.279 933.13 484.829C931.41 480.649 928.26 477.249 925.83 473.439C923.21 469.328 921.413 464.746 920.54 459.949C920.05 457.229 919.21 454.289 916.48 454.009C910.74 465.159 904.89 476.489 896.21 485.559C894.846 486.869 893.598 488.294 892.48 489.819C891.584 491.3 890.782 492.837 890.08 494.419C888.734 497.257 886.945 499.863 884.78 502.139C882.966 504.08 880.574 505.384 877.96 505.859C879.888 515.468 878.741 525.44 874.68 534.359C873.47 536.999 872.02 539.519 870.88 542.189C866.22 553.189 867.3 565.599 866.81 577.529C866.768 580.029 866.473 582.518 865.93 584.959C864.72 589.839 862.22 595.029 863.43 599.909C850.89 604.699 836.96 604.399 823.68 602.379C821.083 602.142 818.561 601.376 816.27 600.129C814.387 598.796 812.744 597.152 811.41 595.269C810.896 594.72 810.516 594.06 810.3 593.339C809.78 591.059 812.3 589.339 813.47 587.339C814.64 585.339 814.85 582.169 813.24 580.529C814.04 567.439 817.66 554.659 818.46 541.529C818.78 536.329 818.65 531.109 818.89 525.899C819.13 520.689 819.69 515.619 820.27 510.499C821.59 498.809 824.79 487.349 824.34 475.599C824.203 471.983 825.035 468.396 826.75 465.209C828.196 462.788 829.834 460.487 831.65 458.329C837.79 450.399 845.17 442.449 847.36 432.659C848.49 427.609 850.99 422.989 853.47 418.449C854.94 415.739 856.47 412.969 858.81 410.979C860.083 410.098 861.266 409.093 862.34 407.979C863.98 405.869 864.04 402.979 865.01 400.459C865.51 399.159 866.28 397.959 866.65 396.619C866.955 395.139 867.106 393.631 867.1 392.119C867.42 387.279 869.28 382.599 871.24 378.169C866.631 375.5 862.561 371.994 859.24 367.829C858.125 366.477 857.153 365.012 856.34 363.459C854.28 359.399 853.81 354.769 852.84 350.319C850.53 339.699 845.22 329.709 844.48 318.859C844.26 315.549 844.48 312.129 843.33 308.999C842.8 307.674 842.178 306.388 841.47 305.149C840.773 303.932 840.242 302.627 839.89 301.269C839.25 298.319 840.13 295.269 839.89 292.269C839.65 289.619 838.52 287.139 837.96 284.549C837.389 281.179 837.291 277.746 837.67 274.349C837.92 270.349 838.79 266.219 838.45 262.269C837.899 255.733 838.732 249.154 840.894 242.961C843.057 236.769 846.5 231.101 851 226.329L851.23 226.099C853.14 224.099 855.23 222.329 856.95 220.209C859.29 217.369 860.95 214.029 863.42 211.269C864.5 210.039 865.72 208.939 866.79 207.699C867.772 206.398 868.859 205.181 870.04 204.059C870.638 203.504 871.362 203.104 872.15 202.893C872.938 202.682 873.765 202.667 874.56 202.849C874.761 204.34 875.228 205.783 875.94 207.109C878.02 207.269 879.87 207.559 881.94 207.719C882.9 207.765 883.852 207.912 884.78 208.159C886.73 208.749 888.29 210.159 889.96 211.369C894.12 214.299 899.23 215.659 903.32 218.679C909.32 223.129 912.32 230.479 915.94 237.069C920.73 245.899 928.54 253.409 931.94 262.849L936.63 275.689C939.7 284.069 942.77 292.479 946.93 300.379C952.72 311.379 960.56 321.289 965.21 332.799C965.675 333.954 966.537 334.904 967.64 335.479C973.972 344.359 979.599 353.721 984.47 363.479C987.04 368.639 989.47 373.999 990.21 379.709C991.3 387.779 989.1 395.939 986.04 403.479C985.546 404.559 985.209 405.704 985.04 406.879C984.84 408.789 985.57 410.669 985.77 412.579C985.963 414.363 985.698 416.166 985 417.819C984.378 418.981 983.853 420.191 983.43 421.439C982.89 423.739 983.85 426.079 984.37 428.379C986.13 436.169 985.81 444.239 985.37 452.219C985.14 456.219 988.37 459.389 991.06 462.319C996.06 467.809 999.96 474.229 1003.73 480.639C1005.78 483.89 1007.51 487.333 1008.89 490.919C1010.32 495.009 1010.89 499.339 1011.68 503.589C1014.22 516.699 1022.54 528.289 1024.8 541.439C1025.85 547.463 1028.52 553.088 1032.52 557.709C1033.73 558.959 1034.84 560.296 1035.85 561.709C1036.54 562.831 1037.09 564.033 1037.49 565.289C1038.47 568.209 1038.94 571.279 1038.86 574.359C1038.7 575.833 1038.79 577.323 1039.11 578.769C1040.05 581.819 1043.41 583.499 1044.79 586.369C1046.17 589.239 1045.22 592.919 1045.79 596.179C1046.22 598.812 1047.63 601.184 1049.74 602.819Z" fill="#FDFAF6"/>
<path d="M747.15 327.511C743.87 329.191 740.38 330.911 736.71 330.671C733.41 330.461 730.4 328.671 727.92 326.481C725.92 324.741 723.86 322.571 721.23 322.751C719.47 322.871 717.99 324.061 716.63 325.191L709.38 331.261C708.16 332.081 707.238 333.274 706.75 334.661C706.607 335.602 706.665 336.563 706.92 337.481C707.25 339.101 707.8 340.991 709.36 341.541C710.92 342.091 712.62 340.911 714.27 340.461C715.278 340.203 716.337 340.222 717.335 340.516C718.333 340.81 719.233 341.368 719.94 342.131C720.53 342.71 720.886 343.486 720.94 344.311C720.94 346.121 718.94 347.311 717.1 347.401C715.26 347.491 713.5 346.891 711.68 347.001C711.571 346.987 711.459 346.995 711.352 347.025C711.246 347.055 711.146 347.106 711.059 347.175C710.973 347.244 710.901 347.329 710.848 347.426C710.795 347.524 710.762 347.631 710.75 347.741C710.638 348.372 710.686 349.022 710.89 349.631C711.094 350.239 711.449 350.786 711.92 351.221C712.871 352.088 713.977 352.767 715.18 353.221C716.579 353.912 718.089 354.352 719.64 354.521C722.71 354.721 725.53 353.021 728.44 352.031C732.36 350.711 736.58 350.671 740.72 350.681C744.86 350.691 749.06 350.751 753.03 349.591C757 348.431 760.77 345.861 762.32 342.031C762.504 341.673 762.563 341.266 762.49 340.871C762.336 340.449 762.039 340.096 761.65 339.871C756.07 335.741 753.81 330.721 747.53 327.751L747.15 327.511Z" fill="#FBBEBE"/>
<path d="M825.39 177.939C823.66 178.219 822.19 179.389 820.55 180.039C819.449 180.467 818.27 180.656 817.091 180.594C815.912 180.532 814.759 180.22 813.71 179.679C812.977 179.324 812.337 178.803 811.84 178.159C810.5 176.299 810.97 173.599 811.79 171.419C815.67 161.109 826.03 154.729 836.29 154.319C846.55 153.909 856.53 158.699 864.62 165.549C867.026 167.526 869.185 169.786 871.05 172.279C875.27 178.129 877.18 185.599 877.74 192.999C878.075 196.105 877.868 199.245 877.13 202.279C876.775 203.754 876.126 205.142 875.222 206.36C874.318 207.579 873.178 208.602 871.87 209.369C869.01 210.829 865.58 210.369 862.69 208.969C859.8 207.569 857.32 205.359 854.84 203.249C853.716 202.166 852.386 201.319 850.93 200.759C850.203 200.501 849.417 200.457 848.667 200.635C847.916 200.812 847.233 201.203 846.7 201.759C845.36 203.369 845.7 206.009 844.48 207.759C843.26 209.509 840.72 209.759 838.58 209.759C836.44 209.759 834.27 209.579 832.99 207.879C831.82 206.339 831.99 204.089 832.43 202.149C832.87 200.209 833.62 198.289 833.43 196.299C833.02 192.299 829.52 189.839 828.43 186.159C827.72 183.749 829.28 182.729 829.12 180.549C829 178.629 826.94 177.689 825.39 177.939Z" fill="#3F3D56"/>
<path opacity="0.1" d="M916.5 453.76V454.01C910.76 465.16 904.91 476.49 896.23 485.56C894.865 486.869 893.617 488.295 892.5 489.82C891.603 491.301 890.802 492.837 890.1 494.42C888.753 497.258 886.964 499.864 884.8 502.14L877.56 505.76L900.56 385.76L916.5 453.76Z" fill="black"/>
<path opacity="0.1" d="M883.07 272.14C881.095 274.265 878.907 276.181 876.54 277.86C869.94 282.86 863.54 287.58 857.13 292.86C851.964 297.066 846.724 301.186 841.41 305.22C840.713 304.003 840.182 302.698 839.83 301.34C839.19 298.39 840.07 295.34 839.83 292.34C839.59 289.69 838.46 287.21 837.9 284.62C837.329 281.25 837.231 277.817 837.61 274.42C837.86 270.42 838.73 266.29 838.39 262.34C837.837 255.788 838.674 249.193 840.847 242.987C843.02 236.782 846.48 231.105 851 226.33L851.23 226.1C852.306 225.474 853.446 224.964 854.63 224.58C856.374 223.968 858.235 223.766 860.069 223.988C861.904 224.21 863.663 224.85 865.21 225.86C870.648 229.869 875.495 234.622 879.61 239.98C881.872 242.529 883.901 245.277 885.67 248.19C887.646 251.994 888.454 256.297 887.991 260.558C887.528 264.819 885.816 268.849 883.07 272.14Z" fill="black"/>
<path d="M864.25 220.861C862.699 219.859 860.938 219.228 859.103 219.014C857.269 218.801 855.41 219.012 853.67 219.631C850.186 220.886 847.06 222.969 844.56 225.701C842.065 228.246 839.904 231.099 838.13 234.191C836.43 237.191 835.13 240.331 833.43 243.321C830.43 248.671 826.51 253.391 822.57 258.071C820.12 260.981 817.64 263.931 814.5 266.071C811.36 268.211 807.85 269.521 805.72 272.491C805.05 273.431 804.57 274.491 803.91 275.441C801.82 278.501 798.27 280.141 795.18 282.191C786.32 288.091 780.81 297.911 772.53 304.601C768.96 307.481 764.93 309.741 761.42 312.681C758.15 315.411 755.42 318.681 752.16 321.481C748.9 324.281 745.07 326.591 740.82 326.851C743.66 333.181 747.05 339.391 751.92 344.321C756.79 349.251 764.09 352.401 770.74 350.471C773.1 349.791 775.41 348.351 776.31 346.071C776.594 344.899 776.989 343.757 777.49 342.661C778.158 341.781 779.025 341.071 780.02 340.591C806.715 325.008 832.162 307.379 856.13 287.861C862.56 282.621 868.94 277.931 875.54 272.861C877.907 271.182 880.095 269.265 882.07 267.141C884.823 263.854 886.542 259.826 887.012 255.565C887.482 251.303 886.681 246.998 884.71 243.191C882.941 240.278 880.913 237.53 878.65 234.981C874.535 229.623 869.688 224.87 864.25 220.861Z" fill="#FDFAF6"/>
<g opacity="0.1">
<path d="M840.58 205.729C838.58 205.729 836.27 205.549 834.99 203.849C833.83 202.309 833.99 200.059 834.43 198.119C834.87 196.179 835.62 194.259 835.43 192.269C835.02 188.269 831.52 185.809 830.43 182.129C829.72 179.719 831.28 178.699 831.12 176.519C830.98 174.629 828.93 173.689 827.38 173.939C825.65 174.219 824.18 175.389 822.54 176.039C821.439 176.467 820.26 176.656 819.081 176.594C817.902 176.532 816.749 176.22 815.7 175.679C814.968 175.324 814.328 174.803 813.83 174.159C812.49 172.299 812.96 169.599 813.78 167.419C813.78 167.339 813.85 167.269 813.88 167.189C813.043 168.527 812.34 169.944 811.78 171.419C810.96 173.599 810.49 176.299 811.83 178.159C812.328 178.803 812.968 179.324 813.7 179.679C814.749 180.22 815.902 180.532 817.081 180.594C818.26 180.656 819.439 180.467 820.54 180.039C822.18 179.389 823.65 178.219 825.38 177.939C826.93 177.689 828.98 178.629 829.12 180.519C829.28 182.699 827.72 183.719 828.43 186.129C829.5 189.809 833 192.309 833.43 196.269C833.63 198.269 832.9 200.189 832.43 202.119C831.96 204.049 831.83 206.309 832.99 207.849C834.27 209.549 836.56 209.709 838.58 209.729C840.6 209.749 843.2 209.609 844.48 207.729C845.032 206.785 845.396 205.743 845.55 204.659C844.19 205.629 842.29 205.749 840.58 205.729Z" fill="black"/>
<path d="M873.87 205.369C871.01 206.829 867.58 206.369 864.69 204.969C861.8 203.569 859.32 201.359 856.84 199.249C855.717 198.166 854.387 197.319 852.93 196.759C852.204 196.501 851.418 196.457 850.667 196.635C849.917 196.812 849.234 197.203 848.7 197.759C848.021 198.763 847.592 199.915 847.45 201.119C847.97 200.813 848.55 200.621 849.15 200.558C849.75 200.494 850.357 200.559 850.93 200.749C852.387 201.309 853.717 202.156 854.84 203.239C857.32 205.349 859.84 207.569 862.69 208.959C865.54 210.349 869.01 210.819 871.87 209.359C874.4 207.879 876.243 205.461 877 202.629C876.178 203.768 875.108 204.705 873.87 205.369Z" fill="black"/>
</g>
<path d="M625 635.26C641.569 635.26 655 621.828 655 605.26C655 588.691 641.569 575.26 625 575.26C608.431 575.26 595 588.691 595 605.26C595 621.828 608.431 635.26 625 635.26Z" fill="#3F3D56"/>
<path opacity="0.1" d="M625 635.26C641.569 635.26 655 621.828 655 605.26C655 588.691 641.569 575.26 625 575.26C608.431 575.26 595 588.691 595 605.26C595 621.828 608.431 635.26 625 635.26Z" fill="black"/>
<path d="M625 624.26C635.493 624.26 644 615.753 644 605.26C644 594.766 635.493 586.26 625 586.26C614.507 586.26 606 594.766 606 605.26C606 615.753 614.507 624.26 625 624.26Z" fill="#65617D"/>
<path opacity="0.1" d="M625 624.26C635.493 624.26 644 615.753 644 605.26C644 594.766 635.493 586.26 625 586.26C614.507 586.26 606 594.766 606 605.26C606 615.753 614.507 624.26 625 624.26Z" fill="black"/>
<path d="M602 558.26L621.68 602.76C621.973 603.427 622.451 603.996 623.057 604.401C623.663 604.805 624.372 605.028 625.1 605.043C625.829 605.057 626.546 604.863 627.168 604.484C627.79 604.104 628.29 603.554 628.61 602.9L652 555.26L602 558.26Z" fill="#3F3D56"/>
<path opacity="0.1" d="M602 558.26L621.68 602.76C621.973 603.427 622.451 603.996 623.057 604.401C623.663 604.805 624.372 605.028 625.1 605.043C625.829 605.057 626.546 604.863 627.168 604.484C627.79 604.104 628.29 603.554 628.61 602.9L652 555.26L602 558.26Z" fill="black"/>
<path d="M438 635.26C454.569 635.26 468 621.828 468 605.26C468 588.691 454.569 575.26 438 575.26C421.431 575.26 408 588.691 408 605.26C408 621.828 421.431 635.26 438 635.26Z" fill="#3F3D56"/>
<path opacity="0.1" d="M438 635.26C454.569 635.26 468 621.828 468 605.26C468 588.691 454.569 575.26 438 575.26C421.431 575.26 408 588.691 408 605.26C408 621.828 421.431 635.26 438 635.26Z" fill="black"/>
<path d="M438 624.26C448.493 624.26 457 615.753 457 605.26C457 594.766 448.493 586.26 438 586.26C427.507 586.26 419 594.766 419 605.26C419 615.753 427.507 624.26 438 624.26Z" fill="#65617D"/>
<path opacity="0.1" d="M438 624.26C448.493 624.26 457 615.753 457 605.26C457 594.766 448.493 586.26 438 586.26C427.507 586.26 419 594.766 419 605.26C419 615.753 427.507 624.26 438 624.26Z" fill="black"/>
<path d="M415 558.26L434.68 602.76C434.973 603.427 435.451 603.996 436.057 604.401C436.663 604.805 437.372 605.028 438.1 605.043C438.829 605.057 439.546 604.863 440.168 604.484C440.79 604.104 441.29 603.554 441.61 602.9L465 555.26L415 558.26Z" fill="#3F3D56"/>
<path opacity="0.1" d="M415 558.26L434.68 602.76C434.973 603.427 435.451 603.996 436.057 604.401C436.663 604.805 437.372 605.028 438.1 605.043C438.829 605.057 439.546 604.863 440.168 604.484C440.79 604.104 441.29 603.554 441.61 602.9L465 555.26L415 558.26Z" fill="black"/>
<path d="M722.36 344.011C722.278 343.253 722.007 342.529 721.572 341.903C721.137 341.278 720.552 340.771 719.87 340.431C719.296 340.186 718.679 340.06 718.055 340.059C717.431 340.058 716.813 340.182 716.239 340.425C715.664 340.667 715.144 341.023 714.709 341.471C714.275 341.918 713.935 342.449 713.71 343.031L696.5 385.761L691.5 577.761H699.5L702.5 386.171L721.94 346.911C722.382 346.013 722.529 344.998 722.36 344.011Z" fill="#3F3D56"/>
<path d="M368.5 562.76L395.5 545.76L687 543.26L694.5 562.76H368.5Z" fill="#FDFAF6"/>
<path d="M368.5 580.761V562.761L699.78 559.561L699.46 571.761H374.5V580.761H368.5Z" fill="#3F3D56"/>
<path d="M410.5 645.76C427.069 645.76 440.5 632.328 440.5 615.76C440.5 599.191 427.069 585.76 410.5 585.76C393.931 585.76 380.5 599.191 380.5 615.76C380.5 632.328 393.931 645.76 410.5 645.76Z" fill="#3F3D56"/>
<path d="M410.5 634.76C420.993 634.76 429.5 626.253 429.5 615.76C429.5 605.266 420.993 596.76 410.5 596.76C400.007 596.76 391.5 605.266 391.5 615.76C391.5 626.253 400.007 634.76 410.5 634.76Z" fill="#65617D"/>
<path d="M387.5 568.76L407.18 613.26C407.473 613.927 407.951 614.496 408.557 614.901C409.163 615.305 409.872 615.528 410.6 615.543C411.329 615.557 412.046 615.363 412.668 614.984C413.29 614.604 413.79 614.054 414.11 613.4L437.5 565.76L387.5 568.76Z" fill="#3F3D56"/>
<path d="M643.5 645.76C660.069 645.76 673.5 632.328 673.5 615.76C673.5 599.191 660.069 585.76 643.5 585.76C626.931 585.76 613.5 599.191 613.5 615.76C613.5 632.328 626.931 645.76 643.5 645.76Z" fill="#3F3D56"/>
<path d="M643.5 634.76C653.993 634.76 662.5 626.253 662.5 615.76C662.5 605.266 653.993 596.76 643.5 596.76C633.007 596.76 624.5 605.266 624.5 615.76C624.5 626.253 633.007 634.76 643.5 634.76Z" fill="#65617D"/>
<path d="M620.5 568.76L640.18 613.26C640.473 613.927 640.951 614.496 641.557 614.901C642.163 615.305 642.872 615.528 643.6 615.543C644.329 615.557 645.046 615.363 645.668 614.984C646.29 614.604 646.79 614.054 647.11 613.4L670.5 565.76L620.5 568.76Z" fill="#3F3D56"/>
<path d="M531 484.26H406V553.26H531V484.26Z" fill="#65617D"/>
<path opacity="0.1" d="M488 496.26H450V504.26H488V496.26Z" fill="black"/>
<path opacity="0.1" d="M483.25 497.26H454.75V503.26H483.25V497.26Z" fill="black"/>
<path d="M658 484.26H533V553.26H658V484.26Z" fill="#65617D"/>
<path opacity="0.1" d="M615 496.26H577V504.26H615V496.26Z" fill="black"/>
<path opacity="0.1" d="M610.25 497.26H581.75V503.26H610.25V497.26Z" fill="black"/>
<path d="M531 413.26H406V482.26H531V413.26Z" fill="#65617D"/>
<path opacity="0.1" d="M488 425.26H450V433.26H488V425.26Z" fill="black"/>
<path opacity="0.1" d="M483.25 426.26H454.75V432.26H483.25V426.26Z" fill="black"/>
<path d="M658 413.26H533V482.26H658V413.26Z" fill="#65617D"/>
<path opacity="0.1" d="M615 425.26H577V433.26H615V425.26Z" fill="black"/>
<path opacity="0.1" d="M610.25 426.26H581.75V432.26H610.25V426.26Z" fill="black"/>
<path d="M531 341.26H406V410.26H531V341.26Z" fill="#65617D"/>
<path opacity="0.1" d="M488 353.26H450V361.26H488V353.26Z" fill="black"/>
<path opacity="0.1" d="M483.25 354.26H454.75V360.26H483.25V354.26Z" fill="black"/>
<path d="M658 341.26H533V410.26H658V341.26Z" fill="#65617D"/>
<path opacity="0.1" d="M615 353.26H577V361.26H615V353.26Z" fill="black"/>
<path opacity="0.1" d="M610.25 354.26H581.75V360.26H610.25V354.26Z" fill="black"/>
<path d="M658 269.26H533V338.26H658V269.26Z" fill="#65617D"/>
<path opacity="0.1" d="M615 281.26H577V289.26H615V281.26Z" fill="black"/>
<path opacity="0.1" d="M610.25 282.26H581.75V288.26H610.25V282.26Z" fill="black"/>
</g>
<defs>
<linearGradient id="paint0_linear_191_114" x1="877.83" y1="634.399" x2="877.83" y2="151.259" gradientUnits="userSpaceOnUse">
<stop stop-color="#808080" stop-opacity="0.25"/>
<stop offset="0.54" stop-color="#808080" stop-opacity="0.12"/>
<stop offset="1" stop-color="#808080" stop-opacity="0.1"/>
</linearGradient>
<clipPath id="clip0_191_114">
<rect width="1144" height="651.26" fill="white"/>
</clipPath>
</defs>
</svg>
