<svg width="911" height="654" viewBox="0 0 911 654" fill="none" xmlns="http://www.w3.org/2000/svg">
<g clip-path="url(#clip0_191_382)">
<path d="M431.182 646.477H0V648.351H431.182V646.477Z" fill="#CCCCCC"/>
<path d="M109.607 639.942H121.866L127.699 592.654H109.605L109.607 639.942Z" fill="#FFB8B8"/>
<path d="M145.511 651.324L106.98 651.326L106.979 636.439L130.623 636.438C134.571 636.438 138.358 638.006 141.15 640.798C143.942 643.59 145.511 647.376 145.511 651.324Z" fill="black"/>
<path d="M44.3789 637.586L56.5319 639.206L68.5639 593.104L50.6289 590.713L44.3789 637.586Z" fill="#FFB8B8"/>
<path d="M78.4639 653.613L40.2711 648.521L42.2386 633.765L65.675 636.89C69.5886 637.411 73.1347 639.466 75.5331 642.603C77.9314 645.739 78.9857 649.7 78.4639 653.613Z" fill="black"/>
<path d="M61.7959 444.641L130.796 447.641L127.796 622.641L109.796 620.641L95.7959 501.641L62.7959 628.641L44.7959 625.641L61.7959 444.641Z" fill="#CBCBCB"/>
<path d="M107.796 340.639L83.7959 335.736L68.7959 445.639C68.7959 445.639 112.796 474.639 126.796 444.639L107.796 340.639Z" fill="#FDFAF6"/>
<path d="M97.3276 327.731C110.892 327.731 121.889 316.735 121.889 303.17C121.889 289.606 110.892 278.609 97.3276 278.609C83.7629 278.609 72.7666 289.606 72.7666 303.17C72.7666 316.735 83.7629 327.731 97.3276 327.731Z" fill="#FFB8B8"/>
<path d="M83.7959 334.639L48.7959 345.639C48.7959 345.639 65.7959 430.639 37.7959 474.639C37.7959 474.639 72.7959 511.639 87.7959 428.639C87.7959 428.639 99.7959 361.639 83.7959 334.639Z" fill="#BDBDBD"/>
<path d="M107.796 340.639L133.796 356.639C133.796 356.639 147.796 473.639 133.796 484.639C119.796 495.639 107.796 340.639 107.796 340.639Z" fill="#BDBDBD"/>
<path d="M144.606 501.607C143.541 500.594 142.71 499.36 142.173 497.991C141.636 496.623 141.405 495.153 141.498 493.686C141.59 492.219 142.003 490.79 142.707 489.499C143.412 488.209 144.39 487.089 145.575 486.218L135.004 452.082L152.837 457.262L160.141 488.883C161.472 490.97 161.992 493.472 161.603 495.916C161.213 498.36 159.94 500.577 158.025 502.145C156.11 503.713 153.686 504.525 151.213 504.425C148.74 504.326 146.389 503.323 144.606 501.607Z" fill="#FFB8B8"/>
<path d="M54.7822 491.734C53.5957 490.866 52.614 489.748 51.9061 488.46C51.1983 487.171 50.7815 485.743 50.6852 484.276C50.589 482.809 50.8155 481.339 51.3489 479.969C51.8823 478.599 52.7096 477.363 53.7724 476.347L38.9189 443.846L57.2679 446.7L68.56 477.127C70.1478 479.025 70.984 481.44 70.9101 483.914C70.8362 486.388 69.8574 488.749 68.1591 490.55C66.4608 492.35 64.161 493.465 61.6956 493.683C59.2301 493.902 56.7703 493.208 54.7822 491.734Z" fill="#FFB8B8"/>
<path d="M57.7959 346.641L48.7959 345.641L25.7959 420.641L48.7959 472.641L66.7959 461.641L46.7959 418.641L62.7959 372.641L57.7959 346.641Z" fill="#BDBDBD"/>
<path d="M128.796 355.641L133.796 356.641L157.796 473.641L141.796 478.641L122.796 409.641L128.796 355.641Z" fill="#BDBDBD"/>
<path d="M80.4504 313.256C80.7815 310.843 81.7338 308.557 83.214 306.622C84.6943 304.687 86.6517 303.17 88.8945 302.22C93.6222 300.281 98.9553 301.1 104.051 301.471C109.148 301.842 114.821 301.52 118.499 297.972C121.859 294.732 122.614 289.354 120.992 284.977C119.369 280.6 115.696 277.202 111.522 275.111C107.27 273.16 102.713 271.956 98.0518 271.551C91.2408 270.728 84.2467 270.623 77.6084 272.355C70.9701 274.087 72.6817 277.799 68.7916 283.45C64.9015 289.101 63.7361 296.8 66.702 302.986C68.6865 307.125 72.2429 310.259 75.706 313.272" fill="black"/>
<path d="M629.838 584.305L629.838 582.431C633.565 582.43 637.349 582.353 641.085 582.204L641.16 584.076C637.399 584.227 633.59 584.304 629.838 584.305ZM618.52 584.088C614.772 583.942 610.969 583.718 607.218 583.422L607.366 581.553C611.093 581.847 614.87 582.07 618.593 582.215L618.52 584.088ZM652.462 583.397L652.312 581.528C656.032 581.231 659.797 580.853 663.502 580.405L663.727 582.267C659.997 582.717 656.207 583.097 652.462 583.397ZM595.951 582.304C592.213 581.857 588.441 581.328 584.738 580.734L585.036 578.884C588.713 579.474 592.461 579.998 596.174 580.442L595.951 582.304ZM674.937 580.684L674.638 578.833C678.315 578.239 682.037 577.559 685.702 576.814L686.075 578.65C682.386 579.402 678.639 580.085 674.937 580.684ZM573.598 578.713C569.909 577.966 566.191 577.134 562.548 576.243L562.994 574.421C566.613 575.308 570.305 576.134 573.97 576.875L573.598 578.713ZM697.123 576.167L696.675 574.347C700.305 573.453 703.96 572.475 707.539 571.438L708.061 573.239C704.457 574.283 700.777 575.268 697.123 576.167ZM551.607 573.326C547.992 572.283 544.354 571.153 540.794 569.969L541.386 568.189C544.922 569.366 548.536 570.489 552.127 571.525L551.607 573.326ZM718.869 569.868L718.275 568.09C721.814 566.907 725.378 565.636 728.868 564.31L729.535 566.062C726.02 567.397 722.432 568.678 718.869 569.868ZM530.096 566.163C526.579 564.831 523.036 563.406 519.566 561.928L520.301 560.203C523.748 561.671 527.267 563.087 530.761 564.409L530.096 566.163ZM740.006 561.84L739.27 560.115C742.698 558.652 746.139 557.1 749.497 555.503L750.303 557.196C746.921 558.804 743.457 560.366 740.006 561.84ZM509.219 557.27C505.814 555.654 502.4 553.948 499.073 552.198L499.945 550.54C503.25 552.276 506.641 553.971 510.023 555.577L509.219 557.27ZM760.408 552.139L759.534 550.48C762.836 548.743 766.143 546.916 769.364 545.054L770.303 546.676C767.061 548.551 763.731 550.389 760.408 552.139ZM489.143 546.721C485.876 544.833 482.613 542.858 479.444 540.85L480.447 539.267C483.594 541.26 486.836 543.223 490.081 545.099L489.143 546.721ZM779.974 540.817L778.971 539.234C782.113 537.243 785.265 535.156 788.338 533.032L789.403 534.573C786.31 536.713 783.137 538.813 779.974 540.817ZM469.992 534.595C466.892 532.453 463.8 530.223 460.801 527.967L461.928 526.47C464.907 528.71 467.979 530.926 471.058 533.054L469.992 534.595ZM798.578 527.955L797.45 526.458C800.423 524.222 803.399 521.889 806.296 519.522L807.482 520.974C804.566 523.356 801.57 525.705 798.578 527.955ZM451.886 520.975C448.975 518.597 446.073 516.128 443.259 513.634L444.503 512.232C447.298 514.708 450.181 517.162 453.072 519.524L451.886 520.975ZM816.101 513.639L814.858 512.236C817.651 509.761 820.432 507.195 823.123 504.611L824.421 505.964C821.713 508.565 818.913 511.147 816.101 513.639ZM434.935 505.956C432.231 503.358 429.537 500.665 426.928 497.952L428.279 496.652C430.871 499.348 433.548 502.023 436.234 504.603L434.935 505.956ZM832.43 497.959L831.079 496.659C833.663 493.972 836.231 491.192 838.711 488.395L840.114 489.64C837.616 492.454 835.031 495.253 832.43 497.959ZM419.248 489.636C416.748 486.819 414.279 483.92 411.908 481.02L413.359 479.834C415.714 482.714 418.167 485.594 420.65 488.392L419.248 489.636ZM847.46 481.018L846.008 479.832C848.377 476.935 850.715 473.957 852.957 470.979L854.455 472.107C852.198 475.105 849.843 478.103 847.46 481.018ZM404.921 472.121C402.661 469.121 400.433 466.036 398.297 462.95L399.839 461.883C401.96 464.949 404.174 468.013 406.418 470.993L404.921 472.121ZM861.089 462.919L859.547 461.854C861.676 458.774 863.769 455.616 865.765 452.467L867.349 453.471C865.339 456.64 863.233 459.82 861.089 462.919ZM392.048 453.524C390.04 450.356 388.067 447.104 386.185 443.856L387.807 442.917C389.676 446.143 391.636 449.373 393.631 452.519L392.048 453.524ZM873.227 443.776L871.605 442.837C873.481 439.593 875.313 436.275 877.049 432.975L878.708 433.848C876.961 437.17 875.116 440.511 873.227 443.776ZM380.717 433.962C378.971 430.645 377.267 427.247 375.654 423.86L377.347 423.054C378.949 426.418 380.641 429.794 382.376 433.089L380.717 433.962ZM883.786 423.705L882.092 422.899C883.697 419.524 885.256 416.067 886.724 412.625L888.448 413.361C886.97 416.826 885.401 420.306 883.786 423.705ZM371.005 413.567C369.528 410.114 368.106 406.592 366.776 403.097L368.528 402.431C369.849 405.901 371.262 409.4 372.728 412.829L371.005 413.567ZM892.69 402.832L890.937 402.168C892.266 398.661 893.541 395.086 894.723 391.545L896.5 392.138C895.311 395.704 894.029 399.302 892.69 402.832ZM362.964 392.435C361.771 388.871 360.635 385.234 359.588 381.627L361.389 381.105C362.428 384.688 363.557 388.3 364.742 391.84L362.964 392.435ZM899.865 381.325L898.064 380.805C899.098 377.227 900.075 373.572 900.967 369.939L902.787 370.386C901.889 374.044 900.906 377.724 899.865 381.325ZM356.653 370.691C355.753 367.04 354.915 363.325 354.164 359.646L356.001 359.27C356.747 362.925 357.579 366.616 358.473 370.242L356.653 370.691ZM905.264 359.339L903.426 358.965C904.167 355.314 904.845 351.591 905.44 347.901L907.291 348.2C906.692 351.914 906.01 355.662 905.264 359.339ZM352.124 348.508C351.523 344.807 350.988 341.036 350.535 337.298L352.396 337.073C352.847 340.786 353.378 344.532 353.975 348.208L352.124 348.508ZM908.867 336.985L907.005 336.762C907.451 333.051 907.827 329.286 908.122 325.572L909.991 325.72C909.694 329.46 909.316 333.25 908.867 336.985ZM349.399 326.035C349.096 322.29 348.866 318.488 348.713 314.732L350.586 314.656C350.738 318.387 350.967 322.164 351.267 325.884L349.399 326.035ZM910.665 314.42L908.792 314.346C908.938 310.61 909.013 306.827 909.013 303.101L909.013 302.479H910.887L910.888 303.096C910.888 306.851 910.813 310.659 910.665 314.42ZM350.351 303.411H348.477L348.477 303.096C348.477 299.44 348.548 295.736 348.688 292.093L350.561 292.165C350.422 295.784 350.352 299.463 350.352 303.101L350.351 303.411ZM908.765 291.237C908.611 287.515 908.378 283.737 908.073 280.011L909.942 279.858C910.248 283.61 910.483 287.412 910.638 291.159L908.765 291.237ZM351.218 280.938L349.349 280.791C349.644 277.037 350.018 273.247 350.461 269.524L352.323 269.745C351.883 273.444 351.511 277.209 351.218 280.938ZM906.932 268.822C906.48 265.125 905.945 261.379 905.341 257.689L907.192 257.387C907.799 261.101 908.338 264.872 908.792 268.595L906.932 268.822ZM353.876 258.607L352.025 258.31C352.619 254.599 353.297 250.85 354.04 247.169L355.877 247.54C355.139 251.196 354.466 254.919 353.876 258.607ZM903.302 246.629C902.549 242.965 901.713 239.276 900.817 235.66L902.637 235.209C903.54 238.848 904.381 242.564 905.138 246.252L903.302 246.629ZM358.325 236.563L356.504 236.118C357.395 232.469 358.375 228.788 359.415 225.174L361.216 225.693C360.183 229.282 359.21 232.939 358.325 236.563ZM897.891 224.801C896.847 221.221 895.716 217.61 894.526 214.07L896.303 213.473C897.501 217.037 898.641 220.672 899.69 224.277L897.891 224.801ZM364.545 214.951L362.766 214.359C363.953 210.79 365.23 207.19 366.565 203.66L368.319 204.323C366.993 207.829 365.723 211.405 364.545 214.951ZM890.727 203.483C889.395 199.996 887.978 196.499 886.515 193.088L888.238 192.349C889.711 195.783 891.138 199.303 892.479 202.814L890.727 203.483ZM372.52 193.861L370.794 193.126C372.267 189.663 373.833 186.181 375.446 182.778L377.14 183.581C375.537 186.961 373.983 190.42 372.52 193.861ZM881.885 182.868C880.281 179.507 878.585 176.133 876.846 172.839L878.503 171.964C880.255 175.28 881.962 178.677 883.577 182.06L881.885 182.868ZM382.173 173.499L380.512 172.629C382.26 169.298 384.101 165.956 385.983 162.695L387.607 163.632C385.737 166.871 383.908 170.192 382.173 173.499ZM871.403 163.019C869.529 159.792 867.566 156.563 865.569 153.422L867.15 152.416C869.161 155.578 871.137 158.829 873.024 162.077L871.403 163.019ZM393.434 153.996L391.849 152.993C393.86 149.814 395.963 146.632 398.1 143.538L399.642 144.603C397.52 147.677 395.432 150.837 393.434 153.996ZM859.35 144.065C857.224 141 855.007 137.938 852.761 134.963L854.257 133.833C856.518 136.828 858.75 139.911 860.89 142.996L859.35 144.065ZM406.222 135.469L404.723 134.343C406.982 131.336 409.333 128.336 411.708 125.424L413.161 126.609C410.801 129.501 408.466 132.482 406.222 135.469ZM845.811 126.129C843.447 123.244 840.99 120.368 838.511 117.579L839.911 116.334C842.408 119.141 844.88 122.036 847.261 124.941L845.811 126.129ZM420.449 118.036L419.046 116.794C421.535 113.982 424.117 111.18 426.72 108.466L428.073 109.764C425.487 112.459 422.922 115.243 420.449 118.036ZM830.873 109.326C828.279 106.634 825.599 103.962 822.908 101.384L824.205 100.03C826.914 102.626 829.612 105.316 832.222 108.025L830.873 109.326ZM436.019 101.804L434.719 100.453C437.424 97.8498 440.221 95.2648 443.032 92.7686L444.276 94.17C441.485 96.6497 438.706 99.2184 436.019 101.804ZM814.632 93.7645C811.831 91.2879 808.945 88.8374 806.055 86.4817L807.24 85.0286C810.149 87.4003 813.054 89.8668 815.873 92.3603L814.632 93.7645ZM452.831 86.8744L451.643 85.4244C454.551 83.0421 457.545 80.69 460.539 78.4327L461.667 79.9294C458.693 82.1716 455.72 84.5086 452.831 86.8744ZM797.19 79.5472C794.199 77.3027 791.124 75.0907 788.053 72.9725L789.117 71.4292C792.209 73.5616 795.304 75.7882 798.315 78.0479L797.19 79.5472ZM470.775 73.3437L469.706 71.8031C472.797 69.6616 475.967 67.5576 479.13 65.5492L480.135 67.1319C476.993 69.1265 473.844 71.2163 470.775 73.3437ZM778.657 66.7685C775.496 64.772 772.253 62.8136 769.016 60.9476L769.953 59.3237C773.21 61.2021 776.475 63.1738 779.658 65.1835L778.657 66.7685ZM489.734 61.3032L488.794 59.6812C492.035 57.8014 495.363 55.9597 498.683 54.2081L499.558 55.8658C496.259 57.6059 492.954 59.4354 489.734 61.3032ZM759.147 55.5184C755.836 53.7838 752.444 52.0926 749.063 50.4921L749.865 48.7977C753.269 50.4088 756.685 52.1114 760.017 53.8579L759.147 55.5184ZM509.589 50.8316L508.782 49.1391C512.162 47.5276 515.625 45.9614 519.073 44.4839L519.811 46.2071C516.386 47.6744 512.946 49.2302 509.589 50.8316ZM738.781 45.8772C735.335 44.4139 731.815 43.0028 728.316 41.6819L728.979 39.9281C732.5 41.2577 736.046 42.6788 739.513 44.1516L738.781 45.8772ZM530.209 42.001L529.541 40.2489C533.049 38.9116 536.635 37.6273 540.201 36.4314L540.797 38.209C537.256 39.3966 533.693 40.6727 530.209 42.001ZM717.686 37.9142C714.143 36.7393 710.528 35.6212 706.941 34.5909L707.459 32.7895C711.07 33.8266 714.709 34.952 718.275 36.1347L717.686 37.9142ZM551.531 34.8486L551.007 33.049C554.613 32 558.292 31.0104 561.942 30.1074L562.392 31.9272C558.766 32.8242 555.112 33.8074 551.531 34.8486ZM696.07 31.7065C692.451 30.8237 688.757 30.0021 685.092 29.2648L685.462 27.4267C689.151 28.1691 692.87 28.9966 696.514 29.8849L696.07 31.7065ZM573.361 29.4496L572.985 27.6134C576.66 26.8609 580.407 26.1726 584.121 25.567L584.423 27.417C580.734 28.0189 577.012 28.7027 573.361 29.4496ZM674.024 27.2692C670.337 26.6815 666.589 26.1607 662.884 25.7222L663.104 23.8603C666.834 24.302 670.608 24.826 674.319 25.4183L674.024 27.2692ZM595.557 25.8325L595.33 23.9715C599.059 23.5175 602.849 23.1325 606.594 22.8286L606.746 24.6969C603.026 24.9995 599.261 25.3812 595.557 25.8325ZM651.691 24.6237C647.975 24.334 644.197 24.1152 640.463 23.9738L640.534 22.1C644.293 22.2428 648.095 22.463 651.837 22.7545L651.691 24.6237ZM617.973 24.0099L617.896 22.1371C621.644 21.9824 625.453 21.9009 629.215 21.8945L629.218 23.7692C625.481 23.7756 621.697 23.8566 617.973 24.0099Z" fill="#CCCCCC"/>
<path d="M530.384 478.595C630.297 478.595 711.292 397.6 711.292 297.686C711.292 197.773 630.297 116.777 530.384 116.777C430.47 116.777 349.475 197.773 349.475 297.686C349.475 397.6 430.47 478.595 530.384 478.595Z" fill="#65617D"/>
<path d="M466.175 429.853C519.238 429.853 562.254 370.68 562.254 297.686C562.254 224.693 519.238 165.52 466.175 165.52C413.113 165.52 370.097 224.693 370.097 297.686C370.097 370.68 413.113 429.853 466.175 429.853Z" fill="white"/>
<path d="M434.326 367.866C449.135 367.866 461.14 348.981 461.14 325.685C461.14 302.389 449.135 283.504 434.326 283.504C419.517 283.504 407.512 302.389 407.512 325.685C407.512 348.981 419.517 367.866 434.326 367.866Z" fill="#3F3D56"/>
<path d="M885.818 214.465C895.654 214.465 903.627 206.491 903.627 196.655C903.627 186.819 895.654 178.846 885.818 178.846C875.981 178.846 868.008 186.819 868.008 196.655C868.008 206.491 875.981 214.465 885.818 214.465Z" fill="#FDFAF6"/>
<path d="M680.093 52.4917C694.588 52.4917 706.338 40.741 706.338 26.2459C706.338 11.7507 694.588 0 680.093 0C665.597 0 653.847 11.7507 653.847 26.2459C653.847 40.741 665.597 52.4917 680.093 52.4917Z" fill="#FDFAF6"/>
<path d="M662.704 599.16C672.54 599.16 680.514 591.187 680.514 581.351C680.514 571.515 672.54 563.541 662.704 563.541C652.868 563.541 644.895 571.515 644.895 581.351C644.895 591.187 652.868 599.16 662.704 599.16Z" fill="#FDFAF6"/>
</g>
<defs>
<clipPath id="clip0_191_382">
<rect width="910.888" height="653.614" fill="white"/>
</clipPath>
</defs>
</svg>
