<svg xmlns="http://www.w3.org/2000/svg" xmlns:xlink="http://www.w3.org/1999/xlink" width="1080" zoomAndPan="magnify" viewBox="0 0 810 809.999993" height="1080" preserveAspectRatio="xMidYMid meet" version="1.0"><defs><clipPath id="2e31bbbc99"><path d="M 374.167969 455.464844 L 383.917969 455.464844 L 383.917969 465.214844 L 374.167969 465.214844 Z M 374.167969 455.464844 " clip-rule="nonzero"/></clipPath></defs><path fill="#266394" d="M 405.84375 388.800781 L 369.5625 388.800781 L 369.5625 454.78125 C 369.5625 458.324219 366.695312 461.195312 363.148438 461.195312 L 303.582031 461.195312 C 300.039062 461.195312 297.167969 458.324219 297.167969 454.78125 L 297.167969 388.800781 L 260.886719 388.800781 L 260.886719 533.925781 L 406.011719 533.925781 Z M 405.84375 388.800781 " fill-opacity="1" fill-rule="nonzero"/><path fill="#266394" d="M 309.824219 388.800781 L 356.570312 388.800781 L 356.570312 448.367188 L 309.824219 448.367188 Z M 309.824219 388.800781 " fill-opacity="1" fill-rule="nonzero"/><path fill="#266394" d="M 418.835938 388.800781 L 418.835938 533.925781 L 563.960938 533.925781 L 563.960938 388.800781 L 527.679688 388.800781 L 527.679688 454.78125 C 527.679688 458.324219 524.8125 461.195312 521.269531 461.195312 L 461.699219 461.195312 C 458.15625 461.195312 455.289062 458.324219 455.289062 454.78125 L 455.289062 388.800781 Z M 418.835938 388.800781 " fill-opacity="1" fill-rule="nonzero"/><path fill="#266394" d="M 467.945312 388.800781 L 514.6875 388.800781 L 514.6875 448.367188 L 467.945312 448.367188 Z M 467.945312 388.800781 " fill-opacity="1" fill-rule="nonzero"/><path fill="#266394" d="M 484.820312 344.25 C 484.648438 344.082031 484.480469 344.082031 484.3125 344.082031 C 482.625 343.40625 481.105469 342.898438 479.417969 342.226562 C 478.914062 342.054688 478.238281 341.886719 477.730469 341.550781 C 477.054688 341.210938 476.382812 340.875 475.539062 340.707031 C 474.1875 340.03125 472.835938 339.355469 471.320312 338.679688 C 468.617188 337.332031 465.917969 335.8125 463.386719 334.125 C 463.21875 334.125 463.21875 333.957031 463.21875 333.957031 C 462.542969 333.617188 461.867188 333.113281 461.195312 332.605469 C 460.6875 332.269531 460.179688 331.929688 459.675781 331.59375 C 459.335938 331.425781 459 331.085938 458.492188 330.75 C 457.988281 330.414062 457.480469 330.074219 456.976562 329.570312 C 455.457031 328.386719 453.9375 327.207031 452.417969 325.855469 C 444.65625 319.445312 437.90625 311.679688 432.507812 303.074219 L 382.050781 303.074219 C 378.507812 303.074219 375.636719 300.207031 375.636719 296.664062 L 375.636719 230.511719 L 339.355469 230.511719 L 339.355469 375.636719 L 484.480469 375.636719 Z M 484.820312 344.25 " fill-opacity="1" fill-rule="nonzero"/><path fill="#266394" d="M 423.394531 283.835938 C 423.054688 282.992188 422.886719 282.320312 422.550781 281.476562 C 422.210938 280.632812 422.042969 279.957031 421.875 279.113281 C 421.707031 278.4375 421.367188 277.59375 421.199219 276.917969 C 421.199219 276.75 421.03125 276.75 421.03125 276.582031 C 420.863281 275.90625 420.695312 275.398438 420.523438 274.894531 C 420.355469 274.554688 420.355469 274.21875 420.355469 273.882812 C 420.1875 273.207031 420.019531 272.699219 419.851562 272.023438 C 419.679688 271.351562 419.511719 270.84375 419.511719 270.167969 C 419.34375 269.324219 419.175781 268.648438 419.007812 267.804688 C 419.007812 267.636719 419.007812 267.636719 419.007812 267.636719 C 418.835938 266.960938 418.835938 266.457031 418.667969 265.949219 C 418.5 265.613281 418.5 265.273438 418.5 264.9375 C 418.5 264.601562 418.332031 264.261719 418.332031 264.09375 C 418.164062 263.585938 418.164062 263.082031 418.164062 262.574219 C 418.164062 262.40625 418.164062 262.238281 417.992188 262.070312 C 417.992188 261.730469 417.824219 261.5625 417.824219 261.226562 C 417.824219 260.886719 417.65625 260.550781 417.65625 260.210938 C 417.65625 260.042969 417.65625 259.875 417.65625 259.875 C 417.65625 259.707031 417.65625 259.539062 417.488281 259.367188 C 417.320312 258.695312 417.320312 258.019531 417.320312 257.34375 C 417.320312 257.007812 417.148438 256.667969 417.148438 256.164062 C 417.148438 255.824219 417.148438 255.488281 416.980469 255.320312 L 416.980469 255.148438 C 416.980469 254.980469 416.980469 254.8125 416.980469 254.476562 L 416.980469 254.304688 C 416.980469 254.136719 416.980469 254.136719 416.980469 253.96875 C 416.980469 253.800781 416.980469 253.632812 416.980469 253.632812 C 416.980469 253.292969 416.980469 252.789062 416.980469 252.449219 C 416.980469 252.28125 416.980469 252.113281 416.980469 251.773438 L 416.980469 251.605469 C 416.980469 251.4375 416.980469 251.4375 416.980469 251.269531 C 416.980469 251.101562 416.980469 251.101562 416.980469 251.101562 C 416.980469 250.425781 416.980469 249.75 416.980469 249.074219 C 416.980469 248.230469 416.980469 247.386719 416.980469 246.375 C 416.980469 244.519531 417.148438 242.664062 417.320312 240.804688 C 417.320312 240.132812 417.488281 239.457031 417.488281 238.78125 L 417.488281 238.613281 C 417.65625 237.769531 417.65625 236.925781 417.824219 236.25 C 417.992188 235.40625 417.992188 234.5625 418.164062 233.71875 C 418.332031 232.875 418.5 232.03125 418.5 231.1875 C 418.5 230.851562 418.667969 230.511719 418.667969 230.34375 L 388.632812 230.34375 L 388.632812 289.914062 L 425.757812 289.914062 C 424.914062 288.226562 424.070312 286.03125 423.394531 283.835938 Z M 423.394531 283.835938 " fill-opacity="1" fill-rule="nonzero"/><path fill="#266394" d="M 430.144531 251.605469 C 430.144531 252.113281 430.144531 252.449219 430.144531 252.957031 C 430.144531 253.125 430.144531 253.460938 430.144531 253.632812 C 430.144531 253.96875 430.144531 254.136719 430.144531 254.476562 C 430.144531 254.644531 430.144531 254.644531 430.144531 254.644531 C 430.144531 254.8125 430.144531 254.8125 430.144531 254.980469 C 430.144531 255.488281 430.3125 255.824219 430.3125 256.332031 C 430.3125 256.332031 430.3125 256.332031 430.3125 256.5 C 430.3125 257.007812 430.480469 257.511719 430.480469 258.019531 C 430.480469 258.1875 430.480469 258.1875 430.480469 258.1875 C 430.480469 258.1875 430.480469 258.523438 430.480469 258.523438 C 433.179688 283.164062 446.34375 305.269531 465.917969 319.613281 C 466.085938 319.78125 466.085938 319.78125 466.257812 319.78125 C 466.59375 320.117188 467.101562 320.457031 467.605469 320.625 C 468.113281 320.792969 468.449219 321.300781 468.957031 321.636719 C 469.460938 321.976562 469.96875 322.3125 470.304688 322.648438 C 470.980469 322.988281 471.488281 323.324219 471.992188 323.832031 C 472.667969 324.167969 473.34375 324.675781 473.851562 325.011719 C 476.886719 326.699219 480.09375 328.21875 483.132812 329.738281 C 493.59375 334.125 505.070312 336.65625 517.21875 336.65625 C 565.480469 336.65625 604.632812 297.507812 604.632812 249.242188 C 604.632812 200.980469 565.648438 162 517.554688 162 C 476.886719 162 442.800781 189.84375 433.011719 227.476562 C 433.011719 227.644531 433.011719 227.644531 433.011719 227.644531 C 432.84375 228.320312 432.675781 228.992188 432.507812 229.5 C 432.507812 229.667969 432.507812 229.667969 432.335938 229.835938 C 432.167969 230.34375 432.167969 230.851562 432 231.355469 C 431.832031 231.695312 431.832031 232.03125 431.832031 232.199219 C 431.664062 232.875 431.664062 233.382812 431.492188 234.054688 C 431.324219 234.730469 431.324219 235.40625 431.15625 236.25 C 430.988281 236.925781 430.988281 237.601562 430.820312 238.445312 C 430.648438 239.289062 430.648438 239.792969 430.648438 240.46875 C 430.480469 241.3125 430.480469 242.15625 430.480469 243.167969 C 430.480469 243.84375 430.3125 244.351562 430.3125 244.855469 C 430.3125 245.023438 430.3125 245.023438 430.3125 245.195312 C 430.3125 245.867188 430.144531 246.542969 430.144531 247.386719 C 430.144531 248.0625 430.144531 248.90625 430.144531 249.582031 C 430.144531 250.257812 430.144531 250.761719 430.144531 251.4375 C 430.144531 251.269531 430.144531 251.4375 430.144531 251.605469 Z M 469.460938 210.261719 L 550.96875 210.261719 L 537.976562 195.917969 C 535.613281 193.21875 535.78125 189.167969 538.3125 186.804688 C 541.011719 184.445312 545.0625 184.613281 547.425781 187.144531 L 570.039062 212.117188 L 570.207031 212.289062 L 570.375 212.457031 C 570.542969 212.625 570.542969 212.625 570.542969 212.792969 C 570.542969 212.792969 570.542969 212.960938 570.710938 212.960938 C 570.882812 213.132812 570.882812 213.132812 570.882812 213.132812 C 571.050781 213.300781 571.050781 213.300781 571.050781 213.46875 C 571.050781 213.46875 571.050781 213.46875 571.050781 213.636719 C 571.21875 213.804688 571.21875 213.976562 571.21875 213.976562 C 571.21875 213.976562 571.386719 214.144531 571.386719 214.144531 C 571.386719 214.144531 571.554688 214.3125 571.554688 214.3125 L 571.554688 214.480469 C 571.726562 214.648438 571.726562 214.648438 571.726562 214.820312 L 571.726562 215.15625 C 571.894531 215.324219 571.894531 215.492188 571.894531 215.664062 C 571.894531 215.832031 572.0625 216 572.0625 216.335938 C 572.0625 216.507812 572.0625 216.675781 572.0625 217.011719 C 572.0625 217.179688 572.0625 217.351562 572.0625 217.6875 C 572.0625 218.023438 571.894531 218.023438 571.894531 218.363281 C 571.894531 218.53125 571.726562 218.699219 571.726562 218.867188 C 571.726562 219.039062 571.726562 219.039062 571.554688 219.207031 C 571.554688 219.375 571.554688 219.375 571.386719 219.375 C 571.386719 219.542969 571.21875 219.542969 571.21875 219.710938 C 571.21875 219.882812 571.050781 219.882812 571.050781 219.882812 C 570.882812 220.050781 570.882812 220.21875 570.882812 220.21875 C 570.882812 220.21875 570.882812 220.21875 570.882812 220.386719 C 570.882812 220.554688 570.710938 220.554688 570.710938 220.726562 C 570.710938 220.894531 570.542969 220.894531 570.542969 220.894531 C 570.542969 220.894531 570.542969 221.0625 570.375 221.0625 C 570.207031 221.230469 570.207031 221.230469 570.207031 221.398438 C 570.207031 221.398438 570.207031 221.398438 570.207031 221.570312 L 570.039062 221.738281 L 569.867188 221.90625 L 547.257812 246.882812 C 545.90625 248.230469 544.21875 249.074219 542.53125 249.074219 C 541.011719 249.074219 539.324219 248.398438 538.144531 247.386719 C 535.445312 245.023438 535.273438 240.976562 537.804688 238.273438 L 550.800781 223.929688 L 469.292969 223.929688 C 465.75 223.929688 462.882812 221.0625 462.882812 217.519531 C 463.050781 213.132812 465.917969 210.261719 469.460938 210.261719 Z M 463.050781 281.304688 C 463.050781 281.136719 463.21875 280.96875 463.21875 280.632812 C 463.21875 280.460938 463.21875 280.460938 463.21875 280.460938 C 463.21875 280.460938 463.386719 280.125 463.386719 280.125 C 463.386719 280.125 463.386719 279.957031 463.554688 279.957031 C 463.554688 279.789062 463.726562 279.789062 463.726562 279.617188 L 463.726562 279.449219 C 463.726562 279.28125 463.894531 279.28125 463.894531 279.28125 C 463.894531 279.28125 464.0625 279.113281 464.0625 278.945312 C 464.0625 278.945312 464.0625 278.945312 464.0625 278.773438 C 464.230469 278.605469 464.230469 278.4375 464.398438 278.269531 C 464.398438 278.101562 464.570312 278.101562 464.570312 278.101562 C 464.738281 277.929688 464.738281 277.929688 464.738281 277.761719 C 464.90625 277.59375 464.90625 277.59375 464.90625 277.59375 L 487.855469 252.449219 C 490.21875 249.75 494.269531 249.582031 496.96875 252.113281 C 499.667969 254.476562 499.835938 258.523438 497.304688 261.226562 L 484.3125 275.570312 L 565.3125 275.570312 C 568.855469 275.570312 571.726562 278.4375 571.726562 281.980469 C 571.726562 285.523438 568.855469 288.394531 565.3125 288.394531 L 483.976562 288.394531 L 496.96875 302.738281 C 499.332031 305.4375 499.164062 309.488281 496.632812 311.851562 C 495.449219 313.03125 493.761719 313.539062 492.242188 313.539062 C 490.554688 313.539062 488.699219 312.863281 487.519531 311.34375 L 464.738281 286.199219 C 464.570312 286.03125 464.570312 286.03125 464.570312 286.03125 C 464.398438 285.863281 464.398438 285.863281 464.398438 285.695312 C 464.230469 285.523438 464.230469 285.523438 464.230469 285.523438 C 464.0625 285.355469 464.0625 285.1875 463.894531 285.019531 C 463.894531 285.019531 463.894531 285.019531 463.894531 284.851562 C 463.726562 284.679688 463.726562 284.679688 463.726562 284.511719 C 463.726562 284.34375 463.554688 284.34375 463.554688 284.34375 L 463.554688 284.175781 C 463.554688 284.007812 463.386719 284.007812 463.386719 283.835938 C 463.386719 283.667969 463.21875 283.667969 463.21875 283.667969 C 463.21875 283.5 463.050781 283.332031 463.050781 283.332031 C 463.050781 283.332031 463.050781 283.164062 463.050781 283.164062 C 463.050781 282.992188 462.882812 282.824219 462.882812 282.488281 C 462.882812 282.148438 462.882812 282.148438 462.882812 281.8125 C 463.050781 281.8125 463.050781 281.644531 463.050781 281.304688 Z M 463.050781 281.304688 " fill-opacity="1" fill-rule="nonzero"/><path fill="#266394" d="M 176.511719 546.917969 L 647.832031 546.917969 L 647.832031 586.742188 L 176.511719 586.742188 Z M 176.511719 546.917969 " fill-opacity="1" fill-rule="nonzero"/><path fill="#266394" d="M 639.054688 635.007812 L 604.460938 635.007812 L 604.460938 599.738281 L 561.09375 599.738281 L 561.09375 635.007812 L 263.417969 635.007812 L 263.417969 599.738281 L 220.21875 599.738281 L 220.21875 635.007812 L 185.625 635.007812 C 182.082031 635.007812 179.210938 637.875 179.210938 641.417969 C 179.210938 644.960938 182.082031 647.832031 185.625 647.832031 L 639.226562 647.832031 C 642.769531 647.832031 645.636719 644.960938 645.636719 641.417969 C 645.636719 637.875 642.601562 635.007812 639.054688 635.007812 Z M 639.054688 635.007812 " fill-opacity="1" fill-rule="nonzero"/><path fill="#266394" d="M 168.582031 327.710938 L 212.457031 327.710938 C 216 327.710938 218.867188 324.84375 218.867188 321.300781 C 218.867188 317.757812 216 314.886719 212.457031 314.886719 L 168.582031 314.886719 C 165.039062 314.886719 162.167969 317.757812 162.167969 321.300781 C 162.167969 324.84375 165.039062 327.710938 168.582031 327.710938 Z M 168.582031 327.710938 " fill-opacity="1" fill-rule="nonzero"/><path fill="#266394" d="M 168.582031 363.65625 L 212.457031 363.65625 C 216 363.65625 218.867188 360.789062 218.867188 357.242188 C 218.867188 353.699219 216 350.832031 212.457031 350.832031 L 168.582031 350.832031 C 165.039062 350.832031 162.167969 353.699219 162.167969 357.242188 C 162.167969 360.789062 165.039062 363.65625 168.582031 363.65625 Z M 168.582031 363.65625 " fill-opacity="1" fill-rule="nonzero"/><path fill="#266394" d="M 218.867188 429.132812 C 218.867188 425.585938 216 422.71875 212.457031 422.71875 L 168.582031 422.71875 C 165.039062 422.71875 162.167969 425.585938 162.167969 429.132812 C 162.167969 432.675781 165.039062 435.542969 168.582031 435.542969 L 212.457031 435.542969 C 216 435.542969 218.867188 432.675781 218.867188 429.132812 Z M 218.867188 429.132812 " fill-opacity="1" fill-rule="nonzero"/><path fill="#266394" d="M 168.582031 399.601562 L 212.457031 399.601562 C 216 399.601562 218.867188 396.730469 218.867188 393.1875 C 218.867188 389.644531 216 386.773438 212.457031 386.773438 L 168.582031 386.773438 C 165.039062 386.773438 162.167969 389.644531 162.167969 393.1875 C 162.167969 396.730469 165.039062 399.601562 168.582031 399.601562 Z M 168.582031 399.601562 " fill-opacity="1" fill-rule="nonzero"/><path fill="#266394" d="M 778.105469 247.386719 C 757.6875 199.125 728.492188 155.925781 691.367188 118.632812 C 654.242188 81.507812 610.875 52.3125 562.613281 31.894531 C 512.664062 10.800781 459.675781 0 405 0 C 350.324219 0 297.335938 10.632812 247.386719 31.894531 C 199.125 52.3125 155.925781 81.507812 118.632812 118.632812 C 81.335938 155.757812 52.3125 199.125 31.894531 247.386719 C 10.800781 297.335938 0 350.324219 0 405 C 0 459.675781 10.632812 512.664062 31.894531 562.613281 C 52.3125 610.875 81.507812 654.074219 118.632812 691.367188 C 155.757812 728.492188 199.125 757.6875 247.386719 778.105469 C 297.335938 799.199219 350.324219 810 405 810 C 459.675781 810 512.664062 799.367188 562.613281 778.105469 C 610.875 757.6875 654.074219 728.492188 691.367188 691.367188 C 728.492188 654.242188 757.6875 610.875 778.105469 562.613281 C 799.199219 512.664062 810 459.675781 810 405 C 810 350.324219 799.199219 297.335938 778.105469 247.386719 Z M 794.8125 405 C 794.8125 619.988281 619.820312 794.980469 404.832031 794.980469 C 189.84375 794.980469 14.851562 619.988281 14.851562 405 C 14.851562 190.011719 189.84375 15.019531 404.832031 15.019531 C 619.988281 15.019531 794.8125 190.011719 794.8125 405 Z M 794.8125 405 " fill-opacity="1" fill-rule="nonzero"/><g clip-path="url(#2e31bbbc99)"><path fill="#266394" d="M 376.609375 456.339844 C 376.570312 456.269531 376.59375 456.175781 376.667969 456.132812 C 376.738281 456.09375 376.832031 456.117188 376.871094 456.191406 L 377.09375 456.574219 C 377.152344 456.675781 377.078125 456.800781 376.964844 456.800781 C 376.910156 456.800781 376.859375 456.773438 376.832031 456.726562 Z M 374.835938 457.964844 C 374.878906 457.890625 374.972656 457.867188 375.042969 457.90625 L 375.429688 458.128906 C 375.5625 458.207031 375.507812 458.414062 375.351562 458.414062 C 375.328125 458.414062 375.300781 458.40625 375.277344 458.390625 L 374.894531 458.167969 C 374.820312 458.128906 374.796875 458.035156 374.835938 457.964844 Z M 384.160156 460.460938 C 384.160156 460.542969 384.09375 460.613281 384.007812 460.613281 L 383.5625 460.613281 C 383.480469 460.613281 383.414062 460.542969 383.414062 460.460938 C 383.414062 460.378906 383.480469 460.308594 383.5625 460.308594 L 384.007812 460.308594 C 384.09375 460.308594 384.160156 460.378906 384.160156 460.460938 Z M 374.765625 460.613281 L 374.320312 460.613281 C 374.234375 460.613281 374.167969 460.542969 374.167969 460.460938 C 374.167969 460.378906 374.234375 460.308594 374.320312 460.308594 L 374.765625 460.308594 C 374.847656 460.308594 374.914062 460.378906 374.914062 460.460938 C 374.914062 460.542969 374.847656 460.613281 374.765625 460.613281 Z M 382.84375 458.335938 C 382.800781 458.265625 382.828125 458.171875 382.898438 458.128906 L 383.285156 457.90625 C 383.355469 457.867188 383.449219 457.890625 383.492188 457.964844 C 383.53125 458.035156 383.507812 458.128906 383.4375 458.167969 L 383.050781 458.390625 C 382.980469 458.433594 382.886719 458.410156 382.84375 458.335938 Z M 379.011719 456.0625 L 379.011719 455.617188 C 379.011719 455.53125 379.082031 455.464844 379.164062 455.464844 C 379.246094 455.464844 379.316406 455.53125 379.316406 455.617188 L 379.316406 456.0625 C 379.316406 456.144531 379.246094 456.210938 379.164062 456.210938 C 379.082031 456.210938 379.011719 456.144531 379.011719 456.0625 Z M 381.234375 456.574219 L 381.457031 456.191406 C 381.496094 456.117188 381.589844 456.09375 381.664062 456.132812 C 381.734375 456.175781 381.757812 456.269531 381.71875 456.339844 L 381.496094 456.726562 C 381.453125 456.800781 381.359375 456.824219 381.289062 456.78125 C 381.214844 456.738281 381.191406 456.648438 381.234375 456.574219 Z M 378.417969 457.539062 C 378.417969 457.449219 378.492188 457.378906 378.582031 457.378906 L 379.746094 457.378906 C 379.835938 457.378906 379.910156 457.449219 379.910156 457.539062 L 379.910156 457.890625 L 378.417969 457.890625 Z M 381.214844 458.433594 L 381.214844 458.726562 L 379.445312 459.675781 C 379.265625 459.773438 379.0625 459.773438 378.882812 459.675781 L 377.113281 458.726562 L 377.113281 458.433594 C 377.113281 458.300781 377.222656 458.191406 377.355469 458.191406 L 380.972656 458.191406 C 381.105469 458.191406 381.214844 458.300781 381.214844 458.433594 Z M 380.972656 460.988281 C 381.105469 460.988281 381.214844 460.878906 381.214844 460.746094 L 381.214844 459.070312 L 379.589844 459.941406 C 379.316406 460.089844 379.011719 460.089844 378.738281 459.941406 L 377.113281 459.070312 L 377.113281 460.746094 C 377.113281 460.878906 377.222656 460.988281 377.355469 460.988281 Z M 376.8125 458.433594 L 376.8125 460.746094 C 376.8125 461.046875 377.054688 461.289062 377.355469 461.289062 L 380.972656 461.289062 C 381.273438 461.289062 381.515625 461.046875 381.515625 460.746094 L 381.515625 458.433594 C 381.515625 458.132812 381.273438 457.890625 380.972656 457.890625 L 380.210938 457.890625 L 380.210938 457.539062 C 380.210938 457.28125 380.003906 457.074219 379.746094 457.074219 L 378.582031 457.074219 C 378.324219 457.074219 378.117188 457.28125 378.117188 457.539062 L 378.117188 457.890625 L 377.355469 457.890625 C 377.054688 457.890625 376.8125 458.132812 376.8125 458.433594 Z M 383.027344 462.679688 L 380.703125 464.019531 C 380.085938 464.375 379.722656 464.554688 379.035156 464.65625 C 378.3125 464.765625 377.589844 464.707031 376.917969 464.632812 C 376.613281 464.597656 376.335938 464.574219 376.050781 464.554688 L 376.050781 462.59375 C 376.617188 462.539062 377.117188 462.546875 377.753906 462.71875 C 377.765625 462.722656 377.777344 462.722656 377.792969 462.722656 L 379.433594 462.722656 C 379.683594 462.722656 379.851562 462.976562 379.753906 463.203125 C 379.699219 463.335938 379.574219 463.421875 379.433594 463.421875 L 377.792969 463.421875 C 377.707031 463.421875 377.640625 463.488281 377.640625 463.574219 C 377.640625 463.65625 377.707031 463.722656 377.792969 463.722656 L 379.433594 463.722656 C 379.652344 463.722656 379.851562 463.613281 379.972656 463.4375 C 380.027344 463.449219 380.085938 463.453125 380.140625 463.453125 C 380.402344 463.453125 380.539062 463.355469 380.722656 463.246094 L 382.699219 462.105469 C 382.855469 462.015625 383.058594 462.070312 383.148438 462.226562 C 383.242188 462.386719 383.1875 462.585938 383.027344 462.679688 Z M 375.75 464.808594 C 375.75 464.882812 375.6875 464.945312 375.609375 464.945312 L 374.929688 464.945312 C 374.851562 464.945312 374.789062 464.882812 374.789062 464.808594 L 374.789062 462.492188 C 374.789062 462.417969 374.851562 462.355469 374.929688 462.355469 L 375.609375 462.355469 C 375.6875 462.355469 375.75 462.417969 375.75 462.492188 Z M 382.546875 461.84375 L 380.570312 462.984375 C 380.386719 463.089844 380.292969 463.167969 380.082031 463.148438 C 380.125 462.761719 379.824219 462.421875 379.433594 462.421875 L 377.8125 462.421875 C 377.132812 462.242188 376.605469 462.234375 376.003906 462.292969 C 375.929688 462.148438 375.78125 462.050781 375.609375 462.050781 L 374.929688 462.050781 C 374.6875 462.050781 374.488281 462.25 374.488281 462.492188 L 374.488281 464.808594 C 374.488281 465.050781 374.6875 465.25 374.929688 465.25 L 375.609375 465.25 C 375.835938 465.25 376.023438 465.078125 376.050781 464.855469 C 376.320312 464.875 376.589844 464.902344 376.882812 464.933594 C 377.609375 465.015625 378.335938 465.066406 379.078125 464.957031 C 379.84375 464.84375 380.261719 464.628906 380.855469 464.285156 L 383.179688 462.941406 C 383.484375 462.765625 383.585938 462.378906 383.414062 462.074219 C 383.238281 461.773438 382.847656 461.667969 382.546875 461.84375 Z M 382.546875 461.84375 " fill-opacity="1" fill-rule="evenodd"/></g></svg>